{
.appVersion = "3151";
.formatVersion = 3;
axes = (
{
name = Weight;
tag = wght;
}
);
customParameters = (
{
name = fsType;
value = (
);
},
{
name = unicodeRanges;
value = (
0,
1,
2,
20,
73
);
},
{
name = glyphOrder;
value = (
sinA,
sinAa,
sinAe,
sinAae,
sinI,
sinIi,
sinU,
sinUu,
sinRVocalic,
sinRrVocalic,
sinLVocalic,
sinLlVocalic,
sinE,
sinEe,
sinAi,
sinO,
sinOo,
sinAu,
sinKa,
sinKha,
sinGa,
sinGha,
sinNga,
sinNnga,
sinCa,
sinCha,
sinJa,
sinJha,
sinNya,
sinJnya,
sinNyja,
sinTta,
sinTtha,
sinDda,
sinDdha,
sinNna,
sinNndda,
sinTa,
sinTha,
sinDa,
sinDha,
sinNa,
sinNda,
sinPa,
sinPha,
sinBa,
sinBha,
sinMa,
sinMba,
sinYa,
sinRa,
sinLa,
sinVa,
sinSha,
sinSsa,
sinSa,
sinHa,
sinLla,
sinFa,
sinfPa,
sinKSsa,
sinKVa,
sinTVa,
sinTTha,
sinNDa,
sinNDha,
sinNVa,
sinNTha,
sinGDha,
sinDVa,
sinDDha,
sinTtTtha,
sinNyCa,
sinNyCha,
sinCCa,
sinBBa,
sinMatraAa,
sinMatraAae,
sinMatraAe,
sinMatraAi,
sinMatraAu,
sinMatraE,
sinMatraEe,
sinMatraI,
sinMatraIi,
sinMatraLl,
sinMatraLs,
sinMatraO,
sinMatraOo,
sinMatraR,
sinMatraRr,
sinMatraU,
sinMatraUu,
sinMatraU.sub,
sinMatraUu.sub,
sinVirama,
sinRakar,
sinReph,
sinYansaya,
sinAnusvara,
sinCandrabindu,
sinVisarga,
sinMatraAa,
sinMatraAa.virama,
sinTouch,
sinK,
sinKh,
sinG,
sinGh,
sinNg,
sinNng,
sinC,
sinCh,
sinJ,
sinJh,
sinNy,
sinJny,
sinNyj,
sinTt,
sinTth,
sinDd,
sinDdh,
sinNn,
sinNndd,
sinT,
sinTh,
sinD,
sinDh,
sinN,
sinNd,
sinP,
sinPh,
sinB,
sinBh,
sinM,
sinMb,
sinY,
sinR,
sinL,
sinV,
sinSh,
sinSs,
sinS,
sinH,
sinLl,
sinF,
sinfP,
sinKSs,
sinKV,
sinTV,
sinTTh,
sinND,
sinNDh,
sinNV,
sinNTh,
sinGDh,
sinDV,
sinDDh,
sinTtTth,
sinNyC,
sinNyCh,
sinCC,
sinBB,
sinKI,
sinKhI,
sinGI,
sinGhI,
sinNgI,
sinNngI,
sinCI,
sinChI,
sinJI,
sinJhI,
sinNyI,
sinJnyI,
sinNyjI,
sinTtI,
sinTthI,
sinDdI,
sinDdhI,
sinNnI,
sinNnddI,
sinTI,
sinThI,
sinDI,
sinDhI,
sinNI,
sinNdI,
sinPI,
sinPhI,
sinBI,
sinBhI,
sinMI,
sinMbI,
sinYI,
sinRI,
sinLI,
sinVI,
sinShI,
sinSsI,
sinSI,
sinHI,
sinLlI,
sinFI,
sinfPI,
sinKSsI,
sinKVI,
sinTVI,
sinTThI,
sinNDI,
sinNDhI,
sinNVI,
sinNThI,

glyphs = (
{
glyphname = sinA;
layers = (
{
layerId = "DC4431BF-9234-4C16-9154-22D387E42D10";
shapes = (
{
closed = 1;
nodes = (
(337,40,l),
(257,40,ls),
(133,40,o),
(72,108,o),
(72,199,cs),
(72,293,o),
(130,362,o),
(246,362,cs),
(432,362,l),
(432,389,ls),
(432,519,o),
(339,579,o),
(241,579,cs),
(163,579,o),
(89,536,o),
(68,456,c),
(107,443,l),
(124,505,o),
(182,538,o),
(243,538,cs),
(320,538,o),
(392,493,o),
(392,402,c),
(256,402,ls),
(125,402,o),
(30,335,o),
(30,199,cs),
(30,60,o),
(137,0,o),
(257,0,cs),
(337,0,l)
);
},
{
closed = 1;
nodes = (
(432,-169,l),
(432,0,l),
(494,0,l),
(494,41,l),
(432,41,l),
(432,433,ls),
(432,474.004,o),
(453,532,o),
(511,545,c),
(503,583,l),
(446,570,o),
(392,519,o),
(392,433,cs),
(392,-169,l)
);
}
);
width = 541;
},
{
layerId = "4EACF7E3-2421-4EEA-928B-7BA9BC4A845D";
shapes = (
{
closed = 1;
nodes = (
(257,136,l),
(241,136,ls),
(208,136,o),
(173,152,o),
(173,201,cs),
(173,263,o),
(231,263,o),
(256,263,cs),
(442,263,l),
(442,402,ls),
(442,518,o),
(338,578,o),
(238,578,cs),
(158,578,o),
(79,539,o),
(58,459,c),
(176,420,l),
(185,444,o),
(214,457,o),
(243,457,cs),
(278,457,o),
(313,439,o),
(313,402,c),
(256,402,ls),
(125,402,o),
(30,336,o),
(30,201,cs),
(30,65,o),
(126,0,o),
(239,0,cs),
(257,0,l)
);
},
{
closed = 1;
nodes = (
(442,-169,l),
(442,0,l),
(494,0,l),
(494,140,l),
(442,140,l),
(442,362,ls),
(442,395,o),
(446,416,o),
(514,434,c),
(484,579,l),
(338,529,o),
(312,466,o),
(312,380,cs),
(312,-169,l)
);
}
);
width = 544;
}
);
unicode = 3461;
},
{
glyphname = sinI;
layers = (
{
layerId = "DC4431BF-9234-4C16-9154-22D387E42D10";
shapes = (
{
closed = 1;
nodes = (
(283,0,ls),
(448,0,o),
(525,96,o),
(525,249,cs),
(525,377,ls),
(525,506,o),
(428,569,o),
(324,569,cs),
(308,569,l),
(308,529,l),
(362,529,o),
(485,510,o),
(485,377,cs),
(485,249,ls),
(485,83,o),
(368,40,o),
(283,40,cs),
(192,40,l),
(192,0,l)
);
},
{
closed = 1;
nodes = (
(337,-204,o),
(430,-151,o),
(430,-45,c),
(390,-45,l),
(390,-121,o),
(314,-164,o),
(248,-164,cs),
(192,-164,o),
(126,-134,o),
(110,-66,c),
(71,-76,l),
(89,-161,o),
(176,-204,o),
(252,-204,cs)
);
},
{
closed = 1;
nodes = (
(233,174,o),
(300,214,o),
(300,292,cs),
(300,365,l),
(260,365,l),
(260,292,ls),
(260,242,o),
(213,217,o),
(166,217,cs),
(119,217,o),
(62,241,o),
(62,312,cs),
(62,385,ls),
(62,500,o),
(195,529,o),
(237,529,cs),
(253,529,l),
(253,569,l),
(237,569,ls),
(133,569,o),
(20,503,o),
(20,384,cs),
(20,312,ls),
(20,213,o),
(98,174,o),
(165,174,cs)
);
}
);
width = 555;
},
{
layerId = "4EACF7E3-2421-4EEA-928B-7BA9BC4A845D";
shapes = (
{
closed = 1;
nodes = (
(287,0,ls),
(412,0,o),
(539,86,o),
(539,249,cs),
(539,389,ls),
(539,505,o),
(432,578,o),
(328,578,cs),
(312,578,l),
(312,437,l),
(366,437,o),
(402,417,o),
(402,345,cs),
(402,278,ls),
(402,172,o),
(331,128,o),
(225,128,cs),
(196,128,l),
(196,0,l)
);
},
{
closed = 1;
nodes = (
(367.001,-204,o),
(434,-136,o),
(434,-45,c),
(297,-45,l),
(297,-61,o),
(277,-78,o),
(248,-78,cs),
(227,-78,o),
(203,-67,o),
(198,-47,c),
(65,-81,l),
(87,-148,o),
(142,-204,o),
(248,-204,cs)
);
},
{
closed = 1;
nodes = (
(354,176,o),
(354,259,o),
(354,277,cs),
(354,365,l),
(224,365,l),
(224,347,ls),
(224,333,o),
(222,316,o),
(196,316,cs),
(170,316,o),
(168,333,o),
(168,346,cs),
(168,373,ls),
(168,414,o),
(199,437,o),
(241,437,cs),
(257,437,l),
(257,578,l),
(241,578,ls),
(137,578,o),
(30,505,o),
(30,390,cs),
(30,318,ls),
(30,250,o),
(68,176,o),
(207,176,cs)
);
}
);
width = 569;
}
);
unicode = 3465;
userData = {
com.fontlab.hintData = {
hhints = (
{
position = -204;
width = 126;
},
{
position = 0;
width = 128;
},
{
position = 176;
width = 140;
},
{
position = 428;
width = 141;
}
);
vhints = (
{
position = 30;
width = 138;
},
{
position = 402;
width = 137;
}
);
};
};
},
{
glyphname = sinIi;
layers = (
{
layerId = "DC4431BF-9234-4C16-9154-22D387E42D10";
shapes = (
{
closed = 1;
nodes = (
(463,595,o),
(496,628,o),
(496,667,cs),
(496,707,o),
(463,740,o),
(423,740,cs),
(383,740,o),
(350,707,o),
(350,667,cs),
(350,628,o),
(383,595,o),
(423,595,cs)
);
},
{
closed = 1;
nodes = (
(163,697.002,o),
(196,730.002,o),
(196,769.002,cs),
(196,809.002,o),
(163,842.002,o),
(123,842.002,cs),
(83,842.002,o),
(50,809.002,o),
(50,769.002,cs),
(50,730.002,o),
(83,697.002,o),
(123,697.002,cs)
);
},
{
ref = sinRa;
}
);
width = 526;
},
{
layerId = "4EACF7E3-2421-4EEA-928B-7BA9BC4A845D";
shapes = (
{
closed = 1;
nodes = (
(576,587,o),
(609,620,o),
(609,659,cs),
(609,699,o),
(576,732,o),
(536,732,cs),
(496,732,o),
(463,699,o),
(463,659,cs),
(463,620,o),
(496,587,o),
(536,587,cs)
);
},
{
closed = 1;
nodes = (
(163,697.002,o),
(196,730.002,o),
(196,769.002,cs),
(196,809.002,o),
(163,842.002,o),
(123,842.002,cs),
(83,842.002,o),
(50,809.002,o),
(50,769.002,cs),
(50,730.002,o),
(83,697.002,o),
(123,697.002,cs)
);
},
{
ref = sinRa;
}
);
width = 609;
}
);
unicode = 3466;
userData = {
com.fontlab.hintData = {
hhints = (
{
position = -6;
width = 145;
},
{
position = 587;
width = 145;
},
{
position = 697;
width = 145;
}
);
vhints = (
{
position = 30;
width = 140;
},
{
position = 50;
width = 146;
},
{
position = 375;
width = 140;
},
{
position = 463;
width = 146;
}
);
};
};
},
{
glyphname = sinU;
layers = (
{
layerId = "DC4431BF-9234-4C16-9154-22D387E42D10";
shapes = (
{
closed = 1;
nodes = (
(268,-129,l),
(244,-129,o),
(70,-96,o),
(70,85,cs),
(70,133,ls),
(70,339,o),
(189,357,o),
(268,357,cs),
(513,357,l),
(513,395,l),
(506,521,o),
(411,574,o),
(316,574,cs),
(233,574,o),
(150,533,o),
(128,464,c),
(166,450,l),
(181,499,o),
(249,533,o),
(318,533,cs),
(389,533,o),
(461,496,o),
(471,397,c),
(268,397,ls),
(61,397,o),
(30,247,o),
(30,133,cs),
(30,85,ls),
(30,-83,o),
(164,-169,o),
(268,-169,c)
);
},
{
closed = 1;
nodes = (
(423,-168,o),
(540,-135,o),
(569,4,c),
(530,15,l),
(502,-117,o),
(378,-128,o),
(324,-128,c),
(324,-168,l)
);
}
);
width = 544;
},
{
layerId = "4EACF7E3-2421-4EEA-928B-7BA9BC4A845D";
shapes = (
{
closed = 1;
nodes = (
(268,-28,l),
(245,-26,o),
(171,-16,o),
(171,85,cs),
(171,133,ls),
(171,209,o),
(189,257,o),
(268,257,cs),
(513,257,l),
(513,385,ls),
(513,520,o),
(419,575,o),
(315,575,cs),
(232,575,o),
(149,540,o),
(128,464,c),
(243,420,l),
(254,454,o),
(297,454,o),
(312,454,cs),
(330,454,o),
(384,446,o),
(384,398,c),
(264,398,ls),
(61,398,o),
(30,247,o),
(30,133,cs),
(30,85,ls),
(30,-83,o),
(164,-169,o),
(268,-169,c)
);
},
{
closed = 1;
nodes = (
(423,-168,o),
(540,-135,o),
(569,4,c),
(434,42,l),
(421,-8,o),
(378,-28,o),
(324,-28,c),
(324,-168,l)
);
}
);
width = 569;
}
);
unicode = 3467;
userData = {
com.fontlab.hintData = {
hhints = (
{
position = -169;
width = 40;
},
{
position = 357;
width = 40;
},
{
position = 533;
width = 41;
}
);
vhints = (
{
position = 30;
width = 40;
},
{
position = 128;
width = 38;
},
{
position = 530;
width = 39;
}
);
};
};
},
{
glyphname = sinRVocalic;
layers = (
{
layerId = "DC4431BF-9234-4C16-9154-22D387E42D10";
shapes = (
{
closed = 1;
nodes = (
(239,0,o),
(289,25,o),
(315,67,c),
(341,25,o),
(391,0,o),
(448,0,cs),
(532,0,o),
(600,56,o),
(600,140,cs),
(600,192,l),
(560,192,l),
(560,141,ls),
(560,74,o),
(511,40,o),
(448,40,cs),
(384,40,o),
(335,74,o),
(335,141,cs),
(335,192,l),
(295,192,l),
(295,141,ls),
(295,74,o),
(246,40,o),
(182,40,cs),
(119,40,o),
(70,74,o),
(70,141,cs),
(70,192,l),
(30,192,l),
(30,140,ls),
(30,56,o),
(98,0,o),
(182,0,cs)
);
},
{
closed = 1;
nodes = (
(70,241,l),
(70,288,ls),
(70,355,o),
(109,362,o),
(145,362,cs),
(485,362,ls),
(521,362,o),
(560,355,o),
(560,288,cs),
(560,241,l),
(600,241,l),
(600,288,ls),
(600,337,o),
(595,402,o),
(484,402,cs),
(146,402,ls),
(35,402,o),
(30,337,o),
(30,288,cs),
(30,241,l)
);
},
{
closed = 1;
nodes = (
(335,379,l),
(335,415,ls),
(335,469,o),
(366,524,o),
(444,524,cs),
(507,524,o),
(542,500,o),
(555,464,c),
(594,477,l),
(568,542,o),
(508,564,o),
(444,564,cs),
(407,564,o),
(346,551,o),
(315,498,c),
(284,551,o),
(223,564,o),
(186,564,cs),
(122,564,o),
(62,542,o),
(36,477,c),
(75,464,l),
(88,500,o),
(123,524,o),
(186,524,cs),
(264,524,o),
(295,469,o),
(295,415,cs),
(295,379,l)
);
},
{
pos = (651,0);
ref = sinMatraR;
}
);
width = 965;
},
{
layerId = "4EACF7E3-2421-4EEA-928B-7BA9BC4A845D";
shapes = (
{
closed = 1;
nodes = (
(255,-8,o),
(293,4,o),
(322,36,c),
(352,4,o),
(394,-8,o),
(442,-8,cs),
(547,-8,o),
(620,50,o),
(620,160,cs),
(620,202,l),
(481,202,l),
(481,171,ls),
(481,145,o),
(458,131,o),
(435,131,cs),
(412,131,o),
(389,145,o),
(389,173,cs),
(389,202,l),
(261,202,l),
(261,173,ls),
(261,145,o),
(238,131,o),
(215,131,cs),
(192,131,o),
(169,145,o),
(169,171,cs),
(169,202,l),
(30,202,l),
(30,160,ls),
(30,58,o),
(105,-8,o),
(210,-8,cs)
);
},
{
closed = 1;
nodes = (
(169,251,l),
(169,258,ls),
(169,271,o),
(182,283,o),
(206,283,cs),
(444,283,ls),
(468,283,o),
(481,271,o),
(481,258,cs),
(481,251,l),
(620,251,l),
(620,279,ls),
(620,392,o),
(528,402,o),
(466,402,cs),
(184,402,ls),
(122,402,o),
(30,392,o),
(30,279,cs),
(30,251,l)
);
},
{
closed = 1;
nodes = (
(389,378,l),
(389,397,ls),
(389,443,o),
(429,451,o),
(447,451,cs),
(471,451,o),
(487,436,o),
(491,421,c),
(609,460,l),
(585,537,o),
(517,575,o),
(446,575,cs),
(404,575,o),
(361,562,o),
(325,536,c),
(289,562,o),
(246,575,o),
(204,575,cs),
(133,575,o),
(65,537,o),
(41,460,c),
(159,421,l),
(163,436,o),
(179,451,o),
(203,451,cs),
(221,451,o),
(261,443,o),
(261,397,cs),
(261,378,l)
);
},
{
pos = (640,0);
ref = sinMatraR;
}
);
width = 1015;
}
);
unicode = 3469;
},
{
glyphname = sinLVocalic;
layers = (
{
layerId = "DC4431BF-9234-4C16-9154-22D387E42D10";
shapes = (
{
closed = 1;
nodes = (
(171,-6,o),
(204,27,o),
(204,69,cs),
(204,111,o),
(171,144,o),
(129,144,cs),
(87,144,o),
(54,111,o),
(54,69,cs),
(54,27,o),
(87,-6,o),
(129,-6,cs)
);
},
{
closed = 1;
nodes = (
(96,69,l),
(82,95,o),
(70,155,o),
(70,202,c),
(30,202,l),
(30,139,o),
(41,74,o),
(63,33,c)
);
},
{
closed = 1;
nodes = (
(70,251,l),
(70,373,ls),
(70,455,o),
(110,477,o),
(146,477,cs),
(157,477,o),
(168,475,o),
(178,472,cs),
(202,464,l),
(202,507,l),
(181,514,o),
(162,518,o),
(144,518,cs),
(75,518,o),
(30,465,o),
(30,371,cs),
(30,251,l)
);
},
{
closed = 1;
nodes = (
(854,251,l),
(854,371,ls),
(854,465,o),
(809,518,o),
(740,518,cs),
(722,518,o),
(703,514,o),
(682,507,c),
(682,464,l),
(706,472,ls),
(716,475,o),
(727,477,o),
(738,477,cs),
(774,477,o),
(814,455,o),
(814,373,cs),
(814,251,l)
);
},
{
closed = 1;
nodes = (
(843,74,o),
(854,139,o),
(854,202,c),
(814,202,l),
(814,155,o),
(802,95,o),
(788,69,c),
(821,33,l)
);
},
{
closed = 1;
nodes = (
(797,-6,o),
(830,27,o),
(830,69,cs),
(830,111,o),
(797,144,o),
(755,144,cs),
(713,144,o),
(680,111,o),
(680,69,cs),
(680,27,o),
(713,-6,o),
(755,-6,cs)
);
},
{
pos = (132,0);
ref = sinPa;
}
);
width = 884;
},
{
layerId = "4EACF7E3-2421-4EEA-928B-7BA9BC4A845D";
shapes = (
{
closed = 1;
nodes = (
(191,-6,o),
(233,36,o),
(233,88,cs),
(233,140,o),
(191,182,o),
(139,182,cs),
(87,182,o),
(45,140,o),
(45,88,cs),
(45,36,o),
(87,-6,o),
(139,-6,cs)
);
},
{
closed = 1;
nodes = (
(178,86,l),
(168,122,o),
(161,155,o),
(161,202,c),
(30,202,l),
(30,139,o),
(34,94,o),
(53,50,c)
);
},
{
closed = 1;
nodes = (
(161,251,l),
(161,307,ls),
(161,414,o),
(211,437,o),
(254,437,cs),
(270,437,o),
(287,434,o),
(298,430,cs),
(321,422,l),
(321,556,l),
(293,567,o),
(265,572,o),
(239,572,cs),
(120,572,o),
(30,467,o),
(30,332,cs),
(30,251,l)
);
},
{
closed = 1;
nodes = (
(948,251,l),
(948,332,ls),
(948,467,o),
(858,572,o),
(739,572,cs),
(713,572,o),
(685,567,o),
(657,556,c),
(657,422,l),
(680,430,ls),
(691,434,o),
(708,437,o),
(724,437,cs),
(767,437,o),
(817,414,o),
(817,307,cs),
(817,251,l)
);
},
{
closed = 1;
nodes = (
(944,94,o),
(948,139,o),
(948,202,c),
(817,202,l),
(817,155,o),
(810,122,o),
(800,86,c),
(925,50,l)
);
},
{
closed = 1;
nodes = (
(891,-6,o),
(933,36,o),
(933,88,cs),
(933,140,o),
(891,182,o),
(839,182,cs),
(787,182,o),
(745,140,o),
(745,88,cs),
(745,36,o),
(787,-6,o),
(839,-6,cs)
);
},
{
pos = (175,0);
ref = sinPa;
}
);
width = 978;
}
);
unicode = 3471;
},
{
glyphname = sinE;
layers = (
{
layerId = "DC4431BF-9234-4C16-9154-22D387E42D10";
shapes = (
{
closed = 1;
nodes = (
(279,40,l),
(164,40,o),
(115,119,o),
(115,191,cs),
(115,252,o),
(150,309,o),
(209,309,cs),
(335,309,l),
(335,354,ls),
(335,396,o),
(318,427,o),
(292,448,cs),
(266,469,o),
(232,479,o),
(199,479,cs),
(144,479,o),
(91,452,o),
(77,399,c),
(116,389,l),
(130,422,o),
(164,438,o),
(198,438,cs),
(244,438,o),
(295,405,o),
(295,357,cs),
(295,349,l),
(30,349,l),
(30,309,l),
(115,309,l),
(88,279,o),
(73,236,o),
(73,191,cs),
(73,99,o),
(136,0,o),
(279,0,c)
);
},
{
closed = 1;
nodes = (
(493,0,o),
(559,84,o),
(559,241,c),
(517,241,l),
(517,95,o),
(447,40,o),
(334,40,c),
(334,0,l)
);
},
{
closed = 1;
nodes = (
(292,755,l),
(292,637,ls),
(292,541,o),
(345,464,o),
(462,464,c),
(462,504,l),
(399,504,o),
(332,537,o),
(332,637,cs),
(332,715,l),
(333,715,ls),
(469,715,o),
(517,643,o),
(517,498,cs),
(517,241,l),
(559,241,l),
(559,517,ls),
(559,700,o),
(462,755,o),
(332,755,cs)
);
}
);
width = 589;
},
{
layerId = "4EACF7E3-2421-4EEA-928B-7BA9BC4A845D";
shapes = (
{
closed = 1;
nodes = (
(283,140,l),
(230,140,o),
(207,166,o),
(207,201,cs),
(207,252,o),
(258,252,o),
(266,252,cs),
(350,252,l),
(350,350,ls),
(350,403,o),
(340,434,o),
(317,459,cs),
(292,486,o),
(251,503,o),
(207,503,cs),
(169,503,o),
(92,490,o),
(66,402,c),
(165,376,l),
(169,395,o),
(192,400,o),
(205,400,cs),
(226,400,o),
(247,389,o),
(247,360,cs),
(247,354,l),
(30,354,l),
(30,252,l),
(80,252,l),
(70,232,o),
(69,211,o),
(69,198,cs),
(69,85,o),
(156,-5,o),
(283,-5,c)
);
},
{
closed = 1;
nodes = (
(494,-5,o),
(574,78,o),
(574,250,c),
(434,250,l),
(434,154,o),
(381,140,o),
(339,140,c),
(339,-5,l)
);
},
{
closed = 1;
nodes = (
(218,755,l),
(218,606,ls),
(218,519,o),
(269,441,o),
(398,441,c),
(398,548,l),
(345,548,o),
(339,581,o),
(339,614,cs),
(339,629,l),
(350,629,ls),
(418,629,o),
(434,593,o),
(434,508,cs),
(434,250,l),
(574,250,l),
(574,517,ls),
(574,700,o),
(473,755,o),
(339,755,cs)
);
}
);
width = 604;
},
{
associatedMasterId = "4EACF7E3-2421-4EEA-928B-7BA9BC4A845D";
layerId = "2AE68F0B-E7D3-44CB-828E-723C5F3F960F";
name = "27 Jun 21, 16:32";
shapes = (
{
closed = 1;
nodes = (
(283,140,l),
(230,140,o),
(207,168,o),
(207,195,cs),
(207,242,o),
(236,252,o),
(266,252,cs),
(350,252,l),
(350,350,ls),
(350,406,o),
(340,432,o),
(317,459,cs),
(294,486,o),
(249,503,o),
(205,503,cs),
(169,503,o),
(92,490,o),
(66,402,c),
(165,376,l),
(170,397,o),
(195,400,o),
(205,400,cs),
(226,400,o),
(247,389,o),
(247,360,cs),
(247,354,l),
(30,354,l),
(30,252,l),
(80,252,l),
(70,232,o),
(69,212,o),
(69,192,cs),
(69,87,o),
(156,-5,o),
(283,-5,c)
);
},
{
closed = 1;
nodes = (
(494,-5,o),
(574,78,o),
(574,250,c),
(434,250,l),
(434,154,o),
(381,140,o),
(339,140,c),
(339,-5,l)
);
},
{
closed = 1;
nodes = (
(574,250,l),
(574,517,ls),
(574,700,o),
(473,755,o),
(339,755,cs),
(259,755,l),
(259,617,ls),
(259,544,o),
(295,474,o),
(398,454,c),
(398,540,l),
(368,546,o),
(339,567,o),
(339,604,c),
(339,616,l),
(417,616,o),
(434,577,o),
(434,498,cs),
(434,250,l)
);
}
);
width = 604;
},
{
associatedMasterId = "DC4431BF-9234-4C16-9154-22D387E42D10";
layerId = "76E7CAF3-56EC-44B8-948C-35C451D471B7";
name = "27 Jun 21, 16:32";
shapes = (
{
closed = 1;
nodes = (
(279,40,l),
(164,40,o),
(115,119,o),
(115,191,cs),
(115,252,o),
(150,309,o),
(209,309,cs),
(335,309,l),
(335,354,ls),
(335,396,o),
(318,427,o),
(292,448,cs),
(266,469,o),
(232,479,o),
(199,479,cs),
(144,479,o),
(91,452,o),
(77,399,c),
(116,389,l),
(130,422,o),
(164,438,o),
(198,438,cs),
(244,438,o),
(295,405,o),
(295,357,c),
(295,349,l),
(30,349,l),
(30,309,l),
(115,309,l),
(88,279,o),
(73,236,o),
(73,191,cs),
(73,99,o),
(136,0,o),
(279,0,c)
);
},
{
closed = 1;
nodes = (
(493,0,o),
(559,84,o),
(559,241,c),
(517,241,l),
(517,95,o),
(447,40,o),
(334,40,c),
(334,0,l)
);
},
{
closed = 1;
nodes = (
(559,241,l),
(559,517,ls),
(559,700,o),
(462,755,o),
(332,755,cs),
(292,755,l),
(292,637,ls),
(292,541,o),
(345,464,o),
(462,464,c),
(462,504,l),
(399,504,o),
(332,537,o),
(332,637,cs),
(332,715,l),
(469,715,o),
(517,643,o),
(517,498,cs),
(517,241,l)
);
}
);
width = 589;
}
);
unicode = 3473;
userData = {
com.fontlab.hintData = {
hhints = (
{
position = 0;
width = 40;
},
{
position = 235;
width = 6;
},
{
position = 309;
width = 40;
},
{
position = 464;
width = 40;
},
{
position = 715;
width = 40;
}
);
vhints = (
{
position = 292;
width = 40;
},
{
position = 517;
width = 42;
}
);
};
};
},
{
glyphname = sinEe;
layers = (
{
layerId = "DC4431BF-9234-4C16-9154-22D387E42D10";
shapes = (
{
closed = 1;
nodes = (
(559,518,l),
(559,819,l),
(517,819,l),
(517,518,l)
);
},
{
ref = sinE;
}
);
width = 589;
},
{
layerId = "4EACF7E3-2421-4EEA-928B-7BA9BC4A845D";
shapes = (
{
closed = 1;
nodes = (
(573,518,l),
(573,819,l),
(437.001,819,l),
(437.001,518,l)
);
},
{
ref = sinE;
}
);
width = 604;
}
);
unicode = 3474;
userData = {
com.fontlab.hintData = {
hhints = (
{
position = 0;
width = 40;
},
{
position = 235;
width = 6;
},
{
position = 309;
width = 40;
},
{
position = 464;
width = 40;
},
{
position = 715;
width = 40;
}
);
vhints = (
{
position = 292;
width = 40;
},
{
position = 517;
width = 42;
}
);
};
};
},
{
glyphname = sinO;
layers = (
{
layerId = "DC4431BF-9234-4C16-9154-22D387E42D10";
shapes = (
{
closed = 1;
nodes = (
(223,0,o),
(266,21,o),
(290,58,c),
(314,21,o),
(357,0,o),
(409,0,cs),
(492,0,o),
(550,52,o),
(550,133,cs),
(550,201,l),
(508,201,l),
(508,139,ls),
(508,104,o),
(485,40,o),
(409,40,cs),
(334,40,o),
(311,104,o),
(311,139,cs),
(311,192,l),
(269,192,l),
(269,139,ls),
(269,104,o),
(246,40,o),
(171,40,cs),
(95,40,o),
(72,104,o),
(72,139,cs),
(72,366,ls),
(72,415,o),
(106,439,o),
(140,439,cs),
(173,439,o),
(206,416,o),
(206,370,cs),
(206,310,ls),
(206,257,o),
(247,230,o),
(287,230,cs),
(328,230,o),
(369,257,o),
(369,310,cs),
(369,469,l),
(329,469,l),
(329,315,ls),
(329,289,o),
(308,276,o),
(287,276,cs),
(267,276,o),
(246,289,o),
(246,315,cs),
(246,370,ls),
(246,444,o),
(194,480,o),
(142,480,cs),
(86,480,o),
(30,441,o),
(30,366,cs),
(30,133,ls),
(30,52,o),
(88,0,o),
(171,0,cs)
);
},
{
closed = 1;
nodes = (
(74,651,o),
(164,715,o),
(257,715,c),
(257,755,l),
(153,755,o),
(35,681,o),
(35,563,c),
(74,553,l)
);
},
{
closed = 1;
nodes = (
(550,201,l),
(550,514,ls),
(550,678,o),
(481,755,o),
(314,755,c),
(314,715,l),
(435,715,o),
(508,668,o),
(508,514,cs),
(508,201,l)
);
}
);
width = 580;
},
{
layerId = "4EACF7E3-2421-4EEA-928B-7BA9BC4A845D";
shapes = (
{
closed = 1;
nodes = (
(234,-8,o),
(274,3,o),
(303,35,c),
(329,6,o),
(365,-8,o),
(409,-8,cs),
(504,-8,o),
(576,58,o),
(576,160,cs),
(576,202,l),
(439,202,l),
(439,169,ls),
(439,143,o),
(417,129,o),
(395,129,cs),
(374,129,o),
(353,142,o),
(353,169,cs),
(353,202,l),
(253,202,l),
(253,169,ls),
(253,141,o),
(232,128,o),
(211,128,cs),
(189,128,o),
(167,143,o),
(167,169,cs),
(167,328,ls),
(167,340.999,o),
(175,348,o),
(182,348,cs),
(190,348,o),
(198,341,o),
(198,328,cs),
(198,320,ls),
(198,260,o),
(245,229,o),
(295,229,cs),
(348,229,o),
(404,265,o),
(404,340,cs),
(404,469,l),
(312,469,l),
(312,348,ls),
(312,337,o),
(304,331,o),
(296,331,cs),
(289,331,o),
(281,337,o),
(281,348,cs),
(281,364,ls),
(281,437,o),
(224,473,o),
(164,473,cs),
(99,473,o),
(30,428,o),
(30,342,cs),
(30,160,ls),
(30,58,o),
(102,-8,o),
(196,-8,cs)
);
},
{
closed = 1;
nodes = (
(172,602,o),
(214,617,o),
(262,617,c),
(262,755,l),
(149,755,o),
(35,678,o),
(35,566,c),
(172,530,l)
);
},
{
closed = 1;
nodes = (
(576,202,l),
(576,520,ls),
(576,695,o),
(495,755,o),
(319,755,c),
(319,616,l),
(390,616,o),
(439,616,o),
(439,508,cs),
(439,202,l)
);
}
);
width = 606;
}
);
unicode = 3476;
},
{
glyphname = sinOo;
layers = (
{
layerId = "DC4431BF-9234-4C16-9154-22D387E42D10";
shapes = (
{
closed = 1;
nodes = (
(223,0,o),
(266,21,o),
(290,58,c),
(314,21,o),
(357,0,o),
(409,0,cs),
(492,0,o),
(550,52,o),
(550,133,cs),
(550,197,l),
(508,197,l),
(508,139,ls),
(508,104,o),
(485,40,o),
(409,40,cs),
(334,40,o),
(311,104,o),
(311,139,cs),
(311,192,l),
(269,192,l),
(269,139,ls),
(269,104,o),
(246,40,o),
(171,40,cs),
(95,40,o),
(72,104,o),
(72,139,cs),
(72,366,ls),
(72,415,o),
(106,439,o),
(140,439,cs),
(173,439,o),
(206,416,o),
(206,370,cs),
(206,310,ls),
(206,257,o),
(247,230,o),
(287,230,cs),
(328,230,o),
(369,257,o),
(369,310,cs),
(369,469,l),
(329,469,l),
(329,315,ls),
(329,289,o),
(308,276,o),
(287,276,cs),
(267,276,o),
(246,289,o),
(246,315,cs),
(246,370,ls),
(246,444.003,o),
(194,480,o),
(141,480,cs),
(86,480,o),
(30,441,o),
(30,366,cs),
(30,133,ls),
(30,52,o),
(88,0,o),
(171,0,cs)
);
},
{
closed = 1;
nodes = (
(550,197,l),
(550,474,ls),
(550,590,o),
(508,652,o),
(348,652,c),
(348,612,l),
(464,612,o),
(508,584,o),
(508,465,cs),
(508,197,l)
);
},
{
closed = 1;
nodes = (
(348,612,l),
(348,652,l),
(180,652,ls),
(132,652,o),
(109,684,o),
(109,716,cs),
(109,747,o),
(132,779,o),
(180,779,cs),
(270,779,l),
(270,819,l),
(184,819,ls),
(115,819,o),
(67,770,o),
(67,718,cs),
(67,695,o),
(73,672,o),
(94,652,c),
(59,652,l),
(59,612,l)
);
},
{
closed = 1;
nodes = (
(546,673,l),
(546,742,o),
(539,819,o),
(391,819,cs),
(326,819,l),
(326,779,l),
(391,779,ls),
(452,779,o),
(506,778,o),
(506,673,c)
);
}
);
width = 580;
},
{
layerId = "4EACF7E3-2421-4EEA-928B-7BA9BC4A845D";
shapes = (
{
closed = 1;
nodes = (
(234,-8,o),
(274,3,o),
(303,35,c),
(329,6,o),
(365,-8,o),
(409,-8,cs),
(504,-8,o),
(576,58,o),
(576,160,cs),
(576,203,l),
(439,203,l),
(439,169,ls),
(439,143,o),
(417,129,o),
(395,129,cs),
(374,129,o),
(353,142,o),
(353,169,cs),
(353,202,l),
(253,202,l),
(253,169,ls),
(253,141,o),
(232,128,o),
(211,128,cs),
(189,128,o),
(167,143,o),
(167,169,cs),
(167,328,ls),
(167,340.999,o),
(175,348,o),
(182,348,cs),
(190,348,o),
(198,341,o),
(198,328,cs),
(198,320,ls),
(198,262,o),
(248,229,o),
(299,229,cs),
(351,229,o),
(404,263,o),
(404,340,cs),
(404,469,l),
(312,469,l),
(312,348,ls),
(312,337,o),
(304,331,o),
(296,331,cs),
(289,331,o),
(281,337,o),
(281,348,cs),
(281,364,ls),
(281,437,o),
(224,473,o),
(164,473,cs),
(99,473,o),
(30,428,o),
(30,342,cs),
(30,160,ls),
(30,58,o),
(102,-8,o),
(196,-8,cs)
);
},
{
closed = 1;
nodes = (
(576,203,l),
(576,474,ls),
(576,590,o),
(508,652,o),
(348,652,c),
(348,522,l),
(398,522,o),
(439,514,o),
(439,455,cs),
(439,203,l)
);
},
{
closed = 1;
nodes = (
(348,522,l),
(348,652,l),
(239,652,ls),
(218,652,o),
(204,661,o),
(204,678,cs),
(204,689,o),
(210,703,o),
(239,703,cs),
(284,703,l),
(284,819,l),
(193,819,ls),
(130,819,o),
(74,764,o),
(74,711,cs),
(74,690,o),
(83,669,o),
(103,652,c),
(68,652,l),
(68,522,l)
);
},
{
closed = 1;
nodes = (
(566,673,l),
(566,756,o),
(541,819,o),
(393,819,cs),
(341,819,l),
(341,703,l),
(361,703,ls),
(406,703,o),
(431,700,o),
(431,673,c)
);
}
);
width = 606;
}
);
unicode = 3477;
},
{
glyphname = sinKa;
layers = (
{
layerId = "DC4431BF-9234-4C16-9154-22D387E42D10";
shapes = (
{
closed = 1;
nodes = (
(124,565,o),
(64,533,o),
(33,452,c),
(72,440,l),
(95,498,o),
(139,521,o),
(181,521,cs),
(230,521,o),
(276,491,o),
(289,445,c),
(320,473,l),
(305,527,o),
(245,565,o),
(182,565,cs)
);
},
{
closed = 1;
nodes = (
(443,560,o),
(375,537,o),
(320,494,c),
(30,238,l),
(30,196,l),
(69,225,l),
(349,466,ls),
(392,503,o),
(447,521,o),
(499,521,cs),
(598,521,o),
(690,454,o),
(690,314,cs),
(690,192,ls),
(690,48,o),
(616,39,o),
(554,39,c),
(554,-1,l),
(693,-1,o),
(730,66,o),
(730,192,cs),
(730,314,ls),
(730,485,o),
(624,560,o),
(508,560,cs)
);
},
{
closed = 1;
nodes = (
(217,-5,o),
(250,8,o),
(276,36,c),
(306,10,o),
(345,-4,o),
(382,-4,cs),
(445,-4,o),
(503,35,o),
(503,114,cs),
(503,240,ls),
(503,362,o),
(441,391,o),
(365,403,c),
(327,370,l),
(426,355,o),
(463,331,o),
(463.004,240,cs),
(463,114,ls),
(463,65,o),
(418,38,o),
(375,38,cs),
(335,38,o),
(296,61,o),
(296,114,cs),
(296,192,l),
(256,192,l),
(256,114,ls),
(256,61,o),
(221,38,o),
(185,38,cs),
(146,38,o),
(106,65,o),
(106,114,cs),
(106,166,ls),
(106,185,o),
(100,229,o),
(30,238,c),
(30,196,l),
(34,197,o),
(41,199,o),
(44,199,cs),
(54,199,o),
(65,168,o),
(65,146,cs),
(65.003,114,ls),
(65,39,o),
(123,-5,o),
(184,-5,cs)
);
}
);
width = 760;
},
{
layerId = "4EACF7E3-2421-4EEA-928B-7BA9BC4A845D";
shapes = (
{
closed = 1;
nodes = (
(136,567,o),
(44,537,o),
(30,439,c),
(147,402,l),
(147,425,o),
(167,446,o),
(196,446,cs),
(216,446,o),
(245,436,o),
(245,402,c),
(337,502,l),
(319,535,o),
(267,567,o),
(200,567,cs)
);
},
{
closed = 1;
nodes = (
(445,574,o),
(361,542,o),
(301,480,c),
(30,250,l),
(30,160,l),
(155,181,l),
(425,400,l),
(451,423,o),
(481,434,o),
(509,434,cs),
(572,434,o),
(630,382,o),
(630,307,cs),
(630,205,ls),
(630,181,o),
(626,142,o),
(574,142,c),
(574,-1,l),
(713,-1,o),
(770,89,o),
(770,205,cs),
(770,321,ls),
(770,493,o),
(652,574,o),
(525,574,cs)
);
},
{
closed = 1;
nodes = (
(237,-7,o),
(270,6,o),
(290,36,c),
(314,6,o),
(349,-7,o),
(385,-7,cs),
(455,-7,o),
(529,47,o),
(529,136,cs),
(529,218,ls),
(529,280,o),
(512,327,o),
(448,354,c),
(351,276,l),
(394,259,o),
(400,233,o),
(400,202,cs),
(400,162,ls),
(400,142,o),
(385,132,o),
(370,132,cs),
(355,132,o),
(340,142,o),
(340,162,cs),
(340,202,l),
(240,202,l),
(240,160,ls),
(240,141,o),
(225,132,o),
(211,132,cs),
(196,132,o),
(181,141,o),
(181,160,cs),
(181,202,ls),
(181,221,o),
(166,239,o),
(147,255,c),
(30,160,l),
(34,161,o),
(38,162,o),
(43,162,cs),
(65,162,o),
(65,139,o),
(65,122,cs),
(65,106,ls),
(65,42,o),
(137,-7,o),
(203,-7,cs)
);
}
);
width = 800;
}
);
unicode = 3482;
},
{
glyphname = sinKha;
layers = (
{
layerId = "DC4431BF-9234-4C16-9154-22D387E42D10";
shapes = (
{
closed = 1;
nodes = (
(484,-4,o),
(556,44,o),
(556,142,cs),
(556,514,ls),
(556,671,o),
(490,755,o),
(331,755,cs),
(320,755,l),
(320,715,l),
(331,715,ls),
(444,715,o),
(514,662,o),
(514,514,cs),
(514,142,ls),
(514,75,o),
(463,42,o),
(412,42,cs),
(361,42,o),
(309,75,o),
(309,142,cs),
(309,192,l),
(268,192,l),
(268,142,ls),
(268,44,o),
(340,-4,o),
(412,-4,cs)
);
},
{
closed = 1;
nodes = (
(309,-65,l),
(309,284,ls),
(309,391,o),
(240,443,o),
(170,443,cs),
(100,443,o),
(30,390,o),
(30,284,cs),
(30,177,ls),
(30,45,o),
(91,0,o),
(211,0,c),
(211,40,l),
(123,40,o),
(71,65,o),
(71,177,cs),
(71,284,ls),
(71,360,o),
(120,398,o),
(170,398,cs),
(219,398,o),
(268,360,o),
(268,284,cs),
(268,-65,l)
);
},
{
closed = 1;
nodes = (
(81,651,o),
(171,715,o),
(264,715,c),
(264,755,l),
(160,755,o),
(42,681,o),
(42,563,c),
(81,553,l)
);
}
);
width = 586;
},
{
layerId = "4EACF7E3-2421-4EEA-928B-7BA9BC4A845D";
shapes = (
{
closed = 1;
nodes = (
(519,-7,o),
(595,48,o),
(595,199,cs),
(595,500,ls),
(595,699,o),
(494,755,o),
(360,755,cs),
(329,755,l),
(329,616,l),
(360,616,ls),
(438,616,o),
(455,579,o),
(455,500,cs),
(455,176,ls),
(455,155,o),
(440,145,o),
(425,145,cs),
(410,145,o),
(395,155,o),
(395,176,cs),
(395,222,l),
(260,222,l),
(260,134,ls),
(260,59,o),
(352,-7,o),
(440,-7,cs)
);
},
{
closed = 1;
nodes = (
(395,-65,l),
(395,300,ls),
(395,399,o),
(308,452,o),
(218,452,cs),
(125,452,o),
(30,395,o),
(30,273,cs),
(30,189,ls),
(30,92,o),
(62,0,o),
(214,0,c),
(214,140,l),
(169,140,o),
(165,166,o),
(165,202,cs),
(165,261,ls),
(165,295,o),
(189,313,o),
(213,313,cs),
(237,313,o),
(260,296,o),
(260,261,cs),
(260,-65,l)
);
},
{
closed = 1;
nodes = (
(183,602,o),
(225,616,o),
(273,616,c),
(273,755,l),
(160,755,o),
(46,678,o),
(46,566,c),
(183,530,l)
);
}
);
width = 625;
}
);
unicode = 3483;
userData = {
com.fontlab.hintData = {
hhints = (
{
position = 0;
width = 40;
},
{
position = 241;
width = 23;
},
{
position = 715;
width = 40;
}
);
vhints = (
{
position = 30;
width = 41;
},
{
position = 42;
width = 39;
},
{
position = 268;
width = 41;
},
{
position = 514;
width = 42;
}
);
};
};
},
{
glyphname = sinGa;
layers = (
{
layerId = "DC4431BF-9234-4C16-9154-22D387E42D10";
shapes = (
{
closed = 1;
nodes = (
(606,-8,o),
(673,80,o),
(673,216,cs),
(673,340,ls),
(673,476,o),
(606,564,o),
(487,564,c),
(487,524,l),
(582,524,o),
(633,458,o),
(633,340,cs),
(633,216,ls),
(633,98,o),
(579,32,o),
(487,32,c),
(487,-8,l)
);
},
{
closed = 1;
nodes = (
(216,32,l),
(124,32,o),
(70,98,o),
(70,216,cs),
(70,340,ls),
(70,458,o),
(121,524,o),
(216,524,c),
(216,564,l),
(97,564,o),
(30,476,o),
(30,340,cs),
(30,216,ls),
(30,80,o),
(97,-8,o),
(216,-8,c)
);
},
{
closed = 1;
nodes = (
(372,-8,o),
(439,43,o),
(439,145,cs),
(439,164,ls),
(439,233,o),
(408,311,o),
(306,311,cs),
(269,311,l),
(269,271,l),
(306,271,ls),
(391,271,o),
(399,200,o),
(399,152,cs),
(399,66,o),
(352,32,o),
(272,32,c),
(272,-8,l)
);
},
{
closed = 1;
nodes = (
(293,271,l),
(293,361,ls),
(293,443,o),
(324,524,o),
(431,524,c),
(431,564,l),
(309,564,o),
(252,478.007,o),
(252,360,cs),
(252,271,l)
);
}
);
width = 703;
},
{
layerId = "4EACF7E3-2421-4EEA-928B-7BA9BC4A845D";
shapes = (
{
closed = 1;
nodes = (
(629,-8,o),
(687,82,o),
(687,198,cs),
(687,358,ls),
(687,474,o),
(629,564,o),
(490,564,c),
(490,421,l),
(542,421,o),
(546,376,o),
(546,348,cs),
(546,198,ls),
(546,174,o),
(542,135,o),
(490,135,c),
(490,-8,l)
);
},
{
closed = 1;
nodes = (
(227,135,l),
(175,135,o),
(171,174,o),
(171,198,cs),
(171,348,ls),
(171,376,o),
(175,421,o),
(227,421,c),
(227,564,l),
(88,564,o),
(30,474,o),
(30,358,cs),
(30,198,ls),
(30,82,o),
(88,-8,o),
(227,-8,c)
);
},
{
closed = 1;
nodes = (
(400,-8,o),
(461,45,o),
(461,166,cs),
(461,216,ls),
(461,325,o),
(407,347,o),
(371,347,cs),
(271,347,l),
(271,241,l),
(283,241,ls),
(336,241,o),
(337,205,o),
(337,188,cs),
(337,171,o),
(336,135,o),
(283,135,c),
(283,-8,l)
);
},
{
closed = 1;
nodes = (
(393,241,l),
(393,350,ls),
(393,376,o),
(388,421,o),
(434,421,c),
(434,564,l),
(290,564,o),
(254,468.007,o),
(254,350,cs),
(254,241,l)
);
}
);
width = 717;
}
);
unicode = 3484;
userData = {
com.fontlab.hintData = {
hhints = (
{
position = -8;
width = 40;
},
{
position = 271;
width = 40;
},
{
position = 524;
width = 40;
}
);
vhints = (
{
position = 30;
width = 40;
},
{
position = 233;
width = 41;
},
{
position = 613;
width = 40;
}
);
};
};
},
{
glyphname = sinGha;
layers = (
{
layerId = "DC4431BF-9234-4C16-9154-22D387E42D10";
shapes = (
{
closed = 1;
nodes = (
(289,0,o),
(332,47,o),
(332,141,cs),
(332,159,o),
(337,167,o),
(362,167,cs),
(387,167,o),
(392,159,o),
(392,142,cs),
(392,47,o),
(436,0,o),
(519,0,cs),
(583,0,o),
(647,47,o),
(647,139,cs),
(647,192,l),
(607,192,l),
(607,139,ls),
(607,72,o),
(563,37,o),
(519,37,cs),
(455,37,o),
(432,71,o),
(432,142,cs),
(432,182,o),
(418,203,o),
(368,204,cs),
(363,204,ls),
(307,204,o),
(292,183,o),
(292,141,cs),
(292,71,o),
(268,37,o),
(205,37,cs),
(161,37,o),
(117,71,o),
(117,139,cs),
(117,192,l),
(77,192,l),
(77,139,ls),
(77,47,o),
(141,0,o),
(205,0,cs)
);
},
{
closed = 1;
nodes = (
(117,241,l),
(117,288,ls),
(117,355,o),
(156,362,o),
(192,362,cs),
(532,362,ls),
(568,362,o),
(607,355,o),
(607,288,cs),
(607,241,l),
(647,241,l),
(647,288,ls),
(647,337,o),
(642,402,o),
(531,402,cs),
(30,402,l),
(30,362,l),
(105,362,l),
(84,351,o),
(77,320,o),
(77,288,cs),
(77,241,l)
);
},
{
closed = 1;
nodes = (
(383,379,l),
(383,415,ls),
(383,469,o),
(414,524,o),
(492,524,cs),
(555,524,o),
(590,500,o),
(603,464,c),
(642,477,l),
(616,542,o),
(556,564,o),
(492,564,cs),
(455,564,o),
(394,551,o),
(363,498,c),
(332,551,o),
(271,564,o),
(234,564,cs),
(170,564,o),
(110,542,o),
(84,477,c),
(123,464,l),
(136,500,o),
(171,524,o),
(234,524,cs),
(312,524,o),
(343,469,o),
(343,415,cs),
(343,379,l)
);
}
);
width = 677;
},
{
layerId = "4EACF7E3-2421-4EEA-928B-7BA9BC4A845D";
shapes = (
{
closed = 1;
nodes = (
(304,-11,o),
(337,21,o),
(337,68,cs),
(337,90,o),
(349,101,o),
(362,101,cs),
(374,101,o),
(387,90,o),
(387,68,cs),
(387,21,o),
(420,-11,o),
(491,-11,cs),
(592,-11,o),
(657,55,o),
(657,157,cs),
(657,199,l),
(518,199,l),
(518,166,ls),
(518,154,o),
(509,132,o),
(479,132,cs),
(449,132,o),
(441,153,o),
(441,166,cs),
(441,181,o),
(434,204,o),
(407,204,cs),
(317,204,ls),
(290,204,o),
(283,181,o),
(283,166,cs),
(283,153,o),
(275,132,o),
(245,132,cs),
(215,132,o),
(206,150,o),
(206,166,cs),
(206,199,l),
(67,199,l),
(67,157,ls),
(67,55,o),
(132,-11,o),
(233,-11,cs)
);
},
{
closed = 1;
nodes = (
(206,251,l),
(206,257,ls),
(206,269,o),
(218,283,o),
(246,283,cs),
(481,283,ls),
(505,283,o),
(518,269,o),
(518,257,cs),
(518,251,l),
(657,251,l),
(657,279,ls),
(657,392,o),
(565,402,o),
(503,402,cs),
(30,402,l),
(30,283,l),
(71,283,l),
(68,279,o),
(67,273,o),
(67,260,cs),
(67,251,l)
);
},
{
closed = 1;
nodes = (
(426,378,l),
(426,397,ls),
(426,443,o),
(466,451,o),
(484,451,cs),
(508,451,o),
(524,436,o),
(528,421,c),
(646,460,l),
(622,537,o),
(554,575,o),
(483,575,cs),
(441,575,o),
(398,562,o),
(362,536,c),
(326,562,o),
(283,575,o),
(241,575,cs),
(170,575,o),
(102,537,o),
(78,460,c),
(196,421,l),
(200,436,o),
(216,451,o),
(240,451,cs),
(258,451,o),
(298,443,o),
(298,397,cs),
(298,378,l)
);
}
);
width = 687;
}
);
unicode = 3485;
userData = {
com.fontlab.hintData = {
hhints = (
{
position = -11;
width = 143;
},
{
position = 101;
width = 103;
},
{
position = 251;
width = 151;
},
{
position = 283;
width = 119;
},
{
position = 378;
width = 24;
},
{
position = 451;
width = 124;
}
);
vhints = (
{
position = 67;
width = 139;
},
{
position = 283;
width = 158;
},
{
position = 298;
width = 128;
},
{
position = 518;
width = 139;
}
);
};
};
},
{
glyphname = sinNga;
layers = (
{
layerId = "DC4431BF-9234-4C16-9154-22D387E42D10";
shapes = (
{
closed = 1;
nodes = (
(223,0,o),
(266,21,o),
(290,58,c),
(314,21,o),
(357,0,o),
(409,0,cs),
(492,0,o),
(550,52,o),
(550,133,cs),
(550,242,l),
(508,242,l),
(508,139,ls),
(508,104,o),
(485,40,o),
(409,40,cs),
(334,40,o),
(311,104,o),
(311,139,cs),
(311,192,l),
(269,192,l),
(269,139,ls),
(269,104,o),
(246,40,o),
(171,40,cs),
(95,40,o),
(72,104,o),
(72,139,cs),
(72,228,ls),
(72,280,o),
(85,310,o),
(211,310,cs),
(250,310,l),
(250,350,l),
(161,350,ls),
(70,350,o),
(30,308,o),
(30,227,cs),
(30,133,ls),
(30,52,o),
(88,0,o),
(171,0,cs)
);
},
{
closed = 1;
nodes = (
(258,310,ls),
(322,310,o),
(355,357,o),
(355,404,cs),
(355,450,o),
(323,496,o),
(258,496,cs),
(173,496,ls),
(93,496,o),
(53,464,o),
(53,403,c),
(93,403,l),
(93,414,o),
(96,456,o),
(174,456,cs),
(262,456,ls),
(299,456,o),
(317,430,o),
(317,405,cs),
(317,378,o),
(297,350,o),
(259,350,cs),
(214,350,l),
(214,310,l)
);
},
{
closed = 1;
nodes = (
(74,651,o),
(164,715,o),
(257,715,c),
(257,755,l),
(153,755,o),
(35,681,o),
(35,563,c),
(74,553,l)
);
},
{
closed = 1;
nodes = (
(550,241,l),
(550,514,ls),
(550,678,o),
(481,755,o),
(314,755,c),
(314,715,l),
(435,715,o),
(508,668,o),
(508,514,cs),
(508,241,l)
);
}
);
width = 580;
},
{
layerId = "4EACF7E3-2421-4EEA-928B-7BA9BC4A845D";
shapes = (
{
closed = 1;
nodes = (
(243,-8,o),
(274,2,o),
(300,35,c),
(329,3,o),
(370,-8,o),
(404,-8,cs),
(496,-8,o),
(563,58,o),
(563,160,cs),
(563,200,l),
(422,200,l),
(422,166,ls),
(422,154,o),
(413,132,o),
(383,132,cs),
(353,132,o),
(345,153,o),
(345,166,cs),
(345,202,l),
(245,202,l),
(245,166,ls),
(245,153,o),
(237,132,o),
(207,132,cs),
(177,132,o),
(168,154,o),
(168,166,cs),
(168,217,ls),
(168,242,o),
(182,251,o),
(201,251,cs),
(214,251,l),
(214,351,l),
(168,351,ls),
(32,351,o),
(30,279,o),
(30,197,cs),
(30,160,ls),
(30,58,o),
(108,-8,o),
(205,-8,cs)
);
},
{
closed = 1;
nodes = (
(238,251,ls),
(318,251,o),
(358,312,o),
(358,374,cs),
(358,435,o),
(318,497,o),
(238,497,cs),
(173,497,ls),
(93,497,o),
(53,436,o),
(53,374,c),
(151,374,l),
(151,385,o),
(158,397,o),
(174,397,cs),
(229,397,ls),
(245,397,o),
(252,386,o),
(252,374,cs),
(252,363,o),
(244,351,o),
(229,351,cs),
(214,351,l),
(214,251,l)
);
},
{
closed = 1;
nodes = (
(173,600,o),
(223,615,o),
(271,615,c),
(271,753,l),
(158,753,o),
(36,676,o),
(36,564,c),
(173,528,l)
);
},
{
closed = 1;
nodes = (
(563,200,l),
(563,518,ls),
(563,704,o),
(468,753,o),
(327,753,c),
(327,614,l),
(411,614,o),
(422,581,o),
(422,496,cs),
(422,200,l)
);
}
);
width = 593;
}
);
unicode = 3486;
userData = {
com.fontlab.hintData = {
hhints = (
{
position = -8;
width = 140;
},
{
position = 200;
width = 2;
},
{
position = 251;
width = 100;
},
{
position = 397;
width = 100;
},
{
position = 616;
width = 138;
}
);
vhints = (
{
position = 30;
width = 138;
},
{
position = 245;
width = 100;
},
{
position = 287;
width = 105;
},
{
position = 422;
width = 141;
}
);
};
};
},
{
glyphname = sinNnga;
layers = (
{
layerId = "DC4431BF-9234-4C16-9154-22D387E42D10";
shapes = (
{
closed = 1;
nodes = (
(136,8,l),
(72,85,o),
(70,128,o),
(70,209,cs),
(70,287,ls),
(70,376,o),
(68,524,o),
(238,524,cs),
(356,524,l),
(356,564,l),
(265,564,ls),
(61,564,o),
(30,452,o),
(30,287,cs),
(30,209,ls),
(30,118,o),
(34,69,o),
(94,-8,c)
);
},
{
closed = 1;
nodes = (
(356,32,l),
(264,32,o),
(210,98,o),
(210,216,cs),
(210,340,ls),
(210,458,o),
(261,524,o),
(356,524,c),
(356,564,l),
(237,564,o),
(170,476,o),
(170,340,cs),
(170,216,ls),
(170,80,o),
(237,-8,o),
(356,-8,c)
);
},
{
closed = 1;
nodes = (
(512,-8,o),
(579,43,o),
(579,145,cs),
(579,164,ls),
(579,233,o),
(548,311,o),
(446,311,cs),
(409,311,l),
(409,271,l),
(446,271,ls),
(531,271,o),
(539,200,o),
(539,152,cs),
(539,66,o),
(492,32,o),
(412,32,c),
(412,-8,l)
);
},
{
closed = 1;
nodes = (
(433,271,l),
(433,361,ls),
(433,443,o),
(464,524,o),
(571,524,c),
(571,564,l),
(449,564,o),
(392,478.007,o),
(392,360,cs),
(392,271,l)
);
},
{
closed = 1;
nodes = (
(746,-8,o),
(813,80,o),
(813,216,cs),
(813,340,ls),
(813,476,o),
(746,564,o),
(627,564,c),
(627,524,l),
(722,524,o),
(773,458,o),
(773,340,cs),
(773,216,ls),
(773,98,o),
(719,32,o),
(627,32,c),
(627,-8,l)
);
}
);
width = 843;
},
{
layerId = "4EACF7E3-2421-4EEA-928B-7BA9BC4A845D";
shapes = (
{
closed = 1;
nodes = (
(233,11,l),
(169,88,o),
(166,128,o),
(166,209,cs),
(166,287,ls),
(166,376,o),
(174,421,o),
(224,421,cs),
(421,421,l),
(421,564,l),
(265,564,ls),
(61,564,o),
(30,452,o),
(30,287,cs),
(30,209,ls),
(30,118,o),
(43,48,o),
(103,-29,c)
);
},
{
closed = 1;
nodes = (
(421,135,l),
(369,135,o),
(365,174,o),
(365,198,cs),
(365,348,ls),
(365,376,o),
(369,421,o),
(421,421,c),
(421,564,l),
(282,564,o),
(224,474,o),
(224,358,cs),
(224,198,ls),
(224,82,o),
(282,-8,o),
(421,-8,c)
);
},
{
closed = 1;
nodes = (
(594,-8,o),
(655,45,o),
(655,166,cs),
(655,216,ls),
(655,325,o),
(601,347,o),
(565,347,cs),
(465,347,l),
(465,241,l),
(477,241,ls),
(530,241,o),
(531,205,o),
(531,188,cs),
(531,171,o),
(530,135,o),
(477,135,c),
(477,-8,l)
);
},
{
closed = 1;
nodes = (
(587,241,l),
(587,350,ls),
(587,376,o),
(582,421,o),
(628,421,c),
(628,564,l),
(484,564,o),
(448,468.007,o),
(448,350,cs),
(448,241,l)
);
},
{
closed = 1;
nodes = (
(823,-8,o),
(881,82,o),
(881,198,cs),
(881,358,ls),
(881,474,o),
(823,564,o),
(684,564,c),
(684,421,l),
(736,421,o),
(740,376,o),
(740,348,cs),
(740,198,ls),
(740,174,o),
(736,135,o),
(684,135,c),
(684,-8,l)
);
}
);
width = 911;
}
);
unicode = 3487;
userData = {
com.fontlab.hintData = {
hhints = (
{
position = -8;
width = 40;
},
{
position = 271;
width = 40;
},
{
position = 524;
width = 40;
}
);
vhints = (
{
position = 30;
width = 40;
},
{
position = 170;
width = 40;
},
{
position = 392;
width = 41;
},
{
position = 539;
width = 40;
},
{
position = 773;
width = 40;
}
);
};
};
},
{
glyphname = sinCa;
layers = (
{
layerId = "DC4431BF-9234-4C16-9154-22D387E42D10";
shapes = (
{
closed = 1;
nodes = (
(494,0,o),
(560,84,o),
(560,241,cs),
(560,514,ls),
(560,671,o),
(494,755,o),
(335,755,c),
(335,715,l),
(448,715,o),
(519,662,o),
(519,514,cs),
(519,241,ls),
(519,95,o),
(448,40,o),
(335,40,c),
(335,0,l)
);
},
{
closed = 1;
nodes = (
(279,40,l),
(164,40,o),
(115,119,o),
(115,191,cs),
(115,252,o),
(150,309,o),
(209,309,cs),
(335,309,l),
(335,354,ls),
(335,396,o),
(318,427,o),
(292,448,cs),
(266,469,o),
(232,479,o),
(199,479,cs),
(144,479,o),
(91,452,o),
(77,399,c),
(116,389,l),
(130,422,o),
(164,438,o),
(198,438,cs),
(244,438,o),
(295,408,o),
(295,354,cs),
(295,349,l),
(30,349,l),
(30,309,l),
(115,309,l),
(88,279,o),
(73,236,o),
(73,191,cs),
(73,99,o),
(136,0,o),
(279,0,c)
);
},
{
closed = 1;
nodes = (
(108,644,o),
(195,715,o),
(279,715,c),
(279,755,l),
(183,755,o),
(69,674,o),
(69,563,c),
(108,553,l)
);
}
);
width = 590;
},
{
layerId = "4EACF7E3-2421-4EEA-928B-7BA9BC4A845D";
shapes = (
{
closed = 1;
nodes = (
(494,-5,o),
(574,78,o),
(574,250,cs),
(574,520,ls),
(574,700,o),
(473,755,o),
(339,755,c),
(339,616,l),
(417,616,o),
(434,577,o),
(434,498,cs),
(434,250,ls),
(434,149,o),
(381,135,o),
(339,135,c),
(339,-5,l)
);
},
{
closed = 1;
nodes = (
(283,135,l),
(231,135,o),
(208,166,o),
(208,196,cs),
(208,224,o),
(229,252,o),
(266,252,cs),
(350,252,l),
(350,350,ls),
(350,403,o),
(340,434,o),
(317,459,cs),
(292,486,o),
(251,503,o),
(207,503,cs),
(169,503,o),
(92,490,o),
(66,402,c),
(165,376,l),
(169,395,o),
(192,400,o),
(205,400,cs),
(226,400,o),
(247,389,o),
(247,360,cs),
(247,354,l),
(30,354,l),
(30,252,l),
(80,252,l),
(71,233,o),
(69,211,o),
(69,195,cs),
(69,86,o),
(156,-5,o),
(283,-5,c)
);
},
{
closed = 1;
nodes = (
(203,596,o),
(243,617,o),
(283,617,c),
(283,755,l),
(176,755,o),
(66,672,o),
(66,566,c),
(203,530,l)
);
}
);
width = 604;
}
);
unicode = 3488;
userData = {
com.fontlab.hintData = {
hhints = (
{
position = 0;
width = 40;
},
{
position = 309;
width = 40;
},
{
position = 715;
width = 40;
}
);
vhints = (
{
position = 69;
width = 39;
},
{
position = 295;
width = 40;
},
{
position = 519;
width = 41;
}
);
};
};
},
{
glyphname = sinCha;
layers = (
{
layerId = "DC4431BF-9234-4C16-9154-22D387E42D10";
shapes = (
{
closed = 1;
nodes = (
(343,-6,ls),
(520,-6,o),
(592,50,o),
(592,193,cs),
(592,265,ls),
(592,288,o),
(583,302,o),
(551,302,cs),
(443,302,ls),
(381,302,o),
(330,353,o),
(330,415,cs),
(330,477,o),
(381,528,o),
(443,528,cs),
(489,528,o),
(528,501,o),
(546,462,c),
(582,474,l),
(559,528,o),
(505,566,o),
(443,566,cs),
(360,566,o),
(289,498,o),
(289,415,cs),
(289,332,o),
(360,264,o),
(443,264,cs),
(552,264,l),
(552,193,ls),
(552,62,o),
(476,34,o),
(343,34,cs),
(281,34,ls),
(148,34,o),
(72,61,o),
(72,193,c),
(32,193,l),
(32,50,o),
(104,-6,o),
(281,-6,cs)
);
},
{
closed = 1;
nodes = (
(72,242,l),
(72,308,o),
(88,362,o),
(197,362,cs),
(329,362,l),
(329,415,ls),
(329,539,o),
(231,564,o),
(180,564,cs),
(116,564,o),
(56,542,o),
(30,477,c),
(69,464,l),
(82,500,o),
(117,524,o),
(180,524,cs),
(258,524,o),
(289,469,o),
(289,402,c),
(196,402,ls),
(99,402,o),
(32,364,o),
(32,242,c)
);
},
{
closed = 1;
nodes = (
(362,498,l),
(572,774,l),
(542,796,l),
(312,494,l)
);
}
);
width = 620;
},
{
layerId = "4EACF7E3-2421-4EEA-928B-7BA9BC4A845D";
shapes = (
{
closed = 1;
nodes = (
(342,-12,ls),
(511,-12,o),
(594,64,o),
(594,202,cs),
(594,262,ls),
(594,316,o),
(554,360,o),
(486,360,cs),
(419,360,ls),
(396,360,o),
(377,379,o),
(377,402,cs),
(377,425,o),
(396,444,o),
(419,444,cs),
(442,444,o),
(461,425,o),
(461,402,c),
(585,402,l),
(585,494,o),
(510,569,o),
(417,569,cs),
(325,569,o),
(250,495,o),
(250,400,cs),
(250,311,o),
(315,232,o),
(417,235,cs),
(454,236,l),
(454,202,ls),
(454,151,o),
(415,123,o),
(350,123,cs),
(278,123,ls),
(215,123,o),
(174,149,o),
(174,202,c),
(34,202,l),
(34,59,o),
(112,-12,o),
(289,-12,cs)
);
},
{
closed = 1;
nodes = (
(174,251,l),
(174,262,o),
(176,283,o),
(209,283,cs),
(386,283,l),
(332,512,l),
(298,557,o),
(249,575,o),
(197,575,cs),
(121,575,o),
(54,537,o),
(30,460,c),
(148,421,l),
(152,436,o),
(168,451,o),
(192,451,cs),
(212,451,o),
(250,441,o),
(250,402,c),
(198,402,ls),
(101,402,o),
(35,373,o),
(35,251,c)
);
},
{
closed = 1;
nodes = (
(431,470,l),
(650,761,l),
(547,837,l),
(304,522,l)
);
}
);
width = 655;
},
{
associatedMasterId = "4EACF7E3-2421-4EEA-928B-7BA9BC4A845D";
layerId = "7DD5C106-34BA-4BD6-9E39-CA750D4B33DB";
name = "27 Jun 21, 13:10";
shapes = (
{
closed = 1;
nodes = (
(342,-12,ls),
(511,-12,o),
(594,64,o),
(594,202,cs),
(594,262,ls),
(594,316,o),
(554,360,o),
(486,360,cs),
(419,360,ls),
(396,360,o),
(377,379,o),
(377,402,cs),
(377,425,o),
(396,444,o),
(419,444,cs),
(442,444,o),
(461,425,o),
(461,402,c),
(585,402,l),
(585,494,o),
(510,569,o),
(418,569,cs),
(325,569,o),
(250,494,o),
(250,402,cs),
(250,310,o),
(315,232,o),
(417,235,cs),
(454,236,l),
(454,202,ls),
(454,151,o),
(415,123,o),
(350,123,cs),
(278,123,ls),
(215,123,o),
(174,149,o),
(174,202,c),
(34,202,l),
(34,59,o),
(112,-12,o),
(289,-12,cs)
);
},
{
closed = 1;
nodes = (
(174,251,l),
(174,262,o),
(176,283,o),
(209,283,cs),
(386,283,l),
(332,512,l),
(298,557,o),
(250,575,o),
(193,575,cs),
(122,575,o),
(54,537,o),
(30,460,c),
(148,421,l),
(152,436,o),
(167,451,o),
(195,451,cs),
(210,451,o),
(250,442,o),
(250,402,c),
(198,402,ls),
(101,402,o),
(35,373,o),
(35,251,c)
);
},
{
closed = 1;
nodes = (
(438,470,l),
(655,755,l),
(548,836,l),
(304,522,l)
);
},
{
closed = 1;
nodes = (
(438,470,l),
(655,755,l),
(510,793,l),
(304,522,l)
);
}
);
width = 655;
},
{
associatedMasterId = "DC4431BF-9234-4C16-9154-22D387E42D10";
layerId = "0FB97ACA-2661-4502-A833-F502B1979519";
name = "27 Jun 21, 13:14";
shapes = (
{
closed = 1;
nodes = (
(343,-6,ls),
(520,-6,o),
(592,50,o),
(592,193,cs),
(592,265,ls),
(592,288,o),
(583,302,o),
(551,302,cs),
(443,302,ls),
(381,302,o),
(330,353,o),
(330,415,cs),
(330,477,o),
(381,528,o),
(443,528,cs),
(489,528,o),
(528,501,o),
(546,462,c),
(582,474,l),
(559,528,o),
(505,566,o),
(443,566,cs),
(360,566,o),
(289,498,o),
(289,415,cs),
(289,332,o),
(360,264,o),
(443,264,cs),
(552,264,l),
(552,193,ls),
(552,62,o),
(476,34,o),
(343,34,cs),
(281,34,ls),
(148,34,o),
(72,61,o),
(72,193,c),
(32,193,l),
(32,50,o),
(104,-6,o),
(281,-6,cs)
);
},
{
closed = 1;
nodes = (
(72,242,l),
(72,308,o),
(88,362,o),
(197,362,cs),
(329,362,l),
(329,415,l),
(329,539,o),
(231,564,o),
(180,564,cs),
(116,564,o),
(56,542,o),
(30,477,c),
(69,464,l),
(82,500,o),
(117,524,o),
(180,524,cs),
(258,524,o),
(289,469,o),
(289,402,c),
(196,402,ls),
(99,402,o),
(32,364,o),
(32,242,c)
);
},
{
closed = 1;
nodes = (
(362,498,l),
(572,774,l),
(533,785,l),
(312,494,l)
);
}
);
visible = 1;
width = 620;
}
);
unicode = 3489;
userData = {
com.fontlab.hintData = {
hhints = (
{
position = -12;
width = 135;
},
{
position = 236;
width = 124;
},
{
position = 251;
width = 84;
},
{
position = 283;
width = 119;
},
{
position = 283;
width = 52;
},
{
position = 451;
width = 124;
}
);
vhints = (
{
position = 34;
width = 140;
},
{
position = 250;
width = 89;
},
{
position = 454;
width = 140;
}
);
};
};
},
{
glyphname = sinJa;
layers = (
{
layerId = "DC4431BF-9234-4C16-9154-22D387E42D10";
shapes = (
{
closed = 1;
nodes = (
(341,-6,ls),
(518,-6,o),
(590,50,o),
(590,193,c),
(550,193,l),
(550,62,o),
(474,34,o),
(341,34,cs),
(279,34,ls),
(146,34,o),
(70,61,o),
(70,193,c),
(30,193,l),
(30,50,o),
(102,-6,o),
(279,-6,cs)
);
},
{
closed = 1;
nodes = (
(70,242,l),
(70,308,o),
(86,362,o),
(195,362,cs),
(421,362,ls),
(530,362,o),
(550,320,o),
(550,242,c),
(590,242,l),
(590,368,o),
(527,402,o),
(419,402,cs),
(194,402,ls),
(97,402,o),
(30,364,o),
(30,242,c)
);
},
{
closed = 1;
nodes = (
(330,379,l),
(330,415,ls),
(330,469,o),
(361,524,o),
(439,524,cs),
(502,524,o),
(537,500,o),
(550,464,c),
(589,477,l),
(563,542,o),
(503,564,o),
(439,564,cs),
(402,564,o),
(341,551,o),
(310,498,c),
(279,551,o),
(218,564,o),
(181,564,cs),
(117,564,o),
(57,542,o),
(31,477,c),
(70,464,l),
(83,500,o),
(118,524,o),
(181,524,cs),
(259,524,o),
(290,469,o),
(290,415,cs),
(290,379,l)
);
},
{
closed = 1;
nodes = (
(355,498,l),
(563,774,l),
(533,796,l),
(310,498,l)
);
}
);
width = 620;
},
{
layerId = "4EACF7E3-2421-4EEA-928B-7BA9BC4A845D";
shapes = (
{
closed = 1;
nodes = (
(342,-12,ls),
(511,-12,o),
(594,64,o),
(594,202,c),
(454,202,l),
(454,151,o),
(415,123,o),
(350,123,cs),
(278,123,ls),
(215,123,o),
(174,149,o),
(174,202,c),
(34,202,l),
(34,59,o),
(112,-12,o),
(289,-12,cs)
);
},
{
closed = 1;
nodes = (
(174,251,l),
(174,262,o),
(176,283,o),
(209,283,cs),
(426,283,ls),
(455,283,o),
(455,263,o),
(455,251,c),
(594,251,l),
(594,377,o),
(531,402,o),
(423,402,cs),
(198,402,ls),
(101,402,o),
(35,373,o),
(35,251,c)
);
},
{
closed = 1;
nodes = (
(378,378,l),
(378,397,ls),
(378,443,o),
(418,451,o),
(436,451,cs),
(460,451,o),
(476,436,o),
(480,421,c),
(598,460,l),
(574,537,o),
(506,575,o),
(435,575,cs),
(393,575,o),
(350,562,o),
(314,536,c),
(278,562,o),
(235,575,o),
(193,575,cs),
(122,575,o),
(54,537,o),
(30,460,c),
(148,421,l),
(152,436,o),
(168,451,o),
(192,451,cs),
(210,451,o),
(250,443,o),
(250,397,cs),
(250,378,l)
);
},
{
closed = 1;
nodes = (
(431,470,l),
(650,761,l),
(547,837,l),
(304,522,l)
);
}
);
width = 653;
},
{
associatedMasterId = "DC4431BF-9234-4C16-9154-22D387E42D10";
layerId = "FE71C61E-69FC-4B3A-A053-580EF089169F";
name = "27 Jun 21, 13:14";
shapes = (
{
closed = 1;
nodes = (
(341,-6,ls),
(518,-6,o),
(590,49.746,o),
(590,192.5,c),
(550,192.5,l),
(550,62.301,o),
(474,34,o),
(341,34,cs),
(279,34,ls),
(146,34,o),
(70,61.301,o),
(70,192.5,c),
(30,192.5,l),
(30,49.746,o),
(102,-6,o),
(279,-6,cs)
);
},
{
closed = 1;
nodes = (
(70,242,l),
(70.001,308.104,o),
(85.738,362,o),
(195,362,cs),
(421,362,ls),
(530,362,o),
(550,320,o),
(550,242,c),
(590,242,l),
(590,368,o),
(527,402,o),
(419,402,cs),
(194,402,ls),
(97,402,o),
(30,364,o),
(30,242,c)
);
},
{
closed = 1;
nodes = (
(330,379,l),
(330,415,ls),
(330,469,o),
(360.793,524,o),
(439,524,cs),
(501.579,524,o),
(536.527,500.315,o),
(550,464,c),
(589,477,l),
(563.293,541.871,o),
(502.881,564,o),
(439,564,cs),
(402.339,564,o),
(341.349,551.303,o),
(310,497.885,c),
(278.651,551.303,o),
(217.661,564,o),
(181,564,cs),
(117.119,564,o),
(56.707,541.871,o),
(31,477,c),
(70,464,l),
(83.473,500.315,o),
(118.421,524,o),
(181,524,cs),
(259.207,524,o),
(290,469,o),
(290,415,cs),
(290,379,l)
);
},
{
closed = 1;
nodes = (
(567,774,l),
(528,785,l),
(304,490,l),
(332,465,l)
);
}
);
visible = 1;
width = 620;
},
{
associatedMasterId = "4EACF7E3-2421-4EEA-928B-7BA9BC4A845D";
layerId = "D1428CAF-3292-424D-B6EB-A8E7F648ECAC";
name = "27 Jun 21, 13:16";
shapes = (
{
closed = 1;
nodes = (
(342,-12,ls),
(511,-12,o),
(594,64,o),
(594,202,c),
(454,202,l),
(454,151,o),
(415,123,o),
(350,123,cs),
(278,123,ls),
(215,123,o),
(174,148.801,o),
(174,202,c),
(34,202,l),
(34,59.246,o),
(112,-12,o),
(289,-12,cs)
);
},
{
closed = 1;
nodes = (
(174,251,l),
(174.001,262.104,o),
(175.738,283,o),
(209,283,cs),
(426,283,ls),
(455,283,o),
(455,263,o),
(455,251,c),
(594,251,l),
(594,377,o),
(531,402,o),
(423,402,cs),
(198,402,ls),
(101,402,o),
(35,373,o),
(35,251,c)
);
},
{
closed = 1;
nodes = (
(378,378,l),
(378,397,l),
(378,443.165,o),
(417.669,451,o),
(433,451,cs),
(460.783,451,o),
(475.584,436,o),
(480,421,c),
(598,460,l),
(573.975,536.524,o),
(506.221,574.564,o),
(434.729,574.564,cs),
(393.124,574.564,o),
(350.253,561.681,o),
(314,536,c),
(277.783,561.654,o),
(234.893,574.548,o),
(193.252,574.548,cs),
(121.808,574.548,o),
(54.046,536.591,o),
(30,460,c),
(148,421,l),
(152.416,436,o),
(167.217,451,o),
(195,451,cs),
(210.331,451,o),
(250,443.165,o),
(250,397,c),
(250,378,l)
);
},
{
closed = 1;
nodes = (
(653,755,l),
(507.721,793,l),
(302,522,l),
(436,470,l)
);
}
);
visible = 1;
width = 653;
}
);
unicode = 3490;
userData = {
com.fontlab.hintData = {
hhints = (
{
position = -12;
width = 135;
},
{
position = 378;
width = 24;
},
{
position = 451;
width = 124;
}
);
vhints = (
{
position = 34;
width = 140;
},
{
position = 250;
width = 128;
},
{
position = 454;
width = 140;
}
);
};
};
},
{
glyphname = sinJha;
layers = (
{
layerId = "DC4431BF-9234-4C16-9154-22D387E42D10";
shapes = (
{
closed = 1;
nodes = (
(69,225,l),
(349,466,ls),
(407,514,o),
(477,538,o),
(540,538,cs),
(614,538,o),
(679,506,o),
(706,440,c),
(753,440,l),
(719,534,o),
(639,577,o),
(547,577,cs),
(472,577,o),
(390,548,o),
(320,494,c),
(30,246,l),
(30,196,l)
);
},
{
closed = 1;
nodes = (
(95,498,o),
(139,521,o),
(181,521,cs),
(230,521,o),
(276,491,o),
(289,445,c),
(320,473,l),
(305,527,o),
(245,565,o),
(182,565,cs),
(124,565,o),
(64,533,o),
(33,452,c),
(72,440,l)
);
},
{
closed = 1;
nodes = (
(746,0,o),
(789,21,o),
(813,58,c),
(837,21,o),
(880,0,o),
(932,0,cs),
(1015,0,o),
(1073,52,o),
(1073,133,cs),
(1073,242,l),
(1031,242,l),
(1031,139,ls),
(1031,104,o),
(1008,40,o),
(932,40,cs),
(857,40,o),
(834,104,o),
(834,139,cs),
(834,192,l),
(792,192,l),
(792,139,ls),
(792,104,o),
(769,40,o),
(694,40,cs),
(618,40,o),
(595,104,o),
(595,139,cs),
(595,301,ls),
(595,336,o),
(608,440,o),
(734,440,cs),
(753,440,l),
(729,480,l),
(724,480,ls),
(601,480,o),
(553,388,o),
(553,307,cs),
(553,133,ls),
(553,52,o),
(611,0,o),
(694,0,cs)
);
},
{
closed = 1;
nodes = (
(642,689,o),
(714,715,o),
(780,715,c),
(780,755,l),
(701,755,o),
(612,721,o),
(583,643,c),
(622,628,l)
);
},
{
closed = 1;
nodes = (
(1073,241,l),
(1073,514,ls),
(1073,678,o),
(1004,755,o),
(837,755,c),
(837,715,l),
(958,715,o),
(1031,668,o),
(1031,514,cs),
(1031,241,l)
);
},
{
closed = 1;
nodes = (
(330,369,l),
(427,354,o),
(463,330,o),
(463.004,240,cs),
(463,114,ls),
(463,65,o),
(418,38,o),
(375,38,cs),
(335,38,o),
(296,61,o),
(296,114,cs),
(296,192,l),
(256,192,l),
(256,114,ls),
(256,61,o),
(221,38,o),
(185,38,cs),
(146,38,o),
(106,65,o),
(106,114,cs),
(106,166,ls),
(106,185,o),
(100,237,o),
(30,246,c),
(30,196,l),
(34,197,o),
(41,199,o),
(44,199,cs),
(64,199,o),
(65,168,o),
(65,146,cs),
(65.003,114,ls),
(65,39,o),
(123,-5,o),
(184,-5,cs),
(217,-5,o),
(250,8,o),
(276,36,c),
(306,10,o),
(345,-4,o),
(382,-4,cs),
(445,-4,o),
(503,35,o),
(503,114,cs),
(503,240,ls),
(503,362,o),
(441,391,o),
(365,403,c),
(330,373,l)
);
}
);
width = 1103;
},
{
layerId = "4EACF7E3-2421-4EEA-928B-7BA9BC4A845D";
shapes = (
{
closed = 1;
nodes = (
(155,181,l),
(425,400,ls),
(458,427,o),
(503,443,o),
(550,443,cs),
(607,443,o),
(671,420,o),
(671,336,c),
(808,336,l),
(808,509,o),
(686,578,o),
(551,578,cs),
(477,578,o),
(398,556,o),
(335,509,c),
(30,259,l),
(30,160,l)
);
},
{
closed = 1;
nodes = (
(147,425,o),
(167,446,o),
(196,446,cs),
(216,446,o),
(245,436,o),
(245,402,c),
(337,502,l),
(319,535,o),
(267,567,o),
(200,567,cs),
(136,567,o),
(44,537,o),
(30,439,c),
(147,402,l)
);
},
{
closed = 1;
nodes = (
(788,-8,o),
(819,2,o),
(845,35,c),
(874,3,o),
(915,-8,o),
(949,-8,cs),
(1041,-8,o),
(1108,58,o),
(1108,160,cs),
(1108,202,l),
(967,202,l),
(967,166,ls),
(967,154,o),
(958,132,o),
(928,132,cs),
(898,132,o),
(890,153,o),
(890,166,cs),
(890,202,l),
(790,202,l),
(790,166,ls),
(790,153,o),
(782,132,o),
(752,132,cs),
(722,132,o),
(713,154,o),
(713,166,cs),
(713,262,ls),
(713,322,o),
(746,336,o),
(786,336,cs),
(808,336,l),
(746,454,l),
(668,435,l),
(583,399,o),
(575,323,o),
(575,262,cs),
(575,160,ls),
(575,58,o),
(653,-8,o),
(750,-8,cs)
);
},
{
closed = 1;
nodes = (
(752,612,o),
(776,617,o),
(808,617,c),
(808,755,l),
(719,755,o),
(635,711,o),
(598,637,c),
(734,588,l)
);
},
{
closed = 1;
nodes = (
(1108,202,l),
(1108,520,ls),
(1108,706,o),
(1005,755,o),
(864,755,c),
(864,616,l),
(948,616,o),
(967,583,o),
(967,498,cs),
(967,202,l)
);
},
{
closed = 1;
nodes = (
(365,269,l),
(395,253,o),
(400,230,o),
(400,202,cs),
(400,162,ls),
(400,142,o),
(385,132,o),
(370,132,cs),
(355,132,o),
(340,142,o),
(340,162,cs),
(340,202,l),
(240,202,l),
(240,160,ls),
(240,141,o),
(225,132,o),
(211,132,cs),
(196,132,o),
(181,141,o),
(181,160,cs),
(181,202,ls),
(181,221,o),
(166,239,o),
(147,255,c),
(30,160,l),
(34,161,o),
(38,162,o),
(43,162,cs),
(65,162,o),
(65,139,o),
(65,122,cs),
(65,106,ls),
(65,42,o),
(137,-7,o),
(203,-7,cs),
(237,-7,o),
(270,6,o),
(290,36,c),
(314,6,o),
(349,-7,o),
(385,-7,cs),
(455,-7,o),
(529,47,o),
(529,136,cs),
(529,218,ls),
(529,280,o),
(512,327,o),
(448,354,c),
(365,287,l)
);
}
);
width = 1138;
}
);
unicode = 3491;
userData = {
com.fontlab.hintData = {
hhints = (
{
position = -8;
width = 140;
},
{
position = 200;
width = 2;
},
{
position = 446;
width = 121;
},
{
position = 616;
width = 138;
}
);
vhints = (
{
position = 240;
width = 100;
},
{
position = 400;
width = 129;
},
{
position = 575;
width = 138;
},
{
position = 790;
width = 100;
},
{
position = 967;
width = 141;
}
);
};
};
},
{
glyphname = sinNya;
layers = (
{
layerId = "DC4431BF-9234-4C16-9154-22D387E42D10";
shapes = (
{
closed = 1;
nodes = (
(877,0,ls),
(934,0,o),
(1037,22,o),
(1079,138,c),
(1042,148,l),
(1008,75,o),
(948,40,o),
(877,40,cs),
(838,40,ls),
(714,40,o),
(653,108,o),
(653,199,cs),
(653,293,o),
(711,362,o),
(827,362,cs),
(1013,362,l),
(1013,389,ls),
(1013,559,o),
(852,592,o),
(754,592,c),
(754,550,l),
(832,550,o),
(973,533,o),
(973,402,c),
(837,402,ls),
(706,402,o),
(611,335,o),
(611,199,cs),
(611,60,o),
(718,0,o),
(838,0,cs)
);
},
{
closed = 1;
nodes = (
(136,-8,l),
(72,69,o),
(70,112,o),
(70,193,cs),
(70,323,ls),
(70,394,o),
(92,452,o),
(155,452,cs),
(171,452,o),
(189,448,o),
(210,440,c),
(210,483,l),
(192,489,o),
(173,492,o),
(155,492,cs),
(90,492,o),
(30,451,o),
(30,323,cs),
(30,193,ls),
(30,102,o),
(34,53,o),
(94,-24,c)
);
},
{
closed = 1;
nodes = (
(355,-5,o),
(388,8,o),
(414,36,c),
(444,10,o),
(483,-4,o),
(520,-4,cs),
(583,-4,o),
(641,35,o),
(641,114,cs),
(641,240,ls),
(641,362,o),
(579,391,o),
(503,403,c),
(465,370,l),
(564,355,o),
(601,331,o),
(601.004,240,cs),
(601,114,ls),
(601,65,o),
(556,38,o),
(513,38,cs),
(473,38,o),
(434,61,o),
(434,114,cs),
(434,192,l),
(394,192,l),
(394,114,ls),
(394,61,o),
(359,38,o),
(323,38,cs),
(284,38,o),
(244,65,o),
(244,114,cs),
(244,166,ls),
(244,185,o),
(238,237,o),
(168,246,c),
(168,196,l),
(172,197,o),
(179,199,o),
(182,199,cs),
(202,199,o),
(203,168,o),
(203,146,cs),
(203.003,114,ls),
(203,39,o),
(261,-5,o),
(322,-5,cs)
);
},
{
closed = 1;
nodes = (
(233,498,o),
(277,521,o),
(319,521,cs),
(368,521,o),
(414,491,o),
(427,445,c),
(458,473,l),
(443,527,o),
(383,565,o),
(320,565,cs),
(262,565,o),
(202,533,o),
(171,452,c),
(210,440,l)
);
},
{
closed = 1;
nodes = (
(1018,-204,o),
(1095,-161,o),
(1113,-76,c),
(1074,-66,l),
(1058,-134,o),
(1002,-164,o),
(946,-164,cs),
(880,-164,o),
(814,-121,o),
(814,-45,c),
(774,-45,l),
(774,-151,o),
(857,-204,o),
(942,-204,cs)
);
},
{
closed = 1;
nodes = (
(207,225,l),
(487,466,ls),
(558,525,o),
(633,550,o),
(699,550,c),
(699,592,l),
(632,592,o),
(548,564,o),
(458,494,c),
(168,246,l),
(168,196,l)
);
}
);
width = 1113;
},
{
layerId = "4EACF7E3-2421-4EEA-928B-7BA9BC4A845D";
shapes = (
{
closed = 1;
nodes = (
(912,-1,ls),
(1005,-1,o),
(1090,51,o),
(1115,137,c),
(987,171,l),
(974,139,o),
(945,135,o),
(912,135,cs),
(875,135,ls),
(836,135,o),
(791,145,o),
(791,200,cs),
(791,262,o),
(850,262,o),
(874,262,cs),
(1061,262,l),
(1061,397,ls),
(1061,553,o),
(932,592,o),
(796,592,c),
(796,462,l),
(846,462,o),
(918,459,o),
(918,397,c),
(874,397,ls),
(741,397,o),
(648,332,o),
(648,199,cs),
(648,57,o),
(755,-1,o),
(875,-1,cs)
);
},
{
closed = 1;
nodes = (
(241,-1,l),
(177,76,o),
(166,116,o),
(166,197,cs),
(166,287,ls),
(166,396,o),
(211,420,o),
(250,420,cs),
(265,420,o),
(279,416,o),
(326,402,c),
(326,533,l),
(285,553,o),
(263,554,o),
(248,554,cs),
(136,554,o),
(30,467,o),
(30,287,cs),
(30,197,ls),
(30,106,o),
(51,36,o),
(111,-41,c)
);
},
{
closed = 1;
nodes = (
(416,-7,o),
(449,6,o),
(469,36,c),
(493,6,o),
(528,-7,o),
(564,-7,cs),
(634,-7,o),
(708,47,o),
(708,136,cs),
(708,218,ls),
(708,280,o),
(691,327,o),
(627,354,c),
(530,276,l),
(573,259,o),
(579,233,o),
(579,202,cs),
(579,162,ls),
(579,142,o),
(564,132,o),
(549,132,cs),
(534,132,o),
(519,142,o),
(519,162,cs),
(519,202,l),
(419,202,l),
(419,160,ls),
(419,141,o),
(404,132,o),
(390,132,cs),
(375,132,o),
(360,141,o),
(360,160,cs),
(360,202,ls),
(360,221,o),
(345,239,o),
(326,255,c),
(209,160,l),
(213,161,o),
(217,162,o),
(222,162,cs),
(244,162,o),
(244,139,o),
(244,122,cs),
(244,106,ls),
(244,42,o),
(316,-7,o),
(382,-7,cs)
);
},
{
closed = 1;
nodes = (
(326,425,o),
(346,446,o),
(375,446,cs),
(395,446,o),
(424,436,o),
(424,402,c),
(516,502,l),
(498,535,o),
(446,567,o),
(379,567,cs),
(315,567,o),
(223,537,o),
(209,439,c),
(326,402,l)
);
},
{
closed = 1;
nodes = (
(1091,-205,o),
(1146,-149,o),
(1168,-82,c),
(1035,-48,l),
(1030,-68,o),
(1006,-79,o),
(985,-79,cs),
(956,-79,o),
(936,-62,o),
(936,-46,c),
(799,-46,l),
(799,-137,o),
(866,-205,o),
(985,-205,cs)
);
},
{
closed = 1;
nodes = (
(334,181,l),
(604,400,ls),
(641,430,o),
(679,462,o),
(741,462,c),
(741,593,l),
(636,593,o),
(577,559,o),
(510,504,cs),
(209,259,l),
(209,160,l)
);
}
);
width = 1168;
}
);
unicode = 3492;
userData = {
com.fontlab.hintData = {
hhints = (
{
position = -204;
width = 126;
},
{
position = 0;
width = 136;
},
{
position = 263;
width = 135;
},
{
position = 454;
width = 121;
}
);
vhints = (
{
position = 241;
width = 143;
}
);
};
};
},
{
glyphname = sinJnya;
layers = (
{
layerId = "DC4431BF-9234-4C16-9154-22D387E42D10";
shapes = (
{
closed = 1;
nodes = (
(815,0,ls),
(872,0,o),
(975,22,o),
(1017,138,c),
(980,148,l),
(946,75,o),
(886,40,o),
(815,40,cs),
(776,40,ls),
(652,40,o),
(591,108,o),
(591,199,cs),
(591,293,o),
(649,349,o),
(765,349,cs),
(951,349,l),
(951,376,ls),
(951,556,o),
(790,574,o),
(692,574,c),
(692,533,l),
(770,533,o),
(911,516,o),
(911,389,c),
(775,389,ls),
(644,389,o),
(549,335,o),
(549,199,cs),
(549,60,o),
(656,0,o),
(776,0,cs)
);
},
{
closed = 1;
nodes = (
(136,7,l),
(72,84,o),
(70,127,o),
(70,208,cs),
(70,287,ls),
(70,376,o),
(68,524,o),
(238,524,cs),
(356,524,l),
(356,564,l),
(265,564,ls),
(61,564,o),
(30,452,o),
(30,287,cs),
(30,208,ls),
(30,117,o),
(34,68,o),
(94,-9,c)
);
},
{
closed = 1;
nodes = (
(356,32,l),
(264,32,o),
(210,98,o),
(210,216,cs),
(210,340,ls),
(210,458,o),
(261,524,o),
(356,524,c),
(356,564,l),
(237,564,o),
(170,476,o),
(170,340,cs),
(170,216,ls),
(170,80,o),
(237,-8,o),
(356,-8,c)
);
},
{
closed = 1;
nodes = (
(512,-8,o),
(579,43,o),
(579,145,cs),
(579,164,ls),
(579,233,o),
(548,311,o),
(446,311,cs),
(409,311,l),
(409,271,l),
(446,271,ls),
(531,271,o),
(539,200,o),
(539,152,cs),
(539,66,o),
(492,32,o),
(412,32,c),
(412,-8,l)
);
},
{
closed = 1;
nodes = (
(956,-204,o),
(1033,-161,o),
(1051,-76,c),
(1012,-66,l),
(996,-134,o),
(940,-164,o),
(884,-164,cs),
(818,-164,o),
(752,-121,o),
(752,-45,c),
(712,-45,l),
(712,-151,o),
(795,-204,o),
(880,-204,cs)
);
},
{
closed = 1;
nodes = (
(433,271,l),
(433,361,ls),
(433,480.999,o),
(526,532,o),
(631,534,cs),
(636,534,l),
(636,574,l),
(631,574,ls),
(510,572,o),
(392,516,o),
(392,360,cs),
(392,271,l)
);
}
);
width = 1051;
},
{
layerId = "4EACF7E3-2421-4EEA-928B-7BA9BC4A845D";
shapes = (
{
closed = 1;
nodes = (
(827,-8,ls),
(920,-8,o),
(1005,44,o),
(1030,130,c),
(902,164,l),
(889,132,o),
(860,128,o),
(827,128,cs),
(790,128,ls),
(743,128,o),
(719,155,o),
(719,182,cs),
(719,208,o),
(741,234,o),
(789,234,cs),
(976,234,l),
(976,369,ls),
(976,565,o),
(798,564,o),
(711,564,c),
(711,420,l),
(724,420,o),
(833,436,o),
(833,369,c),
(783,369,ls),
(649,369,o),
(583,277,o),
(583,183,cs),
(583,88,o),
(652,-8,o),
(790,-8,cs)
);
},
{
closed = 1;
nodes = (
(241,-1,l),
(177,76,o),
(166,116,o),
(166,197,cs),
(166,287,ls),
(166,376,o),
(174,421,o),
(224,421,cs),
(421,421,l),
(421,564,l),
(265,564,ls),
(61,564,o),
(30,452,o),
(30,287,cs),
(30,197,ls),
(30,106,o),
(51,36,o),
(111,-41,c)
);
},
{
closed = 1;
nodes = (
(421,135,l),
(369,135,o),
(365,174,o),
(365,198,cs),
(365,348,ls),
(365,376,o),
(369,421,o),
(421,421,c),
(421,564,l),
(282,564,o),
(224,474,o),
(224,358,cs),
(224,198,ls),
(224,82,o),
(282,-8,o),
(421,-8,c)
);
},
{
closed = 1;
nodes = (
(594,-8,o),
(655,45,o),
(655,166,cs),
(655,195,ls),
(655,304,o),
(601,347,o),
(565,347,cs),
(465,347,l),
(465,241,l),
(477,241,ls),
(530,241,o),
(531,205,o),
(531,188,cs),
(531,171,o),
(530,135,o),
(477,135,c),
(477,-8,l)
);
},
{
closed = 1;
nodes = (
(1006,-212,o),
(1061,-156,o),
(1083,-89,c),
(950,-55,l),
(945,-75,o),
(921,-86,o),
(900,-86,cs),
(871,-86,o),
(851,-69,o),
(851,-53,c),
(714,-53,l),
(714,-144,o),
(781,-212,o),
(900,-212,cs)
);
},
{
closed = 1;
nodes = (
(587,241,l),
(587,350,ls),
(587,376,o),
(582,421,o),
(628,421,cs),
(656,421,l),
(656,564,l),
(628,564,ls),
(484,564,o),
(448,468.007,o),
(448,350,cs),
(448,241,l)
);
}
);
width = 1083;
}
);
unicode = 3493;
userData = {
com.fontlab.hintData = {
hhints = (
{
position = -8;
width = 143;
},
{
position = 421;
width = 143;
}
);
vhints = (
{
position = 224;
width = 141;
},
{
position = 448;
width = 139;
},
{
position = 531;
width = 124;
},
{
position = 740;
width = 141;
}
);
};
};
},
{
glyphname = sinNyja;
layers = (
{
layerId = "DC4431BF-9234-4C16-9154-22D387E42D10";
shapes = (
{
closed = 1;
nodes = (
(136,8,l),
(72,85,o),
(70,128,o),
(70,209,cs),
(70,349,ls),
(70,420,o),
(92,478,o),
(155,478,cs),
(171,478,o),
(189,474,o),
(210,466,c),
(210,509,l),
(192,515,o),
(173,518,o),
(155,518,cs),
(90,518,o),
(30,477,o),
(30,349,cs),
(30,209,ls),
(30,118,o),
(34,69,o),
(94,-8,c)
);
},
{
pos = (145,0);
ref = sinJa;
}
);
width = 765;
},
{
layerId = "4EACF7E3-2421-4EEA-928B-7BA9BC4A845D";
shapes = (
{
closed = 1;
nodes = (
(236,-1,l),
(172,76,o),
(161,116,o),
(161,197,cs),
(161,307,ls),
(161,414,o),
(211,437,o),
(254,437,cs),
(271,437,o),
(287,434,o),
(321,422,c),
(321,553,l),
(327,571,o),
(297,572,o),
(280,572,cs),
(30,572,o),
(30,364,o),
(30,332,cs),
(30,192,ls),
(30,101,o),
(46,36,o),
(106,-41,c)
);
},
{
pos = (175,0);
ref = sinJa;
}
);
width = 828;
}
);
unicode = 3494;
},
{
glyphname = sinTta;
layers = (
{
layerId = "DC4431BF-9234-4C16-9154-22D387E42D10";
shapes = (
{
closed = 1;
nodes = (
(455,0,o),
(521,84,o),
(521,241,cs),
(521,514,ls),
(521,671,o),
(455,755,o),
(296,755,c),
(296,715,l),
(409,715,o),
(480,662,o),
(480,514,cs),
(480,241,ls),
(480,95,o),
(409,40,o),
(296,40,c),
(296,0,l)
);
},
{
closed = 1;
nodes = (
(240,40,l),
(139,40,o),
(78,112,o),
(78,200,cs),
(78,270,ls),
(78,357,o),
(128,430,o),
(240,430,c),
(240,470,l),
(80,470,o),
(37,355,o),
(37,270,cs),
(37,200,ls),
(37,116,o),
(90,0,o),
(240,0,c)
);
},
{
closed = 1;
nodes = (
(69,644,o),
(156,715,o),
(240,715,c),
(240,755,l),
(144,755,o),
(30,674,o),
(30,563,c),
(69,553,l)
);
}
);
width = 551;
},
{
layerId = "4EACF7E3-2421-4EEA-928B-7BA9BC4A845D";
shapes = (
{
closed = 1;
nodes = (
(493,-5,o),
(528,138,o),
(528,237,cs),
(528,520,ls),
(528,678,o),
(456,755,o),
(297,755,c),
(297,616,l),
(347,616,o),
(388,603,o),
(388,508,cs),
(388,248,ls),
(388,149,o),
(347,135,o),
(297,135,c),
(297,-5,l)
);
},
{
closed = 1;
nodes = (
(241,135,l),
(189,135,o),
(168,183,o),
(168,222,cs),
(168,262,ls),
(168,322,o),
(201,336,o),
(241,336,c),
(241,474,l),
(45,474,o),
(30,344,o),
(30,262,cs),
(30,208,ls),
(30,117,o),
(97,-5,o),
(241,-5,c)
);
},
{
closed = 1;
nodes = (
(167,596,o),
(203,617,o),
(241,617,c),
(241,755,l),
(137,755,o),
(30,672,o),
(30,566,c),
(167,530,l)
);
}
);
width = 558;
}
);
unicode = 3495;
userData = {
com.fontlab.hintData = {
hhints = (
{
position = 0;
width = 40;
},
{
position = 432;
width = 40;
},
{
position = 715;
width = 40;
}
);
vhints = (
{
position = 30;
width = 39;
},
{
position = 37;
width = 41;
},
{
position = 480;
width = 41;
}
);
};
};
},
{
glyphname = sinTtha;
layers = (
{
layerId = "DC4431BF-9234-4C16-9154-22D387E42D10";
shapes = (
{
closed = 1;
nodes = (
(236,0,o),
(279,21,o),
(303,58,c),
(327,21,o),
(370,0,o),
(422,0,cs),
(505,0,o),
(563,52,o),
(563,133,cs),
(563,200,l),
(521,200,l),
(521,139,ls),
(521,104,o),
(498,40,o),
(422,40,cs),
(347,40,o),
(324,104,o),
(324,139,cs),
(324,192,l),
(282,192,l),
(282,139,ls),
(282,104,o),
(259,40,o),
(184,40,cs),
(108,40,o),
(85,104,o),
(85,139,cs),
(85,301,ls),
(85,336,o),
(98,440,o),
(224,440,cs),
(263,440,l),
(263,480,l),
(224,480,ls),
(91,480,o),
(43,388,o),
(43,307,cs),
(43,133,ls),
(43,52,o),
(101,0,o),
(184,0,cs)
);
},
{
closed = 1;
nodes = (
(296,755,l),
(296,637,ls),
(296,541,o),
(349,464,o),
(466,464,c),
(466,504,l),
(403,504,o),
(336,537,o),
(336,637,cs),
(336,715,l),
(337,715,ls),
(473,715,o),
(521,643,o),
(521,498,cs),
(521,198,l),
(563,198,l),
(563,517,ls),
(563,700,o),
(466,755,o),
(336,755,cs)
);
}
);
width = 593;
},
{
background = {
shapes = (
{
closed = 0;
nodes = (
(168,241,l),
(168,302,o),
(201,316,o),
(241,316,c),
(241,454,l),
(45,454,o),
(30,324,o),
(30,255,c)
);
},
{
closed = 0;
nodes = (
(30,255,l),
(30,191,ls),
(30,101,o),
(103,-5,o),
(247,-5,c),
(247,140,l),
(199,140,o),
(168,168,o),
(168,219,cs),
(168,241,l)
);
}
);
};
layerId = "4EACF7E3-2421-4EEA-928B-7BA9BC4A845D";
shapes = (
{
closed = 1;
nodes = (
(243,-8,o),
(274,2,o),
(300,35,c),
(329,3,o),
(370,-8,o),
(404,-8,cs),
(496,-8,o),
(563,58,o),
(563,160,cs),
(563,202,l),
(423,202,l),
(423,166,ls),
(423,154,o),
(414,132,o),
(383,132,cs),
(353,132,o),
(345,153,o),
(345,166,cs),
(345,202,l),
(245,202,l),
(245,166,ls),
(245,153,o),
(237,132,o),
(207,132,cs),
(177,132,o),
(168,154,o),
(168,173,cs),
(168,251,ls),
(168,302,o),
(201,316,o),
(230,316,cs),
(243,316,l),
(243,454,l),
(230,454,ls),
(45,454,o),
(30,324,o),
(30,255,cs),
(30,160,ls),
(30,58,o),
(108,-8,o),
(205,-8,cs)
);
},
{
closed = 1;
nodes = (
(207,755,l),
(207,606,ls),
(207,519,o),
(258,441,o),
(387,441,c),
(387,548,l),
(334,548,o),
(328,581,o),
(328,614,cs),
(328,629,l),
(339,629,ls),
(407,629,o),
(423,593,o),
(423,508,cs),
(423,201,l),
(563,201,l),
(563,517,ls),
(563,700,o),
(462,755,o),
(328,755,cs)
);
}
);
width = 593;
},
{
associatedMasterId = "4EACF7E3-2421-4EEA-928B-7BA9BC4A845D";
layerId = "F5B99557-133E-402E-BEC6-7159D769987F";
name = "27 Jun 21, 16:34";
shapes = (
{
closed = 1;
nodes = (
(240,-8,o),
(276,3,o),
(300,35,c),
(329,3,o),
(370,-8,o),
(404,-8,cs),
(496,-8,o),
(563,58,o),
(563,160,cs),
(563,202,l),
(423,202,l),
(423,166,ls),
(423,154,o),
(414,132,o),
(383,132,cs),
(353,132,o),
(345,153,o),
(345,166,cs),
(345,202,l),
(245,202,l),
(245,166,ls),
(245,153,o),
(237,132,o),
(207,132,cs),
(177,132,o),
(168,154,o),
(168,166,cs),
(168,262,ls),
(168,322,o),
(201,336,o),
(241,336,cs),
(263,336,l),
(263,474,l),
(241,474,ls),
(45,474,o),
(30,344,o),
(30,262,cs),
(30,160,ls),
(30,58,o),
(105.004,-8,o),
(212,-8,cs)
);
},
{
closed = 1;
nodes = (
(563,195,l),
(563,517,ls),
(563,700,o),
(462,755,o),
(328,755,cs),
(248,755,l),
(248,617,ls),
(248,544,o),
(284,474,o),
(387,454,c),
(387,540,l),
(354,547,o),
(328,562,o),
(328,604,cs),
(328,616,l),
(406,616,o),
(423,577,o),
(423,498,cs),
(423,195,l)
);
}
);
width = 593;
},
{
associatedMasterId = "DC4431BF-9234-4C16-9154-22D387E42D10";
layerId = "DCCD4273-A074-4FD8-B10B-A94F9E25AFE2";
name = "27 Jun 21, 16:34";
shapes = (
{
closed = 1;
nodes = (
(236.405,0,o),
(279.069,21.396,o),
(303,57.965,c),
(326.931,21.396,o),
(369.595,0,o),
(422,0,cs),
(504.893,0,o),
(563,52.266,o),
(563,133,cs),
(563,200,l),
(521,200,l),
(521,139,ls),
(521,104.067,o),
(498.154,40,o),
(422,40,cs),
(346.846,40,o),
(324,104.059,o),
(324,139,cs),
(324,192,l),
(282,192,l),
(282,139,ls),
(282,104.059,o),
(259.154,40,o),
(184,40,cs),
(107.846,40,o),
(85,104.059,o),
(85,139,cs),
(85,301,ls),
(85,335.941,o),
(97.846,440,o),
(223.667,440,cs),
(263,440,l),
(263,480,l),
(223.667,480,ls),
(91.107,480,o),
(43,387.75,o),
(43,307,cs),
(43,133,ls),
(43,52.25,o),
(101.107,0,o),
(184,0,cs)
);
},
{
closed = 1;
nodes = (
(563,200,l),
(563,517,ls),
(563,700,o),
(465.702,755,o),
(336,755,cs),
(296,755,l),
(296,637,ls),
(296,540.655,o),
(349,464,o),
(466,464,c),
(466,504,l),
(403.352,504,o),
(336,536.674,o),
(335.95,637,c),
(336,715,l),
(473.385,715,o),
(521,643.279,o),
(521,498,cs),
(521,200,l)
);
}
);
width = 593;
}
);
unicode = 3496;
userData = {
com.fontlab.hintData = {
hhints = (
{
position = 0;
width = 40;
},
{
position = 235;
width = 7;
},
{
position = 440;
width = 40;
},
{
position = 464;
width = 40;
},
{
position = 715;
width = 40;
}
);
vhints = (
{
position = 43;
width = 42;
},
{
position = 282;
width = 42;
},
{
position = 296;
width = 40;
},
{
position = 521;
width = 42;
}
);
};
};
},
{
glyphname = sinDda;
layers = (
{
layerId = "DC4431BF-9234-4C16-9154-22D387E42D10";
shapes = (
{
closed = 1;
nodes = (
(267,0,o),
(310,21,o),
(334,58,c),
(358,21,o),
(401,0,o),
(453,0,cs),
(536,0,o),
(594,52,o),
(594,133,cs),
(594,197,l),
(552,197,l),
(552,139,ls),
(552,104,o),
(529,40,o),
(453,40,cs),
(378,40,o),
(355,104,o),
(355,139,cs),
(355,192,l),
(313,192,l),
(313,139,ls),
(313,104,o),
(290,40,o),
(215,40,cs),
(139,40,o),
(116,104,o),
(116,139,cs),
(116,235,ls),
(116,302,o),
(155,309,o),
(191,309,cs),
(355,309,l),
(355,354,ls),
(355,396,o),
(338,427,o),
(312,448,cs),
(286,469,o),
(252,479,o),
(219,479,cs),
(164,479,o),
(111,452,o),
(97,399,c),
(136,389,l),
(150,422,o),
(184,438,o),
(218,438,cs),
(266,438,o),
(315,408,o),
(315,349,c),
(30,349,l),
(30,309,l),
(102,309,l),
(81,298,o),
(74,267,o),
(74,235,cs),
(74,133,ls),
(74,52,o),
(132,0,o),
(215,0,cs)
);
},
{
closed = 1;
nodes = (
(123,651,o),
(213,715,o),
(306,715,c),
(306,755,l),
(202,755,o),
(84,681,o),
(84,563,c),
(123,553,l)
);
},
{
closed = 1;
nodes = (
(594,197,l),
(594,514,ls),
(594,675,o),
(526,755,o),
(362,755,c),
(362,715,l),
(480,715,o),
(552,666,o),
(552,514,cs),
(552,197,l)
);
}
);
width = 624;
},
{
layerId = "4EACF7E3-2421-4EEA-928B-7BA9BC4A845D";
shapes = (
{
closed = 1;
nodes = (
(282,-8,o),
(313,2,o),
(339,35,c),
(368,3,o),
(409,-8,o),
(443,-8,cs),
(535,-8,o),
(602,58,o),
(602,160,cs),
(602,202,l),
(461,202,l),
(461,166,ls),
(461,154,o),
(452,132,o),
(422,132,cs),
(392,132,o),
(384,153,o),
(384,166,cs),
(384,202,l),
(284,202,l),
(284,166,ls),
(284,153,o),
(276,132,o),
(246,132,cs),
(216,132,o),
(207,154,o),
(207,166,cs),
(207,219,ls),
(207,231,o),
(211,251,o),
(242,251,cs),
(384,251,l),
(384,349,ls),
(384,402,o),
(374,433,o),
(351,458,cs),
(326,485,o),
(285,502,o),
(241,502,cs),
(203,502,o),
(126,489,o),
(100,401,c),
(199,375,l),
(204,396,o),
(229,399,o),
(239,399,cs),
(260,399,o),
(281,388,o),
(281,353,c),
(30,353,l),
(30,251,l),
(80,251,l),
(72,246,o),
(72,226,o),
(72,219,cs),
(72,160,ls),
(72,58,o),
(149,-8,o),
(245,-8,cs)
);
},
{
closed = 1;
nodes = (
(212,602,o),
(262,617,o),
(310,617,c),
(310,755,l),
(197,755,o),
(75,678,o),
(75,566,c),
(212,530,l)
);
},
{
closed = 1;
nodes = (
(602,202,l),
(602,520,ls),
(602,706,o),
(507,755,o),
(366,755,c),
(366,616,l),
(450,616,o),
(461,583,o),
(461,498,cs),
(461,202,l)
);
}
);
width = 632;
}
);
unicode = 3497;
userData = {
com.fontlab.hintData = {
hhints = (
{
position = 0;
width = 40;
},
{
position = 241;
width = 41;
},
{
position = 309;
width = 40;
},
{
position = 715;
width = 40;
}
);
vhints = (
{
position = 74;
width = 42;
},
{
position = 84;
width = 39;
},
{
position = 313;
width = 42;
},
{
position = 552;
width = 42;
}
);
};
};
},
{
glyphname = sinDdha;
layers = (
{
layerId = "DC4431BF-9234-4C16-9154-22D387E42D10";
shapes = (
{
closed = 1;
nodes = (
(267,0,o),
(310,21,o),
(334,58,c),
(358,21,o),
(401,0,o),
(453,0,cs),
(536,0,o),
(594,52,o),
(594,133,cs),
(594,198,l),
(552,198,l),
(552,139,ls),
(552,104,o),
(529,40,o),
(453,40,cs),
(378,40,o),
(355,104,o),
(355,139,cs),
(355,192,l),
(313,192,l),
(313,139,ls),
(313,104,o),
(290,40,o),
(215,40,cs),
(139,40,o),
(116,104,o),
(116,139,cs),
(116,235,ls),
(116,302,o),
(155,309,o),
(191,309,cs),
(355,309,l),
(355,354,ls),
(355,396,o),
(338,427,o),
(312,448,cs),
(286,469,o),
(252,479,o),
(219,479,cs),
(164,479,o),
(111,452,o),
(97,399,c),
(136,389,l),
(150,422,o),
(184,438,o),
(218,438,cs),
(266,438,o),
(315,408,o),
(315,349,c),
(30,349,l),
(30,309,l),
(102,309,l),
(81,298,o),
(74,267,o),
(74,235,cs),
(74,133,ls),
(74,52,o),
(132,0,o),
(215,0,cs)
);
},
{
closed = 1;
nodes = (
(327,755,l),
(327,637,ls),
(327,541,o),
(380,464,o),
(497,464,c),
(497,504,l),
(434,504,o),
(367,537,o),
(367,637,cs),
(367,715,l),
(368,715,ls),
(504,715,o),
(552,643,o),
(552,498,cs),
(552,258,l),
(594,258,l),
(594,517,ls),
(594,700,o),
(497,755,o),
(367,755,cs)
);
}
);
width = 624;
},
{
layerId = "4EACF7E3-2421-4EEA-928B-7BA9BC4A845D";
shapes = (
{
closed = 1;
nodes = (
(282,-8,o),
(313,2,o),
(339,35,c),
(368,3,o),
(409,-8,o),
(443,-8,cs),
(535,-8,o),
(602,58,o),
(602,160,cs),
(602,202,l),
(462,202,l),
(462,166,ls),
(462,154,o),
(453,132,o),
(422,132,cs),
(392,132,o),
(384,153,o),
(384,166,cs),
(384,202,l),
(284,202,l),
(284,166,ls),
(284,153,o),
(276,132,o),
(246,132,cs),
(216,132,o),
(207,154,o),
(207,166,cs),
(207,219,ls),
(207,231,o),
(211,255,o),
(244,255,cs),
(384,255,l),
(384,349,ls),
(384,402,o),
(374,433,o),
(351,458,cs),
(326,485,o),
(285,502,o),
(241,502,cs),
(203,502,o),
(126,489,o),
(100,401,c),
(199,375,l),
(204,396,o),
(229,399,o),
(239,399,cs),
(260,399,o),
(281,388,o),
(281,353,c),
(30,353,l),
(30,251,l),
(90,251,l),
(80,244,o),
(72,226,o),
(72,189,cs),
(72,160,ls),
(72,58,o),
(149,-8,o),
(245,-8,cs)
);
},
{
closed = 1;
nodes = (
(252,755,l),
(252,606,ls),
(252,519,o),
(297,441,o),
(426,441,c),
(426,548,l),
(373,548,o),
(367,581,o),
(367,614,cs),
(367,629,l),
(378,629,ls),
(446,629,o),
(462,593,o),
(462,508,cs),
(462,255,l),
(602,255,l),
(602,517,ls),
(602,700,o),
(501,755,o),
(367,755,cs)
);
}
);
width = 632;
},
{
associatedMasterId = "4EACF7E3-2421-4EEA-928B-7BA9BC4A845D";
layerId = "B282B8FA-BBDD-4EBE-B117-AFD4F04CC7AB";
name = "27 Jun 21, 16:33";
shapes = (
{
closed = 1;
nodes = (
(278.959,-8,o),
(315.108,3.467,o),
(339,35,c),
(367.925,3.467,o),
(409.152,-8,o),
(443,-8,cs),
(535.381,-8,o),
(602,58,o),
(602,160,cs),
(602,202,l),
(462,202,l),
(462,166,ls),
(462,154,o),
(452.769,132,o),
(422,132,cs),
(392,132,o),
(384,152.875,o),
(384,166,cs),
(384,202,l),
(284,202,l),
(284,166,ls),
(284,152.875,o),
(276,132,o),
(246,132,cs),
(216,132,o),
(207,154,o),
(207,166,cs),
(207,219,l),
(207,231,o),
(211.475,251,o),
(242,251,c),
(384,251,l),
(384,349,ls),
(384,404.667,o),
(374.371,430.912,o),
(351,458,cs),
(327.607,485.114,o),
(282.907,502,o),
(239,502,cs),
(202.592,502,o),
(126.404,488.737,o),
(100,401,c),
(199,375,l),
(203.972,396,o),
(229.146,399,o),
(239,399,cs),
(259.721,399,o),
(281,388.333,o),
(281,353,c),
(30,353,l),
(30,251,l),
(80,251,l),
(72,246,o),
(72,226,o),
(72,219,c),
(72,160,ls),
(72,58,o),
(145.768,-8,o),
(251,-8,cs)
);
},
{
closed = 1;
nodes = (
(602,202,l),
(602,517,ls),
(602,700,o),
(501.273,755,o),
(367,755,c),
(287,755,l),
(287,617,ls),
(287,544.038,o),
(322.619,473.607,o),
(426,454,c),
(426,540,l),
(392.652,547.238,o),
(367,563.071,o),
(367,616,c),
(367,616,l),
(445.252,616,o),
(462,577,o),
(462,498,cs),
(462,202,l)
);
}
);
width = 632;
},
{
associatedMasterId = "DC4431BF-9234-4C16-9154-22D387E42D10";
layerId = "CC32C6AB-D763-434F-B2BF-FBC07299D4A7";
name = "27 Jun 21, 16:33";
shapes = (
{
closed = 1;
nodes = (
(267.405,0,o),
(310.069,21.396,o),
(334,57.965,c),
(357.931,21.396,o),
(400.595,0,o),
(453,0,cs),
(535.893,0,o),
(594,52.257,o),
(594,133,cs),
(594,198,l),
(552,198,l),
(552,139,ls),
(552,104.063,o),
(529.154,40,o),
(453,40,cs),
(377.846,40,o),
(355,104.059,o),
(355,139,cs),
(355,192,l),
(313,192,l),
(313,139,ls),
(313,104.059,o),
(290.154,40,o),
(215,40,cs),
(138.846,40,o),
(116,104.059,o),
(116,139,cs),
(116,235,ls),
(116,301.575,o),
(154.631,309,o),
(191,309,cs),
(355,309,l),
(354.932,354,ls),
(354.968,396.04,o),
(337.707,427.289,o),
(312.041,448.028,cs),
(286.375,468.767,o),
(252.305,478.996,o),
(218.724,478.996,cs),
(164.095,478.996,o),
(110.76,451.927,o),
(97,399,c),
(136,389,l),
(149.99,422.033,o),
(183.821,438.116,o),
(218.351,438.116,cs),
(265.87,438.116,o),
(314.714,407.658,o),
(315,349,c),
(30,349,l),
(30.025,309,l),
(102,309,l),
(80.819,297.654,o),
(74,266.714,o),
(74,235,cs),
(74,133,ls),
(74,52.25,o),
(132.107,0,o),
(215,0,cs)
);
},
{
closed = 1;
nodes = (
(594,198,l),
(594,517,ls),
(594,700,o),
(496.702,755,o),
(367,755,cs),
(327,755,l),
(327,637,ls),
(327,540.655,o),
(380,464,o),
(497,464,c),
(497,504,l),
(434.352,504,o),
(367,536.674,o),
(366.95,637,cs),
(367,715,l),
(504.385,715,o),
(552,643.279,o),
(552,498,cs),
(552,198,l)
);
}
);
width = 624;
}
);
unicode = 3498;
userData = {
com.fontlab.hintData = {
hhints = (
{
position = 0;
width = 40;
},
{
position = 235;
width = 7;
},
{
position = 309;
width = 40;
},
{
position = 450;
width = 41;
},
{
position = 464;
width = 40;
},
{
position = 715;
width = 40;
}
);
vhints = (
{
position = 74;
width = 42;
},
{
position = 313;
width = 42;
},
{
position = 327;
width = 40;
},
{
position = 552;
width = 42;
}
);
};
};
},
{
glyphname = sinNna;
layers = (
{
layerId = "DC4431BF-9234-4C16-9154-22D387E42D10";
shapes = (
{
closed = 1;
nodes = (
(66,34,o),
(105,43,o),
(140,43,cs),
(205,43,o),
(246,0,o),
(318,0,cs),
(374,0,o),
(480,39,o),
(480,176,cs),
(480,383,ls),
(480,431,o),
(479,606,o),
(268,606,cs),
(158,606,o),
(56,535,o),
(56,398,cs),
(56,275,o),
(139,192,o),
(236,192,cs),
(303,193,l),
(303,233,l),
(257,233,ls),
(106,233,o),
(96,365,o),
(96,398,cs),
(96,434,o),
(114,566,o),
(268,566,cs),
(363,566,o),
(439,512,o),
(439,383,cs),
(439,176,ls),
(439,72,o),
(360,41,o),
(317,41,cs),
(256,41,o),
(219,85,o),
(140,85,cs),
(111,85,o),
(48,82,o),
(10,5,c),
(49,-5,l)
);
},
{
closed = 1;
nodes = (
(834,-7,o),
(933,49,o),
(933,160,cs),
(933,193,l),
(893,193,l),
(893,160,ls),
(893,76,o),
(814,34,o),
(734,34,cs),
(655,34,o),
(575,76.007,o),
(575,160,cs),
(575,193,l),
(535,193,l),
(535,160,ls),
(535,49,o),
(635,-7,o),
(734,-7,cs)
);
},
{
closed = 1;
nodes = (
(720,272,l),
(720,432,ls),
(720,492,o),
(763,522,o),
(806,522,cs),
(850,522,o),
(893,492,o),
(893,432,cs),
(893,242,l),
(933,242,l),
(933,432,ls),
(933,520,o),
(870,565,o),
(806,565,cs),
(765,565,o),
(724,546,o),
(700,508,c),
(676,546,o),
(635,565,o),
(593,565,cs),
(563,565,o),
(533,555,o),
(510,534,c),
(529,495,l),
(546,513,o),
(570,522,o),
(593,522,cs),
(637,522,o),
(680,492,o),
(680,432,cs),
(680,272,l)
);
},
{
closed = 1;
nodes = (
(572,774,l),
(542,796,l),
(368,568,l),
(397,544,l)
);
}
);
width = 963;
},
{
layerId = "4EACF7E3-2421-4EEA-928B-7BA9BC4A845D";
shapes = (
{
closed = 1;
nodes = (
(139,7,o),
(158,27,o),
(194,27,cs),
(237,27,o),
(292,0,o),
(349,0,cs),
(456,0,o),
(515,94,o),
(515,243,cs),
(515,343,ls),
(515,417,o),
(515,606,o),
(299,606,cs),
(166,606,o),
(61,535,o),
(61,398,cs),
(61,275,o),
(144,202,o),
(241,202,cs),
(318,202,l),
(318,336,l),
(262,336,ls),
(220,336,o),
(198,367,o),
(198,400,cs),
(198,433,o),
(221,474,o),
(287,474,cs),
(384,474,o),
(384,386,o),
(384,343,cs),
(384,243,ls),
(384,154,o),
(356,140,o),
(317,140,cs),
(271,140,o),
(217,159,o),
(169,159,cs),
(72,159,o),
(20,79,o),
(0,26,c),
(134,-8,l)
);
},
{
closed = 1;
nodes = (
(887,-6,o),
(987,56,o),
(987,181,cs),
(987,202,l),
(848,202,l),
(848,185,ls),
(848,136,o),
(801,126,o),
(770,126,cs),
(730,126,o),
(690,143,o),
(690,187,cs),
(690,202,l),
(550,202,l),
(550,164,ls),
(550,69,o),
(625,-6,o),
(762,-6,cs)
);
},
{
closed = 1;
nodes = (
(775,281,l),
(775,372,ls),
(775,396.998,o),
(782,420,o),
(813,420,cs),
(848,420,o),
(848,391,o),
(848,372,cs),
(848,251,l),
(987,251,l),
(987,405,ls),
(987,513,o),
(919,563,o),
(826,563,cs),
(768,563,o),
(734,543,o),
(713,522,c),
(694,543,o),
(664,563,o),
(617,563,cs),
(563,563,o),
(533,538,o),
(529,532,c),
(569,407,l),
(572,411,o),
(578,421,o),
(598,421,cs),
(622,421,o),
(641,406,o),
(641,350,cs),
(641,281,l)
);
},
{
closed = 1;
nodes = (
(610,761,l),
(503,837,l),
(259,522,l),
(391,470,l)
);
}
);
width = 1017;
},
{
associatedMasterId = "DC4431BF-9234-4C16-9154-22D387E42D10";
layerId = "0BF3DC5D-5254-4213-8D04-89CF5ECE374B";
name = "27 Jun 21, 13:47";
shapes = (
{
closed = 1;
nodes = (
(66,34,o),
(104.717,43.357,o),
(140.294,43.357,cs),
(205.196,43.357,o),
(246.229,0.199,o),
(318.145,0.199,cs),
(374.319,0.199,o),
(480,39,o),
(480,176,cs),
(480.075,383,ls),
(480,431,o),
(478.698,606,o),
(268,606,cs),
(158,606,o),
(56,535,o),
(56,398,cs),
(56,275.274,o),
(139,192,o),
(236.25,192.459,cs),
(303,192.5,l),
(303,232.5,l),
(257,232.5,ls),
(105.839,232.5,o),
(96,365.455,o),
(96,398,cs),
(96,434.254,o),
(114.17,566,o),
(268,566,cs),
(363.322,566,o),
(439,511.834,o),
(439,383,cs),
(439,176,ls),
(439,71.5,o),
(359.779,40.662,o),
(317.312,40.662,cs),
(256.148,40.662,o),
(218.58,84.625,o),
(140.294,84.625,cs),
(110.746,84.625,o),
(48,82,o),
(10,5,c),
(49,-5,l)
);
},
{
closed = 1;
nodes = (
(833.657,-6.604,o),
(933,48.948,o),
(933,160,cs),
(933,192.5,l),
(893,192.5,l),
(893,160,ls),
(893,75.871,o),
(813.628,33.789,o),
(734.192,33.789,cs),
(654.628,33.789,o),
(575,76.007,o),
(575,160,cs),
(575,192.5,l),
(535,192.5,l),
(535,160,ls),
(535,49.123,o),
(634.657,-6.604,o),
(734.236,-6.604,cs)
);
},
{
closed = 1;
nodes = (
(720,272,l),
(720,432,ls),
(720,491.987,o),
(763.199,521.93,o),
(806.423,521.93,cs),
(849.699,521.93,o),
(893,491.916,o),
(893,432,cs),
(893,241.5,l),
(933,241.5,l),
(933,432,ls),
(933,520.373,o),
(869.69,564.625,o),
(806.41,564.625,cs),
(765.002,564.625,o),
(723.606,545.677,o),
(699.971,507.745,c),
(676.292,545.653,o),
(634.845,564.625,o),
(593.41,564.625,cs),
(563.184,564.625,o),
(532.965,554.529,o),
(509.655,534.323,c),
(529.474,494.92,l),
(546.041,512.933,o),
(569.728,521.93,o),
(593.423,521.93,cs),
(636.698,521.93,o),
(680,491.916,o),
(680,432,cs),
(680,272,l)
);
},
{
closed = 1;
nodes = (
(562,772,l),
(516,784,l),
(362.277,581,l),
(390.999,546,l)
);
}
);
visible = 1;
width = 963;
},
{
associatedMasterId = "4EACF7E3-2421-4EEA-928B-7BA9BC4A845D";
layerId = "F3610F2F-3E00-4DE4-9D1E-8DA472CD333D";
name = "27 Jun 21, 13:47";
shapes = (
{
closed = 1;
nodes = (
(134,-8,o),
(146,27,o),
(191,27,cs),
(236,27,o),
(299,0,o),
(342,0,cs),
(460,0,o),
(515,95,o),
(515,243,c),
(515.075,343,l),
(515.075,470.731,o),
(493.698,606,o),
(283,606,cs),
(173,606,o),
(61,535,o),
(61,398,cs),
(61,275.274,o),
(144.378,201.959,o),
(241.25,201.959,c),
(318,202,l),
(318,336,l),
(262,336,l),
(219.839,336,o),
(197.708,366.881,o),
(197.708,399.426,cs),
(197.708,435.68,o),
(225.17,474,o),
(283,474,cs),
(378.322,474,o),
(384,401.834,o),
(384,343,cs),
(384,243,ls),
(384,153.446,o),
(355.871,139.727,o),
(313.302,139.727,cs),
(273.202,139.727,o),
(220.287,159,o),
(166,159,cs),
(73,159,o),
(18.247,76.468,o),
(0,26,c),
(134,-8,l)
);
},
{
closed = 1;
nodes = (
(885,-6,o),
(987,56,o),
(987,181,cs),
(987,202,l),
(848,202,l),
(848,185,ls),
(848,136,o),
(802,126,o),
(767,126,cs),
(734,126,o),
(690,141,o),
(690,187,cs),
(690,202,l),
(550,202,l),
(550,164,ls),
(550,69,o),
(623,-6,o),
(768,-6,cs)
);
},
{
closed = 1;
nodes = (
(775,281,l),
(775,372,ls),
(775,396.998,o),
(781.983,420,o),
(812,420,cs),
(845,420,o),
(848,397,o),
(848,372,cs),
(848,251,l),
(987,251,l),
(987,405,ls),
(987,513,o),
(920.132,563,o),
(822,563,cs),
(769,563,o),
(734,543,o),
(713,522,c),
(694,543,o),
(664,563,o),
(619,563,cs),
(562,563,o),
(533,538,o),
(529,532,c),
(569,407,l),
(573,412,o),
(576,421,o),
(602,421,cs),
(622.025,421,o),
(641,404,o),
(641,350,c),
(640,281,l)
);
},
{
closed = 1;
nodes = (
(641,755,l),
(495.721,793,l),
(290,522,l),
(396,433,l)
);
}
);
width = 1017;
}
);
unicode = 3499;
},
{
glyphname = sinNndda;
layers = (
{
layerId = "DC4431BF-9234-4C16-9154-22D387E42D10";
shapes = (
{
closed = 1;
nodes = (
(371,0,o),
(414,21,o),
(438,58,c),
(462,21,o),
(505,0,o),
(557,0,cs),
(640,0,o),
(698,52,o),
(698,133,cs),
(698,282,l),
(656,282,l),
(656,139,ls),
(656,104,o),
(633,40,o),
(557,40,cs),
(482,40,o),
(459,104,o),
(459,139,cs),
(459,192,l),
(417,192,l),
(417,139,ls),
(417,104,o),
(394,40,o),
(319,40,cs),
(243,40,o),
(220,104,o),
(220,139,cs),
(220,235,ls),
(220,302,o),
(259,309,o),
(295,309,cs),
(459,309,l),
(459,354,ls),
(459,438,o),
(390,479,o),
(323,479,cs),
(268,479,o),
(215,452,o),
(201,399,c),
(240,389,l),
(254,422,o),
(288,438,o),
(322,438,cs),
(370,438,o),
(419,408,o),
(419,349,c),
(134,349,l),
(134,309,l),
(206,309,l),
(185,298,o),
(178,267,o),
(178,235,cs),
(178,133,ls),
(178,52,o),
(236,0,o),
(319,0,cs)
);
},
{
closed = 1;
nodes = (
(125,8,l),
(75,67,o),
(70,107,o),
(70,159,cs),
(70,290,ls),
(70,338,o),
(89,403,o),
(167,403,cs),
(185,403,o),
(205,399,o),
(229,392,c),
(246,429,l),
(218,440,o),
(191,445,o),
(166,445,cs),
(87,445,o),
(30,393,o),
(30,290,cs),
(30,163,ls),
(30,100,o),
(34,55,o),
(83,-8,c)
);
},
{
closed = 1;
nodes = (
(227,651,o),
(317,715,o),
(410,715,c),
(410,755,l),
(306,755,o),
(188,681,o),
(188,563,c),
(227,553,l)
);
},
{
closed = 1;
nodes = (
(698,241,l),
(698,514,ls),
(698,675,o),
(630,755,o),
(466,755,c),
(466,715,l),
(584,715,o),
(656,666,o),
(656,514,cs),
(656,241,l)
);
}
);
width = 728;
},
{
layerId = "4EACF7E3-2421-4EEA-928B-7BA9BC4A845D";
shapes = (
{
closed = 1;
nodes = (
(439,-8,o),
(470,2,o),
(496,35,c),
(525,3,o),
(566,-8,o),
(600,-8,cs),
(692,-8,o),
(759,58,o),
(759,160,cs),
(759,202,l),
(618,202,l),
(618,166,ls),
(618,154,o),
(609,132,o),
(579,132,cs),
(549,132,o),
(541,153,o),
(541,166,cs),
(541,202,l),
(441,202,l),
(441,166,ls),
(441,153,o),
(433,132,o),
(403,132,cs),
(373,132,o),
(364,154,o),
(364,166,cs),
(364,199,ls),
(364,211,o),
(368,231,o),
(399,231,cs),
(541,231,l),
(541,329,ls),
(541,416,o),
(493,502,o),
(376,502,cs),
(319,502,o),
(243,482,o),
(217,401,c),
(316,361,l),
(335,382,o),
(347,385,o),
(362,385,cs),
(400,385,o),
(423,368,o),
(423,333,c),
(207,333,l),
(207,231,l),
(237,231,l),
(229,226,o),
(229,206,o),
(229,199,cs),
(229,160,ls),
(229,58,o),
(306,-8,o),
(402,-8,cs)
);
},
{
closed = 1;
nodes = (
(233,12,l),
(169,89,o),
(158,129,o),
(158,210,cs),
(158,247,ls),
(158,353,o),
(205,379,o),
(248,379,cs),
(265,379,o),
(282,375,o),
(316,361,c),
(316,492,l),
(291,501,o),
(266,505,o),
(241,505,cs),
(129,505,o),
(30,415,o),
(30,277,cs),
(30,210,ls),
(30,119,o),
(43,49,o),
(103,-28,c)
);
},
{
closed = 1;
nodes = (
(369,602,o),
(419,617,o),
(467,617,c),
(467,755,l),
(354,755,o),
(232,678,o),
(232,566,c),
(369,530,l)
);
},
{
closed = 1;
nodes = (
(759,202,l),
(759,520,ls),
(759,706,o),
(664,755,o),
(523,755,c),
(523,616,l),
(607,616,o),
(618,583,o),
(618,498,cs),
(618,202,l)
);
}
);
width = 789;
}
);
unicode = 3500;
},
{
glyphname = sinTa;
layers = (
{
layerId = "DC4431BF-9234-4C16-9154-22D387E42D10";
shapes = (
{
closed = 1;
nodes = (
(693,-1,o),
(730,66,o),
(730,192,cs),
(730,314,ls),
(730,485,o),
(624,560,o),
(508,560,cs),
(443,560,o),
(375,537,o),
(320,494,c),
(30,246,l),
(30,196,l),
(69,225,l),
(349,466,ls),
(392,502,o),
(447,521,o),
(499,521,cs),
(598,521,o),
(690,454,o),
(690,314,cs),
(690,192,ls),
(690,48,o),
(616,39,o),
(554,39,c),
(554,-1,l)
);
},
{
closed = 1;
nodes = (
(446,-4,o),
(508,81,o),
(508,189,cs),
(508,280,o),
(494,373,o),
(362,403,c),
(325,371,l),
(460,342,o),
(468,275,o),
(468,189,cs),
(468,105,o),
(417,36,o),
(314,36,cs),
(100,36,o),
(149,235,o),
(61,235,cs),
(58,235,o),
(54,235,o),
(50,234,c),
(30,196,l),
(34,197,o),
(38,198,o),
(43,198,cs),
(80,198,o),
(87,147,o),
(116,97,cs),
(144,46,o),
(193,-4,o),
(314,-4,cs)
);
},
{
closed = 1;
nodes = (
(127,498,o),
(171,521,o),
(213,521,cs),
(262,521,o),
(308,491,o),
(321,445,c),
(352,473,l),
(337,527,o),
(277,565,o),
(214,565,cs),
(156,565,o),
(96,533,o),
(65,452,c),
(104,440,l)
);
}
);
width = 760;
},
{
layerId = "4EACF7E3-2421-4EEA-928B-7BA9BC4A845D";
shapes = (
{
closed = 1;
nodes = (
(684,-1,o),
(740,89,o),
(740,205,cs),
(740,321,ls),
(740,485,o),
(625,568,o),
(499,568,cs),
(412,568,o),
(363,530,o),
(301,480,cs),
(30,259,l),
(30,154,l),
(155,188,l),
(425,401,ls),
(447,418,o),
(471,425,o),
(494,425,cs),
(550,425,o),
(600,383,o),
(600,307,cs),
(600,205,ls),
(600,181,o),
(596,142,o),
(544,142,c),
(544,-1,l)
);
},
{
closed = 1;
nodes = (
(413,-8,o),
(504,70,o),
(504,191,cs),
(504,238,o),
(490,308,o),
(421,338,c),
(324,260,l),
(360,245,o),
(373,221,o),
(373,196,cs),
(373,153,o),
(334,127,o),
(292,127,cs),
(199,127,o),
(202,255,o),
(111,255,cs),
(100,255,o),
(88,253,o),
(74,249,c),
(30,154,l),
(36,155,o),
(42,156,o),
(47,156,cs),
(79,156,o),
(93,127,o),
(111,101,cs),
(163,25,o),
(231,-8,o),
(303,-8,cs)
);
},
{
closed = 1;
nodes = (
(154,425,o),
(174,446,o),
(203,446,cs),
(223,446,o),
(252,436,o),
(252,402,c),
(344,507,l),
(337,524,o),
(274,567,o),
(205,567,cs),
(144,567,o),
(51,537,o),
(37,439,c),
(154,402,l)
);
}
);
width = 771;
}
);
unicode = 3501;
userData = {
com.fontlab.hintData = {
hhints = (
{
position = -1;
width = 40;
},
{
position = 371;
width = 32;
}
);
vhints = (
{
position = 468;
width = 40;
},
{
position = 690;
width = 40;
}
);
};
};
},
{
glyphname = sinTha;
layers = (
{
layerId = "DC4431BF-9234-4C16-9154-22D387E42D10";
shapes = (
{
closed = 1;
nodes = (
(233,40,l),
(132,40,o),
(72,112,o),
(71,200,cs),
(71,270,ls),
(70,376,o),
(121,430,o),
(212,430,cs),
(233,430,l),
(233,470,l),
(212,470,ls),
(73,470,o),
(29,373,o),
(30,270,cs),
(30,200,ls),
(31,116,o),
(84,0,o),
(233,0,c)
);
},
{
closed = 1;
nodes = (
(448,0,o),
(514,84,o),
(514,241,c),
(472,241,l),
(472,95,o),
(402,40,o),
(289,40,c),
(289,0,l)
);
},
{
closed = 1;
nodes = (
(247,755,l),
(247,637,ls),
(247,541,o),
(300,464,o),
(417,464,c),
(417,504,l),
(354,504,o),
(287,537,o),
(287,637,cs),
(287,715,l),
(288,715,ls),
(424,715,o),
(472,643,o),
(472,498,cs),
(472,241,l),
(514,241,l),
(514,517,ls),
(514,700,o),
(417,755,o),
(287,755,cs)
);
}
);
width = 544;
},
{
layerId = "4EACF7E3-2421-4EEA-928B-7BA9BC4A845D";
shapes = (
{
closed = 1;
nodes = (
(247,140,l),
(199,140,o),
(168,163,o),
(168,214,cs),
(168,236,ls),
(168,290,o),
(194,306,o),
(228,306,cs),
(241,306,l),
(241,444,l),
(222,444,ls),
(48,444,o),
(30,323,o),
(30,255,cs),
(30,191,ls),
(30,101,o),
(103,-5,o),
(247,-5,c)
);
},
{
closed = 1;
nodes = (
(457,-5,o),
(531,78,o),
(531,250,c),
(391,250,l),
(391,154,o),
(344,140,o),
(302,140,c),
(302,-5,l)
);
},
{
closed = 1;
nodes = (
(175,755,l),
(175,606,ls),
(175,519,o),
(226,441,o),
(355,441,c),
(355,548,l),
(302,548,o),
(296,581,o),
(296,614,cs),
(296,629,l),
(307,629,ls),
(375,629,o),
(391,593,o),
(391,508,cs),
(391,250,l),
(531,250,l),
(531,517,ls),
(531,700,o),
(430,755,o),
(296,755,cs)
);
}
);
width = 561;
},
{
associatedMasterId = "4EACF7E3-2421-4EEA-928B-7BA9BC4A845D";
layerId = "05F284D4-ADB6-4EFF-9266-A08228CA5D41";
name = "27 Jun 21, 16:34";
shapes = (
{
closed = 1;
nodes = (
(241,140,l),
(189,140,o),
(168,185,o),
(168,222,cs),
(168,262,ls),
(168,322,o),
(201,336,o),
(241,336,c),
(241,474,l),
(45,474,o),
(30,344,o),
(30,262,cs),
(30,208,ls),
(30,117,o),
(97,-5,o),
(241,-5,c)
);
},
{
closed = 1;
nodes = (
(451,-5,o),
(531,78,o),
(531,250,c),
(391,250,l),
(391,154,o),
(338,140,o),
(296,140,c),
(296,-5,l)
);
},
{
closed = 1;
nodes = (
(531,250,l),
(531,517,ls),
(531,700,o),
(430,755,o),
(296,755,cs),
(216,755,l),
(216,617,ls),
(216,544,o),
(252,474,o),
(355,454,c),
(355,540,l),
(322,547,o),
(296,564,o),
(296,604,cs),
(296,616,l),
(374,616,o),
(391,577,o),
(391,498,cs),
(391,250,l)
);
}
);
width = 561;
},
{
associatedMasterId = "DC4431BF-9234-4C16-9154-22D387E42D10";
layerId = "F4EFF379-C860-4407-ADB5-DB458D6F90AA";
name = "27 Jun 21, 16:34";
shapes = (
{
closed = 1;
nodes = (
(233,40.069,l),
(132.265,40.004,o),
(71.375,112,o),
(71.375,200,cs),
(71.375,270,ls),
(71.375,357.23,o),
(121.341,429.996,o),
(233,429.931,c),
(233,470,l),
(73.035,470,o),
(30.374,354.561,o),
(30.374,270,cs),
(30.375,200,ls),
(30.375,116,o),
(83.759,0,o),
(233,0,c)
);
},
{
closed = 1;
nodes = (
(448.37,0,o),
(514,83.963,o),
(514,241,c),
(472,241,l),
(472,95.285,o),
(402.056,40,o),
(289,40,c),
(289,0,l)
);
},
{
closed = 1;
nodes = (
(514,241,l),
(514,517,ls),
(514,700,o),
(416.702,755,o),
(287,755,cs),
(247,755,l),
(247,637,ls),
(247,540.655,o),
(300,464,o),
(417,464,c),
(417,504,l),
(354.352,504,o),
(287,536.674,o),
(286.95,637,c),
(287,715,l),
(424.385,715,o),
(472,643.279,o),
(472,498,cs),
(472,241,l)
);
}
);
width = 544;
}
);
unicode = 3502;
userData = {
com.fontlab.hintData = {
hhints = (
{
position = 0;
width = 40;
},
{
position = 235;
width = 6;
},
{
position = 430;
width = 40;
},
{
position = 464;
width = 40;
},
{
position = 715;
width = 40;
}
);
vhints = (
{
position = 34;
width = 41;
},
{
position = 251;
width = 40;
},
{
position = 476;
width = 42;
}
);
};
};
},
{
glyphname = sinDa;
layers = (
{
layerId = "DC4431BF-9234-4C16-9154-22D387E42D10";
shapes = (
{
closed = 1;
nodes = (
(296,0,ls),
(353,0,o),
(456,22,o),
(498,138,c),
(461,148,l),
(427,75,o),
(367,40,o),
(296,40,cs),
(257,40,ls),
(133,40,o),
(72,108,o),
(72,199,cs),
(72,293,o),
(130,362,o),
(246,362,cs),
(432,362,l),
(432,389,ls),
(432,519,o),
(339,579,o),
(241,579,cs),
(163,579,o),
(89,536,o),
(68,456,c),
(107,443,l),
(124,505,o),
(182,538,o),
(243,538,cs),
(320,538,o),
(392,493,o),
(392,402,c),
(256,402,ls),
(125,402,o),
(30,335,o),
(30,199,cs),
(30,60,o),
(137,0,o),
(257,0,cs)
);
},
{
closed = 1;
nodes = (
(437,-204,o),
(514,-161,o),
(532,-76,c),
(493,-66,l),
(477,-134,o),
(421,-164,o),
(365,-164,cs),
(299,-164,o),
(233,-121,o),
(233,-45,c),
(193,-45,l),
(193,-151,o),
(276,-204,o),
(361,-204,cs)
);
}
);
width = 532;
},
{
layerId = "4EACF7E3-2421-4EEA-928B-7BA9BC4A845D";
shapes = (
{
closed = 1;
nodes = (
(294,0,ls),
(387,0,o),
(472,52,o),
(497,138,c),
(369,172,l),
(356,140,o),
(327,136,o),
(294,136,cs),
(257,136,ls),
(218,136,o),
(173,146,o),
(173,201,cs),
(173,263,o),
(232,263,o),
(256,263,cs),
(442,263,l),
(442,399,ls),
(442,518,o),
(339,578,o),
(239,578,cs),
(158,578,o),
(79,539,o),
(58,459,c),
(176,420,l),
(183,444,o),
(214,457,o),
(244,457,cs),
(279,457,o),
(313,440.006,o),
(313,402,c),
(256,402,ls),
(123,402,o),
(30,333,o),
(30,200,cs),
(30,58,o),
(137,0,o),
(257,0,cs)
);
},
{
closed = 1;
nodes = (
(475,-204,o),
(530,-148,o),
(552,-81,c),
(419,-47,l),
(414,-67,o),
(390,-78,o),
(369,-78,cs),
(340,-78,o),
(320,-61,o),
(320,-45,c),
(183,-45,l),
(183,-136,o),
(249.999,-204,o),
(369,-204,cs)
);
}
);
width = 552;
}
);
unicode = 3503;
userData = {
com.fontlab.hintData = {
hhints = (
{
position = -204;
width = 126;
},
{
position = 0;
width = 136;
},
{
position = 263;
width = 135;
},
{
position = 454;
width = 121;
}
);
vhints = (
{
position = 32;
width = 143;
}
);
};
};
},
{
glyphname = sinDha;
layers = (
{
layerId = "DC4431BF-9234-4C16-9154-22D387E42D10";
shapes = (
{
closed = 1;
nodes = (
(223,0,o),
(266,21,o),
(290,58,c),
(314,21,o),
(357,0,o),
(409,0,cs),
(492,0,o),
(550,52,o),
(550,133,cs),
(550,200,l),
(508,200,l),
(508,139,ls),
(508,104,o),
(485,40,o),
(409,40,cs),
(334,40,o),
(311,104,o),
(311,139,cs),
(311,192,l),
(269,192,l),
(269,139,ls),
(269,104,o),
(246,40,o),
(171,40,cs),
(95,40,o),
(72,104,o),
(72,139,cs),
(72,301,ls),
(72,336,o),
(85,440,o),
(211,440,cs),
(250,440,l),
(250,480,l),
(211,480,ls),
(78,480,o),
(30,388,o),
(30,307,cs),
(30,133,ls),
(30,52,o),
(88,0,o),
(171,0,cs)
);
},
{
closed = 1;
nodes = (
(79,651,o),
(169,715,o),
(262,715,c),
(262,755,l),
(158,755,o),
(40,681,o),
(40,563,c),
(79,553,l)
);
},
{
closed = 1;
nodes = (
(550,200,l),
(550,514,ls),
(550,675,o),
(482,755,o),
(318,755,c),
(318,715,l),
(436,715,o),
(508,666,o),
(508,514,cs),
(508,200,l)
);
}
);
width = 580;
},
{
layerId = "4EACF7E3-2421-4EEA-928B-7BA9BC4A845D";
shapes = (
{
closed = 1;
nodes = (
(243,-8,o),
(274,2,o),
(300,35,c),
(329,3,o),
(370,-8,o),
(404,-8,cs),
(496,-8,o),
(563,58,o),
(563,160,cs),
(563,202,l),
(422,202,l),
(422,166,ls),
(422,154,o),
(413,132,o),
(383,132,cs),
(353,132,o),
(345,153,o),
(345,166,cs),
(345,202,l),
(245,202,l),
(245,166,ls),
(245,153,o),
(237,132,o),
(207,132,cs),
(177,132,o),
(168,154,o),
(168,166,cs),
(168,262,ls),
(168,322,o),
(201,336,o),
(241,336,cs),
(263,336,l),
(263,474,l),
(241,474,ls),
(45,474,o),
(30,344,o),
(30,262,cs),
(30,160,ls),
(30,58,o),
(108,-8,o),
(205,-8,cs)
);
},
{
closed = 1;
nodes = (
(173,602,o),
(223,617,o),
(271,617,c),
(271,755,l),
(158,755,o),
(36,678,o),
(36,566,c),
(173,530,l)
);
},
{
closed = 1;
nodes = (
(563,202,l),
(563,520,ls),
(563,706,o),
(468,755,o),
(327,755,c),
(327,616,l),
(411,616,o),
(422,583,o),
(422,498,cs),
(422,202,l)
);
}
);
width = 593;
}
);
unicode = 3504;
userData = {
com.fontlab.hintData = {
hhints = (
{
position = 0;
width = 40;
},
{
position = 241;
width = 1;
},
{
position = 440;
width = 40;
},
{
position = 715;
width = 40;
}
);
vhints = (
{
position = 25;
width = 42;
},
{
position = 264;
width = 42;
},
{
position = 503;
width = 42;
}
);
};
};
},
{
glyphname = sinNa;
layers = (
{
layerId = "DC4431BF-9234-4C16-9154-22D387E42D10";
shapes = (
{
closed = 1;
nodes = (
(661,-1,o),
(698,66,o),
(698,192,cs),
(698,336,ls),
(698,495,o),
(584,564,o),
(473,564,cs),
(402,564,o),
(332,535,o),
(294,485,cs),
(197,356,ls),
(172,324,o),
(112,256,o),
(64,256,c),
(50,258,l),
(50,214,l),
(67,213,l),
(136,213,o),
(197,285,o),
(246,349,cs),
(324,452,ls),
(360,499,o),
(414,522,o),
(468,522,cs),
(563,522,o),
(658,454,o),
(658,336,cs),
(658,192,ls),
(658,48,o),
(584,39,o),
(522,39,c),
(522,-1,l)
);
},
{
closed = 1;
nodes = (
(385,-5,o),
(492,69,o),
(492,208,cs),
(492,287,o),
(451,372,o),
(355,403,c),
(330,370,l),
(424,335,o),
(448,269,o),
(448,208,cs),
(448,97,o),
(363,37,o),
(275,37,cs),
(176,37,o),
(71,111,o),
(71,270,cs),
(71,344,l),
(30,344,l),
(30,256,ls),
(30,79,o),
(154,-5,o),
(273,-5,cs)
);
},
{
closed = 1;
nodes = (
(95,498,o),
(139,521,o),
(181,521,cs),
(230,521,o),
(276,491,o),
(289,445,c),
(320,473,l),
(305,527,o),
(245,565,o),
(182,565,cs),
(124,565,o),
(64,533,o),
(33,452,c),
(72,440,l)
);
}
);
width = 728;
},
{
layerId = "4EACF7E3-2421-4EEA-928B-7BA9BC4A845D";
shapes = (
{
closed = 1;
nodes = (
(671,-8,o),
(728,82,o),
(728,198,cs),
(728,337,ls),
(728,492,o),
(600,574,o),
(475,574,cs),
(398,574,o),
(326,543,o),
(283,479,cs),
(214,375,ls),
(186,333,o),
(162,304,o),
(150,304,cs),
(125,304,l),
(125,165,l),
(154,165,ls),
(201,165,o),
(240,208,o),
(295,281,cs),
(373,384,ls),
(398,417,o),
(433,436,o),
(471,436,cs),
(530,436,o),
(588,391,o),
(588,317,cs),
(588,198,ls),
(588,174,o),
(584,135,o),
(532,135,c),
(532,-8,l)
);
},
{
closed = 1;
nodes = (
(429,-8,o),
(502,97,o),
(502,198,cs),
(502,261,o),
(473,322,o),
(412,354,c),
(336,251,l),
(354,240,o),
(362,222,o),
(362,202,cs),
(362,167,o),
(337,127,o),
(267,127,cs),
(148,127,o),
(148,241,o),
(148,270,cs),
(148,344,l),
(30,344,l),
(30,256,ls),
(30,85,o),
(136,-8,o),
(278,-8,cs)
);
},
{
closed = 1;
nodes = (
(149,425,o),
(169,446,o),
(198,446,cs),
(218,446,o),
(247,436,o),
(247,402,c),
(331,506,l),
(331,522,o),
(270,567,o),
(198,567,cs),
(139,567,o),
(46,537,o),
(32,439,c),
(149,402,l)
);
}
);
width = 758;
}
);
unicode = 3505;
userData = {
com.fontlab.hintData = {
hhints = (
{
position = -8;
width = 135;
},
{
position = 436;
width = 138;
},
{
position = 446;
width = 121;
}
);
vhints = (
{
position = 44;
width = 118;
},
{
position = 139;
width = 23;
},
{
position = 602;
width = 140;
}
);
};
};
},
{
glyphname = sinNda;
layers = (
{
layerId = "DC4431BF-9234-4C16-9154-22D387E42D10";
shapes = (
{
closed = 1;
nodes = (
(436,0,ls),
(493,0,o),
(596,22,o),
(638,138,c),
(601,148,l),
(567,75,o),
(507,40,o),
(436,40,cs),
(397,40,ls),
(273,40,o),
(212,108,o),
(212,199,cs),
(212,293,o),
(270,362,o),
(386,362,cs),
(572,362,l),
(572,389,ls),
(572,519,o),
(479,579,o),
(381,579,cs),
(303,579,o),
(229,536,o),
(208,456,c),
(247,443,l),
(264,505,o),
(322,538,o),
(383,538,cs),
(460,538,o),
(532,493,o),
(532,402,c),
(396,402,ls),
(265,402,o),
(170,335,o),
(170,199,cs),
(170,60,o),
(277,0,o),
(397,0,cs)
);
},
{
closed = 1;
nodes = (
(577,-204,o),
(654,-161,o),
(672,-76,c),
(633,-66,l),
(617,-134,o),
(561,-164,o),
(505,-164,cs),
(439,-164,o),
(373,-121,o),
(373,-45,c),
(333,-45,l),
(333,-151,o),
(416,-204,o),
(501,-204,cs)
);
},
{
closed = 1;
nodes = (
(136,8,l),
(72,85,o),
(70,128,o),
(70,209,cs),
(70,297,ls),
(70,372,o),
(108,455,o),
(189,455,cs),
(204,455,o),
(220,452,o),
(238,446,c),
(238,489,l),
(222,494,o),
(206,497,o),
(190,497,cs),
(110,497,o),
(30,434,o),
(30,297,cs),
(30,209,ls),
(30,118,o),
(34,69,o),
(94,-8,c)
);
}
);
width = 672;
},
{
layerId = "4EACF7E3-2421-4EEA-928B-7BA9BC4A845D";
shapes = (
{
closed = 1;
nodes = (
(486,0,ls),
(579,0,o),
(664,52,o),
(689,138,c),
(561,172,l),
(548,140,o),
(519,136,o),
(486,136,cs),
(449,136,ls),
(410,136,o),
(365,146,o),
(365,201,cs),
(365,263,o),
(424,263,o),
(448,263,cs),
(635,263,l),
(635,385,ls),
(635,520,o),
(543,575,o),
(430,575,cs),
(356,575,o),
(277,551,o),
(241,468,c),
(364,420,l),
(375,454,o),
(418,454,o),
(433,454,cs),
(451,454,o),
(505,446,o),
(505,398,c),
(448,398,ls),
(315,398,o),
(222,333,o),
(222,200,cs),
(222,58,o),
(329,0,o),
(449,0,cs)
);
},
{
closed = 1;
nodes = (
(665,-204,o),
(720,-148,o),
(742,-81,c),
(609,-47,l),
(604,-67,o),
(580,-78,o),
(559,-78,cs),
(530,-78,o),
(510,-61,o),
(510,-45,c),
(373,-45,l),
(373,-136,o),
(439.999,-204,o),
(559,-204,cs)
);
},
{
closed = 1;
nodes = (
(233,11,l),
(169,88,o),
(166,128,o),
(166,209,cs),
(166,294,ls),
(166,401,o),
(230,434,o),
(292,434,cs),
(318,434,o),
(343,428,o),
(364,420,c),
(364,549,l),
(332,561,o),
(300,567,o),
(268,567,cs),
(142,567,o),
(30,474,o),
(30,294,cs),
(30,209,ls),
(30,118,o),
(43,48,o),
(103,-29,c)
);
}
);
width = 742;
}
);
unicode = 3507;
userData = {
com.fontlab.hintData = {
hhints = (
{
position = -204;
width = 126;
},
{
position = 0;
width = 136;
},
{
position = 263;
width = 135;
},
{
position = 454;
width = 121;
}
);
vhints = (
{
position = 30;
width = 136;
},
{
position = 222;
width = 143;
}
);
};
};
},
{
glyphname = sinPa;
layers = (
{
layerId = "DC4431BF-9234-4C16-9154-22D387E42D10";
shapes = (
{
closed = 1;
nodes = (
(341,-6,ls),
(518,-6,o),
(590,50,o),
(590,193,c),
(550,193,l),
(550,62,o),
(474,34,o),
(341,34,cs),
(279,34,ls),
(146,34,o),
(70,61,o),
(70,193,c),
(30,193,l),
(30,50,o),
(102,-6,o),
(279,-6,cs)
);
},
{
closed = 1;
nodes = (
(70,242,l),
(70,308,o),
(86,362,o),
(195,362,cs),
(421,362,ls),
(530,362,o),
(550,320,o),
(550,242,c),
(590,242,l),
(590,368,o),
(527,402,o),
(419,402,cs),
(194,402,ls),
(97,402,o),
(30,364,o),
(30,242,c)
);
},
{
closed = 1;
nodes = (
(330,379,l),
(330,415,ls),
(330,469,o),
(361,524,o),
(439,524,cs),
(502,524,o),
(537,500,o),
(550,464,c),
(589,477,l),
(563,542,o),
(503,564,o),
(439,564,cs),
(402,564,o),
(341,551,o),
(310,498,c),
(279,551,o),
(218,564,o),
(181,564,cs),
(117,564,o),
(57,542,o),
(31,477,c),
(70,464,l),
(83,500,o),
(118,524,o),
(181,524,cs),
(259,524,o),
(290,469,o),
(290,415,cs),
(290,379,l)
);
}
);
width = 620;
},
{
layerId = "4EACF7E3-2421-4EEA-928B-7BA9BC4A845D";
shapes = (
{
closed = 1;
nodes = (
(342,-12,ls),
(511,-12,o),
(594,64,o),
(594,202,c),
(454,202,l),
(454,151,o),
(415,123,o),
(350,123,cs),
(278,123,ls),
(215,123,o),
(174,149,o),
(174,202,c),
(34,202,l),
(34,59,o),
(112,-12,o),
(289,-12,cs)
);
},
{
closed = 1;
nodes = (
(174,251,l),
(174,262,o),
(176,283,o),
(209,283,cs),
(426,283,ls),
(455,283,o),
(455,263,o),
(455,251,c),
(594,251,l),
(594,377,o),
(531,402,o),
(423,402,cs),
(198,402,ls),
(101,402,o),
(35,373,o),
(35,251,c)
);
},
{
closed = 1;
nodes = (
(378,378,l),
(378,397,ls),
(378,443,o),
(418,451,o),
(436,451,cs),
(460,451,o),
(476,436,o),
(480,421,c),
(598,460,l),
(574,537,o),
(506,575,o),
(435,575,cs),
(393,575,o),
(350,562,o),
(314,536,c),
(278,562,o),
(235,575,o),
(193,575,cs),
(122,575,o),
(54,537,o),
(30,460,c),
(148,421,l),
(152,436,o),
(168,451,o),
(192,451,cs),
(210,451,o),
(250,443,o),
(250,397,cs),
(250,378,l)
);
}
);
width = 628;
}
);
unicode = 3508;
userData = {
com.fontlab.hintData = {
hhints = (
{
position = -12;
width = 135;
},
{
position = 283;
width = 119;
},
{
position = 378;
width = 24;
},
{
position = 451;
width = 124;
}
);
vhints = (
{
position = 34;
width = 140;
},
{
position = 250;
width = 128;
},
{
position = 454;
width = 140;
}
);
};
};
},
{
glyphname = sinPha;
layers = (
{
layerId = "DC4431BF-9234-4C16-9154-22D387E42D10";
shapes = (
{
closed = 1;
nodes = (
(120,479,o),
(67,452,o),
(53,399,c),
(92,389,l),
(106,422,o),
(140,438,o),
(174,438,cs),
(222,438,o),
(271,408,o),
(271,349,c),
(176,349,o),
(110,342,o),
(67,296,cs),
(41,268,o),
(30,231,o),
(30,181,cs),
(30,86,o),
(118,0,o),
(237,0,c),
(237,40,l),
(130,40,o),
(70,112,o),
(70,181,cs),
(70,286,o),
(124,309,o),
(262,309,cs),
(311,309,l),
(311,354,ls),
(311,438,o),
(242,479,o),
(175,479,cs)
);
},
{
closed = 1;
nodes = (
(452,0,o),
(518,84,o),
(518,241,c),
(476,241,l),
(476,95,o),
(406,40,o),
(293,40,c),
(293,0,l)
);
},
{
closed = 1;
nodes = (
(251,755,l),
(251,637,ls),
(251,541,o),
(304,464,o),
(421,464,c),
(421,504,l),
(358,504,o),
(291,537,o),
(291,637,cs),
(291,715,l),
(292,715,ls),
(428,715,o),
(476,643,o),
(476,498,cs),
(476,241,l),
(518,241,l),
(518,517,ls),
(518,700,o),
(421,755,o),
(291,755,cs)
);
}
);
width = 548;
},
{
layerId = "4EACF7E3-2421-4EEA-928B-7BA9BC4A845D";
shapes = (
{
closed = 1;
nodes = (
(116,502,o),
(55,480,o),
(30,401,c),
(129,375,l),
(133,393,o),
(153,399,o),
(170,399,cs),
(194,399,o),
(211,388,o),
(211,369,c),
(159,369,o),
(124,357,o),
(91,333,cs),
(34,291,o),
(33,241,o),
(33,192,cs),
(33,87,o),
(120,-5,o),
(247,-5,c),
(247,140,l),
(194,140,o),
(171,166,o),
(171,201,cs),
(171,252,o),
(222,252,o),
(230,252,cs),
(314,252,l),
(314,369,ls),
(314,450,o),
(252,502,o),
(170,502,cs)
);
},
{
closed = 1;
nodes = (
(458,-5,o),
(538,78,o),
(538,250,c),
(398,250,l),
(398,154,o),
(345,140,o),
(303,140,c),
(303,-5,l)
);
},
{
closed = 1;
nodes = (
(182,755,l),
(182,606,ls),
(182,519,o),
(233,441,o),
(362,441,c),
(362,548,l),
(309,548,o),
(303,581,o),
(303,614,cs),
(303,629,l),
(314,629,ls),
(382,629,o),
(398,593,o),
(398,508,cs),
(398,250,l),
(538,250,l),
(538,517,ls),
(538,700,o),
(437,755,o),
(303,755,cs)
);
}
);
width = 568;
},
{
associatedMasterId = "4EACF7E3-2421-4EEA-928B-7BA9BC4A845D";
layerId = "239884C2-0E66-4E7E-A473-0B78EC841960";
name = "27 Jun 21, 16:20";
shapes = (
{
closed = 1;
nodes = (
(116,502,o),
(55,480,o),
(30,401,c),
(129,375,l),
(133,393,o),
(153,399,o),
(170,399,cs),
(194,399,o),
(211,388,o),
(211,369,c),
(159,369,o),
(124,357,o),
(91,333,cs),
(34,291,o),
(33,241,o),
(33,192,cs),
(33,87,o),
(120,-5,o),
(247,-5,c),
(247,140,l),
(194,140,o),
(171,168,o),
(171,195,cs),
(171,242,o),
(200,252,o),
(230,252,cs),
(314,252,l),
(314,369,ls),
(314,450,o),
(252,502,o),
(170,502,cs)
);
},
{
closed = 1;
nodes = (
(458,-5,o),
(538,78,o),
(538,250,c),
(398,250,l),
(398,154,o),
(345,140,o),
(303,140,c),
(303,-5,l)
);
},
{
closed = 1;
nodes = (
(223,755,l),
(223,617,ls),
(223,544,o),
(259,474,o),
(362,454,c),
(362,540,l),
(329,547,o),
(303,563,o),
(303,614,cs),
(303,616,l),
(381,616,o),
(398,577,o),
(398,498,cs),
(398,250,l),
(538,250,l),
(538,517,ls),
(538,700,o),
(437,755,o),
(303,755,cs)
);
}
);
width = 568;
},
{
associatedMasterId = "DC4431BF-9234-4C16-9154-22D387E42D10";
layerId = "8A4C7864-226A-411F-BA0F-135FEEABE5D0";
name = "27 Jun 21, 16:23";
shapes = (
{
closed = 1;
nodes = (
(119.961,478.84,o),
(66.744,451.867,o),
(53,399,c),
(92,389,l),
(105.99,422.033,o),
(139.821,438.116,o),
(174.351,438.116,cs),
(221.87,438.116,o),
(270.714,407.658,o),
(271,349,c),
(176,349,o),
(110,342,o),
(67,296,cs),
(41,268,o),
(30,231,o),
(30,181,cs),
(30,85.733,o),
(117.896,0,o),
(237,0,c),
(237,40,l),
(129.708,40,o),
(70,111.89,o),
(70,181,cs),
(70,285.762,o),
(124.373,309,o),
(262,309,cs),
(311,309,l),
(310.932,354,l),
(310.969,437.9,o),
(241.727,478.84,o),
(174.516,478.84,cs)
);
},
{
closed = 1;
nodes = (
(452.37,0,o),
(518,83.963,o),
(518,241,c),
(476,241,l),
(476,95.285,o),
(406.056,40,o),
(293,40,c),
(293,0,l)
);
},
{
closed = 1;
nodes = (
(251,755,l),
(251,637,ls),
(251,540.655,o),
(304,464,o),
(421,464,c),
(421,504,l),
(358.352,504,o),
(291,537,o),
(291,637,cs),
(291,715,l),
(428,715,o),
(476,643,o),
(476,498,cs),
(476,241,l),
(518,241,l),
(518,517,ls),
(518,700,o),
(420.702,755,o),
(291,755,cs)
);
}
);
width = 548;
}
);
unicode = 3509;
userData = {
com.fontlab.hintData = {
hhints = (
{
position = 0;
width = 40;
},
{
position = 235;
width = 6;
},
{
position = 309;
width = 40;
},
{
position = 464;
width = 40;
},
{
position = 715;
width = 40;
}
);
vhints = (
{
position = 30;
width = 40;
},
{
position = 251;
width = 40;
},
{
position = 271;
width = 40;
},
{
position = 476;
width = 42;
}
);
};
};
},
{
glyphname = sinBa;
layers = (
{
background = {
shapes = (
{
closed = 1;
nodes = (
(483,-4,o),
(556,46,o),
(556,144,cs),
(556,264,l),
(514,264,l),
(514,141,ls),
(514,74,o),
(463,41,o),
(412,41,cs),
(361,41,o),
(309,74,o),
(309,141,cs),
(309,284,ls),
(309,391,o),
(240,443,o),
(170,443,cs),
(100,443,o),
(30,390,o),
(30,284,cs),
(30,177,ls),
(30,45,o),
(91,0,o),
(211,0,c),
(211,40,l),
(123,40,o),
(71,65,o),
(70.917,177,cs),
(71,284,ls),
(71,360,o),
(120,398,o),
(170,398,cs),
(219,398,o),
(268,360,o),
(268,284,cs),
(268,141,ls),
(268,44,o),
(339,-4,o),
(411,-4,cs)
);
},
{
closed = 1;
nodes = (
(80,651,o),
(170,715,o),
(263,715,c),
(263,755,l),
(159,755,o),
(41,681,o),
(41.375,563,c),
(80.375,553,l)
);
},
{
closed = 1;
nodes = (
(556,264,l),
(556,514,ls),
(556,671,o),
(490,755,o),
(331,755,cs),
(320,755,l),
(320,715,l),
(331,715,ls),
(444,715,o),
(514,662,o),
(514,514,cs),
(514,264,l)
);
}
);
};
layerId = "DC4431BF-9234-4C16-9154-22D387E42D10";
shapes = (
{
closed = 1;
nodes = (
(506,-4,o),
(566,58,o),
(566,144,cs),
(566,264,l),
(524,264,l),
(524,141,ls),
(524,83,o),
(482,41,o),
(422,41,cs),
(361,41,o),
(316,83,o),
(316,141,cs),
(316,320,ls),
(316,413,o),
(256,479,o),
(170,479,cs),
(86,479,o),
(30,415,o),
(30,320,cs),
(30,177,ls),
(30,52,o),
(84,0,o),
(211,0,c),
(211,40,l),
(110,40,o),
(71,78,o),
(71,177,cs),
(71,320,ls),
(71,389,o),
(110,434,o),
(170,434,cs),
(231,434,o),
(275,387,o),
(275,320,cs),
(275,141,ls),
(275,57,o),
(337,-4,o),
(421,-4,cs)
);
},
{
closed = 1;
nodes = (
(80,643,o),
(151,715,o),
(253,715,c),
(253,755,l),
(133,755,o),
(41,667,o),
(41,563,c),
(80,553,l)
);
},
{
closed = 1;
nodes = (
(566,264,l),
(566,494,ls),
(566,674,o),
(484,755,o),
(331,755,cs),
(310,755,l),
(310,715,l),
(331,715,ls),
(455,715,o),
(524,636,o),
(524,504,cs),
(524,264,l)
);
}
);
width = 586;
},
{
layerId = "4EACF7E3-2421-4EEA-928B-7BA9BC4A845D";
shapes = (
{
closed = 1;
nodes = (
(488,-8,o),
(579,52,o),
(579,174,cs),
(579,214,l),
(439,214,l),
(439,174,ls),
(439,150,o),
(425,138,o),
(410,138,cs),
(396,138,o),
(382,150,o),
(382,174,cs),
(382,272,ls),
(382,396,o),
(298,452,o),
(212,452,cs),
(122,452,o),
(30,391,o),
(30,283,cs),
(30,187,ls),
(30,55,o),
(91,0,o),
(211,0,c),
(211,140,l),
(180,140,o),
(162,151,o),
(162,193,cs),
(162,267,ls),
(162,298,o),
(183,313,o),
(204,313,cs),
(226,313,o),
(247,298,o),
(247,267,cs),
(247,138,ls),
(247,41,o),
(322,-8,o),
(401,-8,cs)
);
},
{
closed = 1;
nodes = (
(178,602,o),
(220,617,o),
(268,617,c),
(268,755,l),
(155,755,o),
(41,678,o),
(41,566,c),
(178,530,l)
);
},
{
closed = 1;
nodes = (
(579,214,l),
(579,500,ls),
(579,680,o),
(479,755,o),
(345,755,cs),
(324,755,l),
(324,616,l),
(345,616,ls),
(422,616,o),
(439,556.997,o),
(439,478,cs),
(439,214,l)
);
}
);
width = 609;
}
);
unicode = 3510;
},
{
glyphname = sinBha;
layers = (
{
layerId = "DC4431BF-9234-4C16-9154-22D387E42D10";
shapes = (
{
closed = 1;
nodes = (
(256,32,l),
(164,32,o),
(110,98,o),
(110,196,cs),
(110,250,ls),
(110,358,o),
(161,394,o),
(256,394,cs),
(325,394,l),
(335,439,l),
(335,523,o),
(266,564,o),
(199,564,cs),
(144,564,o),
(91,537,o),
(77,484,c),
(116,474,l),
(130,507,o),
(164,523,o),
(198,523,cs),
(246,523,o),
(295,493,o),
(295,434,c),
(30,434,l),
(30,394,l),
(124,394,l),
(89,364,o),
(70,316,o),
(70,250,cs),
(70,196,ls),
(70,80,o),
(137,-8,o),
(256,-8,c)
);
},
{
closed = 1;
nodes = (
(412,-8,o),
(479,43,o),
(479,145,cs),
(479,164,ls),
(479,233,o),
(448,311,o),
(333,311,c),
(333,361,ls),
(333,443,o),
(364,524,o),
(471,524,c),
(471,564,l),
(349,564,o),
(292,478.007,o),
(292,360,cs),
(292,271,l),
(346,271,ls),
(431,271,o),
(439,200,o),
(439,152,cs),
(439,66,o),
(392,32,o),
(312,32,c),
(312,-8,l)
);
},
{
closed = 1;
nodes = (
(646,-8,o),
(713,80,o),
(713,216,cs),
(713,340,ls),
(713,476,o),
(646,564,o),
(527,564,c),
(527,524,l),
(622,524,o),
(673,458,o),
(673,340,cs),
(673,216,ls),
(673,98,o),
(619,32,o),
(527,32,c),
(527,-8,l)
);
}
);
width = 743;
},
{
layerId = "4EACF7E3-2421-4EEA-928B-7BA9BC4A845D";
shapes = (
{
closed = 1;
nodes = (
(265,135,l),
(213,135,o),
(209,175,o),
(209,199,cs),
(209,243,ls),
(209,264,o),
(213,297,o),
(265,297,cs),
(344,297,l),
(344,433,ls),
(344,516,o),
(273,564,o),
(201,564,cs),
(142,564,o),
(83,532,o),
(60,463,c),
(159,437,l),
(163,454,o),
(180,462,o),
(198,462,cs),
(229,462,o),
(241,446,o),
(241,415,c),
(30,415,l),
(30,297,l),
(75,297,l),
(70,283,o),
(68,269,o),
(68,254,cs),
(68,198,ls),
(68,82,o),
(126,-8,o),
(265,-8,c)
);
},
{
closed = 1;
nodes = (
(437,-8,o),
(498,45,o),
(498,166,cs),
(498,216,ls),
(498,305,o),
(463,339,o),
(430,344,c),
(430,351,ls),
(430,380,o),
(428,421,o),
(471,421,c),
(471,564,l),
(327,564,o),
(291,468.007,o),
(291,350,cs),
(291,241,l),
(325,241,ls),
(373,239,o),
(374,205,o),
(374,188,cs),
(374,171,o),
(373,135,o),
(320,135,c),
(320,-8,l)
);
},
{
closed = 1;
nodes = (
(666,-8,o),
(724,82,o),
(724,198,cs),
(724,353,ls),
(724,475,o),
(666,564,o),
(527,564,c),
(527,421,l),
(579,421,o),
(583,381,o),
(583,353,cs),
(583,198,ls),
(583,174,o),
(579,135,o),
(527,135,c),
(527,-8,l)
);
}
);
width = 754;
}
);
unicode = 3511;
userData = {
com.fontlab.hintData = {
hhints = (
{
position = -8;
width = 40;
},
{
position = 271;
width = 40;
},
{
position = 524;
width = 40;
}
);
vhints = (
{
position = 70;
width = 40;
},
{
position = 292;
width = 41;
},
{
position = 439;
width = 40;
},
{
position = 673;
width = 40;
}
);
};
};
},
{
glyphname = sinMa;
layers = (
{
layerId = "DC4431BF-9234-4C16-9154-22D387E42D10";
shapes = (
{
closed = 1;
nodes = (
(317,315,ls),
(317,289,o),
(296,276,o),
(275,276,cs),
(255,276,o),
(234,289,o),
(234,315,cs),
(234,380,ls),
(234,444,o),
(189,479,o),
(142,479,cs),
(88,479,o),
(30,434,o),
(30,336,cs),
(30,252,ls),
(30,143,o),
(67,0,o),
(243,0,c),
(243,40,l),
(203,40,o),
(70,54,o),
(70,252,cs),
(70,336,ls),
(70,409,o),
(105,438,o),
(138,438,cs),
(167,438,o),
(194,415,o),
(194,380,cs),
(194,310,ls),
(194,257,o),
(235,230,o),
(275,230,cs),
(316,230,o),
(357,257,o),
(357,310,cs),
(357,469,l),
(317,469,l)
);
},
{
closed = 1;
nodes = (
(69,553,l),
(69,644,o),
(159,715,o),
(243,715,c),
(243,755,l),
(147,755,o),
(30,674,o),
(30,563,c)
);
},
{
closed = 1;
nodes = (
(299,715,l),
(412,715,o),
(499,662,o),
(499,514,cs),
(499,241,ls),
(499,95,o),
(412,40,o),
(299,40,c),
(299,0,l),
(458,0,o),
(540,84,o),
(540,241,cs),
(540,514,ls),
(540,671,o),
(458,755,o),
(299,755,c)
);
}
);
width = 570;
},
{
layerId = "4EACF7E3-2421-4EEA-928B-7BA9BC4A845D";
shapes = (
{
closed = 1;
nodes = (
(303,348,ls),
(303,337,o),
(295,331,o),
(287,331,cs),
(280,331,o),
(272,337,o),
(272,348,cs),
(272,364,ls),
(272,434,o),
(223,471,o),
(168,471,cs),
(103,471,o),
(30,416,o),
(30,299,cs),
(30,252,ls),
(30,143,o),
(65,-5,o),
(261,-5,c),
(261,135,l),
(201,135,o),
(158,154,o),
(158,252,cs),
(158,328,ls),
(158,341,o),
(166,348,o),
(173,348,cs),
(181,348,o),
(189,341,o),
(189,328,cs),
(189,320,ls),
(189,262,o),
(239,229,o),
(290,229,cs),
(342,229,o),
(395,263,o),
(395,340,cs),
(395,469,l),
(303,469,l)
);
},
{
closed = 1;
nodes = (
(171,529,l),
(171,601,o),
(213,616,o),
(261,616,c),
(261,754,l),
(148,754,o),
(34,677,o),
(34,565,c)
);
},
{
closed = 1;
nodes = (
(317,615,l),
(385,615,o),
(430,603,o),
(430,498,cs),
(430,252,ls),
(430,147,o),
(385,135,o),
(317,135,c),
(317,-5,l),
(528,-5,o),
(570,127,o),
(570,252,cs),
(570,498,ls),
(570,622,o),
(528,754,o),
(317,754,c)
);
}
);
width = 600;
}
);
unicode = 3512;
},
{
glyphname = sinMba;
layers = (
{
layerId = "DC4431BF-9234-4C16-9154-22D387E42D10";
shapes = (
{
closed = 1;
nodes = (
(240,-11,o),
(262,17,o),
(262,58,cs),
(262,78,o),
(255,119,o),
(255,138,cs),
(255,170,o),
(273,171,o),
(291,171,cs),
(309,171,o),
(328,171,o),
(328,138,cs),
(328,119,o),
(321,78,o),
(321,58,cs),
(321,17,o),
(343,-11,o),
(398,-11,cs),
(493,-11,o),
(553,65,o),
(553,167,cs),
(553,514,ls),
(553,671,o),
(471,755,o),
(312,755,c),
(312,715,l),
(425,715,o),
(513,662,o),
(513,514,cs),
(513,167,ls),
(513,102,o),
(470,29,o),
(398,29,cs),
(367,29,o),
(360,42,o),
(360,69,cs),
(360,100,o),
(394,204,o),
(311,204,cs),
(272,204,ls),
(190,204,o),
(223,100,o),
(223,69,cs),
(223,42,o),
(216,29,o),
(185,29,cs),
(113,29,o),
(71,102,o),
(71,167,cs),
(71,366,ls),
(71,415,o),
(105,439,o),
(139,439,cs),
(173,439,o),
(206,416,o),
(206,370,cs),
(206,310,ls),
(206,257,o),
(247,230,o),
(287,230,cs),
(328,230,o),
(369,257,o),
(369,310,cs),
(369,469,l),
(329,469,l),
(329,315,ls),
(329,289,o),
(308,276,o),
(287,276,cs),
(267,276,o),
(246,289,o),
(246,315,cs),
(246,370,ls),
(246,444,o),
(194,480,o),
(142,480,cs),
(86,480,o),
(30,441,o),
(30,366,cs),
(30,167,ls),
(30,65,o),
(90,-11,o),
(185,-11,cs)
);
},
{
closed = 1;
nodes = (
(74,651,o),
(164,715,o),
(257,715,c),
(257,755,l),
(153,755,o),
(35,681,o),
(35,563,c),
(74,553,l)
);
}
);
width = 583;
},
{
layerId = "4EACF7E3-2421-4EEA-928B-7BA9BC4A845D";
shapes = (
{
closed = 1;
nodes = (
(221,-11,o),
(242,-3,o),
(256,11,cs),
(271,25,o),
(277,44,o),
(277,67,cs),
(277,89,o),
(289,100,o),
(302,100,cs),
(314,100,o),
(327,89,o),
(327,67,cs),
(327,44,o),
(333,25,o),
(348,11,cs),
(362,-3,o),
(383,-11,o),
(414,-11,cs),
(511,-11,o),
(577,55,o),
(577,157,cs),
(577,512,ls),
(577,687,o),
(486,755,o),
(330,755,c),
(330,616,l),
(382,616,o),
(437,608,o),
(437,500,cs),
(437,167,ls),
(437,145,o),
(423,135,o),
(408,135,cs),
(394,135,o),
(380,145,o),
(380,166,cs),
(380,181,o),
(373,204,o),
(346,204,cs),
(257,204,ls),
(230,204,o),
(223,181,o),
(223,166,cs),
(223,145,o),
(209,135,o),
(195,135,cs),
(180,135,o),
(166,145,o),
(166,166,cs),
(166,328,ls),
(166,341,o),
(174,348,o),
(181,348,cs),
(189,348,o),
(197,341,o),
(197,328,cs),
(197,320,ls),
(197,262,o),
(247,229,o),
(298,229,cs),
(350,229,o),
(403,263,o),
(403,340,cs),
(403,469,l),
(311,469,l),
(311,348,ls),
(311,337,o),
(303,331,o),
(295,331,cs),
(288,331,o),
(280,337,o),
(280,348,cs),
(280,364,ls),
(280,437,o),
(223,473,o),
(164,473,cs),
(99,473,o),
(30,428,o),
(30,339,cs),
(30,157,ls),
(30,55,o),
(95,-11,o),
(190,-11,cs)
);
},
{
closed = 1;
nodes = (
(183,602,o),
(225,617,o),
(273,617,c),
(273,755,l),
(160,755,o),
(46,678,o),
(46,566,c),
(183,530,l)
);
}
);
width = 607;
}
);
unicode = 3513;
userData = {
com.fontlab.hintData = {
hhints = (
{
position = -11;
width = 146;
},
{
position = 100;
width = 104;
},
{
position = 348;
width = 125;
},
{
position = 616;
width = 139;
}
);
vhints = (
{
position = 30;
width = 136;
},
{
position = 223;
width = 157;
},
{
position = 311;
width = 92;
},
{
position = 437;
width = 140;
}
);
};
};
},
{
glyphname = sinYa;
layers = (
{
layerId = "DC4431BF-9234-4C16-9154-22D387E42D10";
shapes = (
{
closed = 1;
nodes = (
(239,0,o),
(289,25,o),
(315,67,c),
(341,25,o),
(391,0,o),
(448,0,cs),
(532,0,o),
(600,56,o),
(600,140,cs),
(600,192,l),
(560,192,l),
(560,141,ls),
(560,74,o),
(511,40,o),
(448,40,cs),
(384,40,o),
(335,74,o),
(335,141,cs),
(335,192,l),
(295,192,l),
(295,141,ls),
(295,74,o),
(246,40,o),
(182,40,cs),
(119,40,o),
(70,74,o),
(70,141,cs),
(70,192,l),
(30,192,l),
(30,140,ls),
(30,56,o),
(98,0,o),
(182,0,cs)
);
},
{
closed = 1;
nodes = (
(70,242,l),
(70,341,ls),
(70,451,o),
(133,523,o),
(246,523,cs),
(265,523,l),
(265,563,l),
(248,563,ls),
(132,563,o),
(30,493,o),
(30,340,cs),
(30,242,l)
);
},
{
closed = 1;
nodes = (
(600,242,l),
(600,298,ls),
(600,347,o),
(590,402,o),
(479,402,cs),
(335,402,l),
(335,480,o),
(358,524,o),
(444,524,cs),
(507,524,o),
(542,500,o),
(555,464,c),
(594,477,l),
(568,542,o),
(508,564,o),
(444,564,cs),
(393,564,o),
(295,539,o),
(295,415,cs),
(295,362,l),
(488,362,ls),
(522,362,o),
(560,360,o),
(560,298,cs),
(560,242,l)
);
}
);
width = 630;
},
{
layerId = "4EACF7E3-2421-4EEA-928B-7BA9BC4A845D";
shapes = (
{
closed = 1;
nodes = (
(255,-8,o),
(293,4,o),
(322,36,c),
(352,4,o),
(394,-8,o),
(442,-8,cs),
(547,-8,o),
(620,50,o),
(620,160,cs),
(620,202,l),
(481,202,l),
(481,171,ls),
(481,145,o),
(458,131,o),
(435,131,cs),
(412,131,o),
(389,145,o),
(389,173,cs),
(389,202,l),
(261,202,l),
(261,173,ls),
(261,145,o),
(238,131,o),
(215,131,cs),
(192,131,o),
(169,145,o),
(169,171,cs),
(169,202,l),
(30,202,l),
(30,160,ls),
(30,58,o),
(105,-8,o),
(210,-8,cs)
);
},
{
closed = 1;
nodes = (
(169,251,l),
(169,317,ls),
(169,390,o),
(191,433,o),
(245,433,cs),
(265,433,l),
(265,563,l),
(248,563,ls),
(132,563,o),
(30,493,o),
(30,340,cs),
(30,251,l)
);
},
{
closed = 1;
nodes = (
(620,251,l),
(620,269,ls),
(620,339,o),
(587,402,o),
(479,402,cs),
(423,402,l),
(423,433,o),
(442,446,o),
(469,446,cs),
(485,446,o),
(504,441,o),
(515,421,c),
(625,458,l),
(588,543,o),
(527,566,o),
(462,566,cs),
(341,566,o),
(293,487,o),
(293,366,cs),
(293,283,l),
(437,283,ls),
(478,283,o),
(480,268,o),
(480,254,cs),
(480,251,l)
);
}
);
width = 655;
}
);
unicode = 3514;
},
{
glyphname = sinRa;
layers = (
{
guides = (
{
pos = (40,796);
}
);
layerId = "DC4431BF-9234-4C16-9154-22D387E42D10";
shapes = (
{
closed = 1;
nodes = (
(234,34,l),
(134,34,o),
(70,94,o),
(70,235,cs),
(70,409,ls),
(70,488,o),
(89,529,o),
(150,604,cs),
(288,772,l),
(257,796,l),
(122,634,ls),
(41,537,o),
(30,484,o),
(30,417,cs),
(30,235,ls),
(30,51,o),
(132,-6,o),
(234,-6,c)
);
},
{
closed = 1;
nodes = (
(181,564,l),
(153,527,l),
(153,524,l),
(303,524,ls),
(376,524,o),
(445,494,o),
(445,360,cs),
(445,235,ls),
(445,103,o),
(401,35,o),
(290,35,c),
(290,-5,l),
(403,-5,o),
(485,43,o),
(485,235,cs),
(485,361,ls),
(485,484,o),
(438,564,o),
(304,564,cs)
);
}
);
width = 515;
},
{
background = {
shapes = (
{
closed = 1;
nodes = (
(244,470,l),
(462,755,l),
(355,836,l),
(112,522,l)
);
}
);
};
layerId = "4EACF7E3-2421-4EEA-928B-7BA9BC4A845D";
shapes = (
{
closed = 1;
nodes = (
(244,139,l),
(189,139,o),
(170,167,o),
(170,235,cs),
(170,386,ls),
(170,447,o),
(181,459,o),
(223,516,cs),
(404,759,l),
(292,838,l),
(91,576,ls),
(41,511,o),
(30,466,o),
(30,395,cs),
(30,241,ls),
(30,57,o),
(142,-5,o),
(244,-5,c)
);
},
{
closed = 1;
nodes = (
(316,564,l),
(224,436,l),
(224,431,l),
(302,431,ls),
(375,431,o),
(375,400,o),
(375,327,cs),
(375,235,ls),
(375,167,o),
(361,139,o),
(300,139,c),
(300,-5,l),
(413,-4,o),
(515,42,o),
(515,214,cs),
(515,378,ls),
(515,491,o),
(468,564,o),
(358,564,cs)
);
}
);
width = 545;
},
{
associatedMasterId = "4EACF7E3-2421-4EEA-928B-7BA9BC4A845D";
layerId = "D9FCE886-75B2-4874-8E63-44356DFD303A";
name = "27 Jun 21, 13:17";
shapes = (
{
closed = 1;
nodes = (
(244,139,l),
(184,139,o),
(170,167,o),
(170,235,cs),
(170,418,ls),
(170,457,o),
(170,467,o),
(220,516,cs),
(463,757,l),
(320,793,l),
(91,576,ls),
(31,519,o),
(30,478,o),
(30,427,cs),
(30,241,ls),
(30,57,o),
(142,-6,o),
(244,-6,c)
);
},
{
closed = 1;
nodes = (
(342,564,l),
(215,436,l),
(215,431,l),
(300,431,ls),
(375,431,o),
(375,400,o),
(375,327,cs),
(375,235,ls),
(375,167,o),
(361,139,o),
(300,139,c),
(300,-5,l),
(413,-5,o),
(515,42,o),
(515,234,cs),
(515,368,ls),
(515,491,o),
(468,564,o),
(365,564,cs)
);
}
);
visible = 1;
width = 545;
},
{
associatedMasterId = "DC4431BF-9234-4C16-9154-22D387E42D10";
layerId = "68C1ACCD-0064-49CC-82AB-C0EFD3C664EF";
name = "27 Jun 21, 13:37";
shapes = (
{
closed = 1;
nodes = (
(234,34,l),
(134.222,34,o),
(70,94,o),
(70,235,cs),
(70,420,ls),
(70,487,o),
(72,539,o),
(147,599,cs),
(369,780,l),
(318,793,l),
(123,634.002,ls),
(31,559.142,o),
(30,478,o),
(30,427,cs),
(30,235,ls),
(30,51.175,o),
(131.578,-6,o),
(234,-6,c)
);
},
{
closed = 1;
nodes = (
(181,564,l),
(143,527,l),
(143,524,l),
(304,524,ls),
(375.742,524,o),
(445,493.865,o),
(445,360,cs),
(445,235,ls),
(445,102.591,o),
(400.586,35,o),
(290,35,c),
(290,-5,l),
(402.532,-5,o),
(485,42.845,o),
(485,235,cs),
(485,361,ls),
(485,484.189,o),
(437.509,563.953,o),
(305,563.981,cs)
);
}
);
width = 515;
}
);
unicode = 3515;
userData = {
com.fontlab.hintData = {
hhints = (
{
position = -6;
width = 145;
}
);
vhints = (
{
position = 30;
width = 140;
},
{
position = 375;
width = 140;
}
);
};
};
},
{
glyphname = sinLa;
layers = (
{
layerId = "DC4431BF-9234-4C16-9154-22D387E42D10";
shapes = (
{
closed = 1;
nodes = (
(270,-129,l),
(161,-129,o),
(73,-72,o),
(73,76,cs),
(73,326,ls),
(73,473,o),
(161,530,o),
(270,530,c),
(270,570,l),
(164,570,o),
(30,526,o),
(30,326,cs),
(30,76,ls),
(30,-125,o),
(164,-169,o),
(270,-169,c)
);
},
{
closed = 1;
nodes = (
(427,-169,o),
(519,-138,o),
(563,-11,c),
(524,0,l),
(491,-90,o),
(429,-129,o),
(330,-129,c),
(330,-169,l)
);
},
{
closed = 1;
nodes = (
(393,291,l),
(393,331,l),
(203,331,l),
(203,291,l)
);
},
{
closed = 1;
nodes = (
(497,95,o),
(576,149,o),
(576,263,cs),
(576,336,ls),
(576,546,o),
(439,570,o),
(330,570,c),
(330,530,l),
(443,530,o),
(534,493,o),
(534,336,cs),
(534,263,ls),
(534,178,o),
(475,138,o),
(419,138,cs),
(368,138,o),
(319,171,o),
(319,235,cs),
(319,300,l),
(276,300,l),
(276,235,ls),
(276,143,o),
(347,95,o),
(420,95,cs)
);
}
);
width = 606;
},
{
layerId = "4EACF7E3-2421-4EEA-928B-7BA9BC4A845D";
shapes = (
{
closed = 1;
nodes = (
(283,-31,l),
(218,-31,o),
(169,-2,o),
(169,74,cs),
(169,331,ls),
(169,406,o),
(218,435,o),
(283,435,c),
(283,575,l),
(168,575,o),
(30,531,o),
(31,331,cs),
(31,74,ls),
(31,-123,o),
(173,-171,o),
(283,-171,c)
);
},
{
closed = 1;
nodes = (
(443,-173,o),
(560,-140,o),
(589,-1,c),
(454,37,l),
(441,-13,o),
(398,-33,o),
(344,-33,c),
(344,-173,l)
);
},
{
closed = 1;
nodes = (
(418,251,l),
(418,365,l),
(206,365,l),
(206,251,l)
);
},
{
closed = 1;
nodes = (
(532,54,o),
(596,122,o),
(596,240,cs),
(596,331,ls),
(596,531,o),
(458,575,o),
(344,575,c),
(344,435,l),
(409,435,o),
(458,406,o),
(458,331,cs),
(458,240,ls),
(458,230,o),
(458,194,o),
(416,194,cs),
(383,194,o),
(376,216,o),
(376,235,cs),
(376,323,l),
(248,323,l),
(248,215,ls),
(248,184,o),
(248,54,o),
(413,54,cs)
);
}
);
width = 626;
}
);
unicode = 3517;
userData = {
com.fontlab.hintData = {
hhints = (
{
position = -169;
width = 40;
},
{
position = 290;
width = 40;
},
{
position = 290;
width = 9;
},
{
position = 530;
width = 40;
}
);
vhints = (
{
position = 30;
width = 43;
},
{
position = 276;
width = 43;
},
{
position = 534;
width = 42;
}
);
};
};
},
{
glyphname = sinVa;
layers = (
{
layerId = "DC4431BF-9234-4C16-9154-22D387E42D10";
shapes = (
{
closed = 1;
nodes = (
(455,0,o),
(521,84,o),
(521,241,cs),
(521,514,ls),
(521,671,o),
(455,755,o),
(296,755,c),
(296,715,l),
(409,715,o),
(480,662,o),
(480,514,cs),
(480,241,ls),
(480,95,o),
(409,40,o),
(296,40,c),
(296,0,l)
);
},
{
closed = 1;
nodes = (
(240,40,l),
(133,40,o),
(73,112,o),
(73,181,cs),
(73,286,o),
(127,309,o),
(265,309,cs),
(314,309,l),
(314,354,ls),
(314,438,o),
(245,479,o),
(178,479,cs),
(123,479,o),
(70,452,o),
(56,399,c),
(95,389,l),
(109,422,o),
(143,438,o),
(177,438,cs),
(225,438,o),
(274,408,o),
(274,349,c),
(179,349,o),
(113,342,o),
(70,296,cs),
(44,268,o),
(33,231,o),
(33,181,cs),
(33,86,o),
(121,0,o),
(240,0,c)
);
},
{
closed = 1;
nodes = (
(69,644,o),
(156,715,o),
(240,715,c),
(240,755,l),
(144,755,o),
(30,674,o),
(30,563,c),
(69,553,l)
);
}
);
width = 551;
},
{
layerId = "4EACF7E3-2421-4EEA-928B-7BA9BC4A845D";
shapes = (
{
closed = 1;
nodes = (
(458,-5,o),
(538,78,o),
(538,250,cs),
(538,520,ls),
(538,700,o),
(437,755,o),
(303,755,c),
(303,616,l),
(381,616,o),
(398,577,o),
(398,498,cs),
(398,250,ls),
(398,149,o),
(345,135,o),
(303,135,c),
(303,-5,l)
);
},
{
closed = 1;
nodes = (
(247,135,l),
(199,135,o),
(171,160,o),
(171,200,cs),
(171,252,o),
(220,252,o),
(230,252,cs),
(314,252,l),
(314,369,ls),
(314,450,o),
(252,502,o),
(170,502,cs),
(116,502,o),
(55,480,o),
(30,401,c),
(129,375,l),
(133,393,o),
(153,399,o),
(170,399,cs),
(194,399,o),
(211,388,o),
(211,369,c),
(159,369,o),
(124,357,o),
(91,333,cs),
(34,291,o),
(33,241,o),
(33,192,cs),
(33,87,o),
(120,-5,o),
(247,-5,c)
);
},
{
closed = 1;
nodes = (
(167,596,o),
(207,617,o),
(247,617,c),
(247,755,l),
(140,755,o),
(30,672,o),
(30,566,c),
(167,530,l)
);
}
);
width = 568;
}
);
unicode = 3520;
userData = {
com.fontlab.hintData = {
hhints = (
{
position = 0;
width = 40;
},
{
position = 309;
width = 40;
},
{
position = 715;
width = 40;
}
);
vhints = (
{
position = 33;
width = 40;
},
{
position = 274;
width = 40;
},
{
position = 480;
width = 41;
}
);
};
};
},
{
glyphname = sinSha;
layers = (
{
layerId = "DC4431BF-9234-4C16-9154-22D387E42D10";
shapes = (
{
closed = 1;
nodes = (
(30,216,ls),
(30,80,o),
(97,-8,o),
(216,-8,c),
(216,32,l),
(124,32,o),
(70,98,o),
(70,216,cs),
(70,340,ls),
(70,458,o),
(121,524,o),
(216,524,c),
(216,564,l),
(97,564,o),
(30,476,o),
(30,340,cs)
);
},
{
closed = 1;
nodes = (
(252,271,l),
(306,271,ls),
(391,271,o),
(399,200,o),
(399,152,cs),
(399,66,o),
(352,32,o),
(272,32,c),
(272,-8,l),
(372,-8,o),
(439,43,o),
(439,145,cs),
(439,164,ls),
(439,233,o),
(408,311,o),
(306,311,cs),
(293,311,l),
(293,361,ls),
(293,443,o),
(324,524,o),
(431,524,c),
(431,564,l),
(309,564,o),
(252,478,o),
(252,360,cs)
);
},
{
closed = 1;
nodes = (
(633,98,o),
(579,32,o),
(487,32,c),
(487,-8,l),
(606,-8,o),
(673,80,o),
(673,216,cs),
(673,340,ls),
(673,476,o),
(606,564,o),
(487,564,c),
(487,524,l),
(582,524,o),
(633,458,o),
(633,340,cs),
(633,216,ls)
);
},
{
closed = 1;
nodes = (
(438,124,l),
(438,157,o),
(447,235,o),
(545,235,cs),
(574,235,l),
(574,275,l),
(555,275,ls),
(385,275,o),
(401,138,o),
(401,124,c)
);
}
);
width = 703;
},
{
layerId = "4EACF7E3-2421-4EEA-928B-7BA9BC4A845D";
shapes = (
{
closed = 1;
nodes = (
(30,198,ls),
(30,82,o),
(88,-8,o),
(227,-8,c),
(227,135,l),
(175,135,o),
(171,174,o),
(171,198,cs),
(171,348,ls),
(171,376,o),
(175,421,o),
(227,421,c),
(227,564,l),
(88,564,o),
(30,474,o),
(30,358,cs)
);
},
{
closed = 1;
nodes = (
(254,241,l),
(288,241,ls),
(317,241,o),
(337,230,o),
(337,184,cs),
(337,170,o),
(335,135,o),
(283,135,c),
(283,-8,l),
(400,-8,o),
(461,48,o),
(461,176,cs),
(461,206,ls),
(461,276,o),
(436,331,o),
(389,331,cs),
(384,331,l),
(384,360,ls),
(384,394,o),
(390,421,o),
(434,421,c),
(434,564,l),
(290,564,o),
(254,468,o),
(254,350,cs)
);
},
{
closed = 1;
nodes = (
(546,174,o),
(542,135,o),
(490,135,c),
(490,-8,l),
(629,-8,o),
(687,82,o),
(687,198,cs),
(687,358,ls),
(687,474,o),
(629,564,o),
(490,564,c),
(490,421,l),
(542,421,o),
(546,376,o),
(546,348,cs),
(546,198,ls)
);
},
{
closed = 1;
nodes = (
(461,169,l),
(461,215,o),
(474,235,o),
(525,235,cs),
(546,235,l),
(546,338,l),
(525,338,ls),
(443,338,o),
(373,304,o),
(373,168,c)
);
}
);
width = 717;
}
);
unicode = 3521;
userData = {
com.fontlab.hintData = {
hhints = (
{
position = -8;
width = 40;
},
{
position = 271;
width = 40;
},
{
position = 524;
width = 40;
}
);
vhints = (
{
position = 30;
width = 40;
},
{
position = 252;
width = 41;
},
{
position = 399;
width = 40;
},
{
position = 633;
width = 40;
}
);
};
};
},
{
glyphname = sinSsa;
layers = (
{
layerId = "DC4431BF-9234-4C16-9154-22D387E42D10";
shapes = (
{
closed = 1;
nodes = (
(341,-6,ls),
(518,-6,o),
(590,50,o),
(590,193,c),
(550,193,l),
(550,62,o),
(474,34,o),
(341,34,cs),
(279,34,ls),
(146,34,o),
(70,61,o),
(70,193,c),
(30,193,l),
(30,50,o),
(102,-6,o),
(279,-6,cs)
);
},
{
closed = 1;
nodes = (
(70,242,l),
(70,308,o),
(86,362,o),
(195,362,cs),
(421,362,ls),
(530,362,o),
(550,320,o),
(550,242,c),
(590,242,l),
(590,368,o),
(527,402,o),
(419,402,cs),
(194,402,ls),
(97,402,o),
(30,364,o),
(30,242,c)
);
},
{
closed = 1;
nodes = (
(322,168,l),
(322,277,o),
(402,318,o),
(510,367,c),
(444,367,l),
(340,337,o),
(282,258,o),
(282,168,c)
);
},
{
closed = 1;
nodes = (
(330,379,l),
(330,415,ls),
(330,469,o),
(361,524,o),
(439,524,cs),
(502,524,o),
(537,500,o),
(550,464,c),
(589,477,l),
(563,542,o),
(503,564,o),
(439,564,cs),
(402,564,o),
(341,551,o),
(310,498,c),
(279,551,o),
(218,564,o),
(181,564,cs),
(117,564,o),
(57,542,o),
(31,477,c),
(70,464,l),
(83,500,o),
(118,524,o),
(181,524,cs),
(259,524,o),
(290,469,o),
(290,415,cs),
(290,379,l)
);
}
);
width = 620;
},
{
layerId = "4EACF7E3-2421-4EEA-928B-7BA9BC4A845D";
shapes = (
{
closed = 1;
nodes = (
(378,-12,ls),
(547,-12,o),
(630,64,o),
(630,202,c),
(490,202,l),
(490,151,o),
(451,123,o),
(386,123,cs),
(274,123,ls),
(211,123,o),
(170,149,o),
(170,202,c),
(30,202,l),
(30,59,o),
(108,-12,o),
(285,-12,cs)
);
},
{
closed = 1;
nodes = (
(170,251,l),
(170,264,o),
(172,288,o),
(205,288,cs),
(462,288,ls),
(491,288,o),
(491,265,o),
(491,251,c),
(630,251,l),
(630,381,o),
(567,407,o),
(459,407,cs),
(194,407,ls),
(97,407,o),
(31,377,o),
(31,251,c)
);
},
{
closed = 1;
nodes = (
(378,170,l),
(378,260,o),
(483,342,o),
(558,367,c),
(392,367,l),
(330,345,o),
(244,277,o),
(244,168,c)
);
},
{
closed = 1;
nodes = (
(396,378,l),
(396,397,ls),
(396,443,o),
(436,451,o),
(454,451,cs),
(478,451,o),
(494,436,o),
(498,421,c),
(616,460,l),
(592,537,o),
(524,575,o),
(453,575,cs),
(411,575,o),
(368,562,o),
(332,536,c),
(296,562,o),
(253,575,o),
(211,575,cs),
(140,575,o),
(72,537,o),
(48,460,c),
(166,421,l),
(170,436,o),
(186,451,o),
(210,451,cs),
(228,451,o),
(268,443,o),
(268,397,cs),
(268,378,l)
);
}
);
width = 660;
}
);
unicode = 3522;
},
{
glyphname = sinSa;
layers = (
{
layerId = "DC4431BF-9234-4C16-9154-22D387E42D10";
shapes = (
{
closed = 1;
nodes = (
(286,0,o),
(336,25,o),
(362,67,c),
(388,25,o),
(438,0,o),
(495,0,cs),
(579,0,o),
(647,56,o),
(647,140,cs),
(647,193,l),
(607,193,l),
(607,141,ls),
(607,74,o),
(558,40,o),
(495,40,cs),
(431,40,o),
(382,74,o),
(382,141,cs),
(382,193,l),
(342,193,l),
(342,141,ls),
(342,74,o),
(293,40,o),
(229,40,cs),
(166,40,o),
(117,74,o),
(117,141,cs),
(117,193,l),
(77,193,l),
(77,140,ls),
(77,56,o),
(145,0,o),
(229,0,cs)
);
},
{
closed = 1;
nodes = (
(117,242,l),
(117,288,ls),
(117,355,o),
(156,362,o),
(192,362,cs),
(532,362,ls),
(568,362,o),
(607,355,o),
(607,288,cs),
(607,242,l),
(647,242,l),
(647,288,ls),
(647,337,o),
(642,402,o),
(531,402,cs),
(30,402,l),
(30,362,l),
(105,362,l),
(84,351,o),
(77,320,o),
(77,288,cs),
(77,242,l)
);
},
{
closed = 1;
nodes = (
(383,379,l),
(383,415,ls),
(383,469,o),
(414,524,o),
(492,524,cs),
(555,524,o),
(590,500,o),
(603,464,c),
(642,477,l),
(616,542,o),
(556,564,o),
(492,564,cs),
(455,564,o),
(394,551,o),
(363,498,c),
(332,551,o),
(271,564,o),
(234,564,cs),
(170,564,o),
(110,542,o),
(84,477,c),
(123,464,l),
(136,500,o),
(171,524,o),
(234,524,cs),
(312,524,o),
(343,469,o),
(343,415,cs),
(343,379,l)
);
}
);
width = 677;
},
{
layerId = "4EACF7E3-2421-4EEA-928B-7BA9BC4A845D";
shapes = (
{
closed = 1;
nodes = (
(292,-8,o),
(330,4,o),
(359,36,c),
(389,4,o),
(431,-8,o),
(479,-8,cs),
(584,-8,o),
(657,50,o),
(657,160,cs),
(657,202,l),
(518,202,l),
(518,171,ls),
(518,145,o),
(495,131,o),
(472,131,cs),
(449,131,o),
(426,145,o),
(426,173,cs),
(426,202,l),
(298,202,l),
(298,173,ls),
(298,145,o),
(275,131,o),
(252,131,cs),
(229,131,o),
(206,145,o),
(206,171,cs),
(206,202,l),
(67,202,l),
(67,160,ls),
(67,58,o),
(142,-8,o),
(247,-8,cs)
);
},
{
closed = 1;
nodes = (
(206,251,l),
(206,252,ls),
(206,272,o),
(224,283,o),
(246,283,cs),
(481,283,ls),
(503,283,o),
(518,273,o),
(518,252,cs),
(518,251,l),
(657,251,l),
(657,279,ls),
(657,392,o),
(565,402,o),
(503,402,cs),
(30,402,l),
(30,283,l),
(75,283,l),
(71,281,o),
(67,274,o),
(67,261,cs),
(67,251,l)
);
},
{
closed = 1;
nodes = (
(426,378,l),
(426,397,ls),
(426,443,o),
(466,451,o),
(484,451,cs),
(508,451,o),
(524,436,o),
(528,421,c),
(646,460,l),
(622,537,o),
(554,575,o),
(483,575,cs),
(441,575,o),
(398,562,o),
(362,536,c),
(326,562,o),
(283,575,o),
(241,575,cs),
(170,575,o),
(102,537,o),
(78,460,c),
(196,421,l),
(200,436,o),
(216,451,o),
(240,451,cs),
(258,451,o),
(298,443,o),
(298,397,cs),
(298,378,l)
);
}
);
width = 687;
}
);
unicode = 3523;
userData = {
com.fontlab.hintData = {
hhints = (
{
position = 0;
width = 40;
},
{
position = 362;
width = 40;
},
{
position = 523;
width = 40;
}
);
vhints = (
{
position = 77;
width = 40;
},
{
position = 342;
width = 40;
},
{
position = 607;
width = 40;
}
);
};
};
},
{
glyphname = sinHa;
layers = (
{
layerId = "DC4431BF-9234-4C16-9154-22D387E42D10";
shapes = (
{
closed = 1;
nodes = (
(216,32,l),
(124,32,o),
(70,98,o),
(70,196,cs),
(70,250,ls),
(70,358,o),
(121,394,o),
(216,394,cs),
(295,394,l),
(295,439,ls),
(295,523,o),
(226,564,o),
(159,564,cs),
(104,564,o),
(51,537,o),
(37,484,c),
(76,474,l),
(90,507,o),
(124,523,o),
(158,523,cs),
(206,523,o),
(255,493,o),
(255,434,c),
(215,434,ls),
(85,434,o),
(30,374,o),
(30,250,cs),
(30,196,ls),
(30,80,o),
(97,-8,o),
(216,-8,c)
);
},
{
closed = 1;
nodes = (
(372,-8,o),
(439,43,o),
(439,145,cs),
(439,164,ls),
(439,233,o),
(408,311,o),
(293,311,c),
(293,361,ls),
(293,443,o),
(324,524,o),
(431,524,c),
(431,564,l),
(309,564,o),
(252,478.007,o),
(252,360,cs),
(252,271,l),
(306,271,ls),
(391,271,o),
(399,200,o),
(399,152,cs),
(399,66,o),
(352,32,o),
(272,32,c),
(272,-8,l)
);
},
{
closed = 1;
nodes = (
(606,-8,o),
(673,80,o),
(673,216,cs),
(673,340,ls),
(673,476,o),
(606,564,o),
(487,564,c),
(487,524,l),
(582,524,o),
(633,458,o),
(633,340,cs),
(633,216,ls),
(633,98,o),
(579,32,o),
(487,32,c),
(487,-8,l)
);
}
);
width = 703;
},
{
layerId = "4EACF7E3-2421-4EEA-928B-7BA9BC4A845D";
shapes = (
{
closed = 1;
nodes = (
(227,135,l),
(164,135,o),
(160,174,o),
(160,198,cs),
(160,228,ls),
(160,248,o),
(164,281,o),
(227,281,cs),
(316,281,l),
(316,433,ls),
(316,516,o),
(245,564,o),
(173,564,cs),
(114,564,o),
(55,532,o),
(32,463,c),
(131,437,l),
(135,454,o),
(152,462,o),
(170,462,cs),
(201,462,o),
(213,442,o),
(213,417,c),
(199,417,ls),
(95,417,o),
(30,333,o),
(30,238,cs),
(30,198,ls),
(30,82,o),
(88,-8,o),
(227,-8,c)
);
},
{
closed = 1;
nodes = (
(399,-8,o),
(460,45,o),
(460,166,cs),
(460,216,ls),
(460,305,o),
(425,339,o),
(392,344,c),
(392,353,ls),
(392,382,o),
(391,421,o),
(433,421,c),
(433,564,l),
(289,564,o),
(253,468.007,o),
(253,350,cs),
(253,241,l),
(287,241,ls),
(335,239,o),
(336,205,o),
(336,188,cs),
(336,171,o),
(335,135,o),
(282,135,c),
(282,-8,l)
);
},
{
closed = 1;
nodes = (
(628,-8,o),
(686,82,o),
(686,198,cs),
(686,358,ls),
(686,474,o),
(628,564,o),
(489,564,c),
(489,421,l),
(541,421,o),
(545,376,o),
(545,348,cs),
(545,198,ls),
(545,174,o),
(541,135,o),
(489,135,c),
(489,-8,l)
);
}
);
width = 716;
}
);
unicode = 3524;
userData = {
com.fontlab.hintData = {
hhints = (
{
position = -8;
width = 40;
},
{
position = 271;
width = 40;
},
{
position = 394;
width = 40;
},
{
position = 524;
width = 40;
}
);
vhints = (
{
position = 30;
width = 40;
},
{
position = 210;
width = 6;
},
{
position = 252;
width = 41;
},
{
position = 399;
width = 40;
},
{
position = 633;
width = 40;
}
);
};
};
},
{
glyphname = sinLla;
layers = (
{
layerId = "DC4431BF-9234-4C16-9154-22D387E42D10";
shapes = (
{
closed = 1;
nodes = (
(283,-129,l),
(184,-129,o),
(72,-85,o),
(72,77,cs),
(71.996,195,ls),
(72,297,o),
(149,348,o),
(218,348,cs),
(540,348,l),
(540,388,l),
(215,388,ls),
(132,388,o),
(30,322,o),
(30,194,cs),
(30,77,ls),
(30,-90,o),
(132,-170,o),
(283,-170,c)
);
},
{
closed = 1;
nodes = (
(443,-170,o),
(560,-140,o),
(589,-1,c),
(549,10,l),
(523,-102,o),
(436,-130,o),
(344,-130,c),
(344,-170,l)
);
},
{
closed = 1;
nodes = (
(463,99,o),
(515,146,o),
(540,205,c),
(499,216,l),
(478,168,o),
(432,139,o),
(367,139,cs),
(315,139,ls),
(160,139,o),
(156,302,o),
(156,349,c),
(115,323,l),
(112,227,o),
(163,99,o),
(315,99,cs),
(367,99,ls)
);
},
{
closed = 1;
nodes = (
(148,425,l),
(148,496,o),
(178,522,o),
(228,522,cs),
(270,522,o),
(305,492,o),
(305,436,c),
(345,436,l),
(345,492,o),
(380,522,o),
(421,522,cs),
(468,522,o),
(500,496,o),
(500,437,c),
(540,437,l),
(540,519,o),
(496,564,o),
(418,564,cs),
(388,564,o),
(347,551,o),
(325,516,c),
(302,551,o),
(261,564,o),
(232,564,cs),
(156,564,o),
(108,519,o),
(108,437,cs),
(108,415,l)
);
}
);
width = 609;
},
{
layerId = "4EACF7E3-2421-4EEA-928B-7BA9BC4A845D";
shapes = (
{
closed = 1;
nodes = (
(283,-30,l),
(210,-30,o),
(169,3,o),
(169,75,cs),
(168.996,146,ls),
(169,228,o),
(203,256,o),
(248,256,cs),
(541,256,l),
(541,388,l),
(216,388,ls),
(133,388,o),
(30,322,o),
(30,194,cs),
(30,77,ls),
(30,-90,o),
(132,-170,o),
(283,-170,c)
);
},
{
closed = 1;
nodes = (
(443,-170,o),
(560,-137,o),
(589,2,c),
(454,40,l),
(441,-10,o),
(398,-30,o),
(344,-30,c),
(344,-170,l)
);
},
{
closed = 1;
nodes = (
(407,67,o),
(499,82,o),
(542,193,c),
(429,222,l),
(419,201,o),
(390,185,o),
(354,185,cs),
(334,185,ls),
(309,185,o),
(235,196,o),
(235,301,c),
(144,216,l),
(144,142,o),
(217,67,o),
(325,67,cs),
(358,67,ls)
);
},
{
closed = 1;
nodes = (
(231,435,l),
(231,449,o),
(237,465,o),
(259,465,cs),
(281,465,o),
(285,451,o),
(286,437,c),
(371,437,l),
(371,450,o),
(379,464,o),
(397,464,cs),
(413,464,o),
(424,454,o),
(424,437,c),
(540,437,l),
(540,517,o),
(489,575,o),
(404,575,cs),
(379,575,o),
(350,570,o),
(330,548,c),
(311,565,o),
(286,575,o),
(250,575,cs),
(170,575,o),
(115,525,o),
(115,446,cs),
(115,421,l)
);
}
);
width = 609;
}
);
unicode = 3525;
},
{
glyphname = sinFa;
layers = (
{
layerId = "DC4431BF-9234-4C16-9154-22D387E42D10";
shapes = (
{
closed = 1;
nodes = (
(70,242,l),
(70,423,ls),
(70,490,o),
(119,524,o),
(182,524,cs),
(246,524,o),
(295,490,o),
(295,423,cs),
(295,242,l),
(335,242,l),
(335,423,ls),
(335,490,o),
(384,524,o),
(448,524,cs),
(511,524,o),
(560,490,o),
(560,423,cs),
(560,242,l),
(600,242,l),
(600,424,ls),
(600,508,o),
(532,564,o),
(448,564,cs),
(391,564,o),
(341,539,o),
(315,497,c),
(289,539,o),
(239,564,o),
(182,564,cs),
(98,564,o),
(30,508,o),
(30,424,cs),
(30,242,l)
);
},
{
closed = 1;
nodes = (
(225,40,l),
(103,40,o),
(70,128,o),
(70,192,c),
(30,192,l),
(30,92,o),
(86,0,o),
(225,0,c)
);
},
{
closed = 1;
nodes = (
(544,0,o),
(600,92,o),
(600,192,c),
(560,192,l),
(560,128,o),
(527,40,o),
(405,40,c),
(405,0,l)
);
}
);
width = 630;
},
{
layerId = "4EACF7E3-2421-4EEA-928B-7BA9BC4A845D";
shapes = (
{
closed = 1;
nodes = (
(169,251,l),
(169,385,ls),
(169,411,o),
(192,425,o),
(215,425,cs),
(238,425,o),
(261,411,o),
(261,383,cs),
(261,251,l),
(389,251,l),
(389,383,ls),
(389,411,o),
(412,425,o),
(435,425,cs),
(458,425,o),
(481,411,o),
(481,385,cs),
(481,251,l),
(620,251,l),
(620,396,ls),
(620,498,o),
(545,564,o),
(440,564,cs),
(395,564,o),
(357,552,o),
(328,520,c),
(298,552,o),
(256,564,o),
(208,564,cs),
(103,564,o),
(30,506,o),
(30,396,cs),
(30,251,l)
);
},
{
closed = 1;
nodes = (
(225,143,l),
(173,143,o),
(169,178,o),
(169,202,c),
(30,202,l),
(30,86,o),
(86,0,o),
(225,0,c)
);
},
{
closed = 1;
nodes = (
(564,0,o),
(620,86,o),
(620,202,c),
(481,202,l),
(481,178,o),
(477,143,o),
(425,143,c),
(425,0,l)
);
}
);
width = 650;
}
);
unicode = 3526;
userData = {
com.fontlab.hintData = {
hhints = (
{
position = 0;
width = 143;
},
{
position = 425;
width = 139;
}
);
vhints = (
{
position = 30;
width = 139;
},
{
position = 261;
width = 128;
},
{
position = 481;
width = 139;
}
);
};
};
},
{
glyphname = sinKSsa;
layers = (
{
layerId = "DC4431BF-9234-4C16-9154-22D387E42D10";
shapes = (
{
closed = 1;
nodes = (
(124,565,o),
(64,533,o),
(33,452,c),
(72,440,l),
(95,498,o),
(139,521,o),
(181,521,cs),
(230,521,o),
(276,491,o),
(289,445,c),
(320,473,l),
(305,527,o),
(245,565,o),
(182,565,cs)
);
},
{
closed = 1;
nodes = (
(69,225,l),
(282,409,ls),
(381,495,o),
(496,531,o),
(594,531,cs),
(720,531,o),
(819,472,o),
(825,379,c),
(865,379,l),
(859,510,o),
(738,575,o),
(597,575,cs),
(489,575,o),
(370,537,o),
(282,462,cs),
(30,246,l),
(30,196,l)
);
},
{
closed = 1;
nodes = (
(217,-5,o),
(250,8,o),
(276,36,c),
(306,10,o),
(345,-4,o),
(382,-4,cs),
(445,-4,o),
(503,35,o),
(503,114,cs),
(503,240,ls),
(503,362,o),
(441,391,o),
(365,403,c),
(327,370,l),
(426,355,o),
(463,331,o),
(463.004,240,cs),
(463,114,ls),
(463,65,o),
(418,38,o),
(375,38,cs),
(335,38,o),
(296,61,o),
(296,114,cs),
(296,192,l),
(256,192,l),
(256,114,ls),
(256,61,o),
(221,38,o),
(185,38,cs),
(146,38,o),
(106,65,o),
(106,114,cs),
(106,166,ls),
(106,185,o),
(100,237,o),
(30,246,c),
(30,196,l),
(34,197,o),
(41,199,o),
(44,199,cs),
(64,199,o),
(65,168,o),
(65,146,cs),
(65.003,114,ls),
(65,39,o),
(123,-5,o),
(184,-5,cs)
);
},
{
closed = 1;
nodes = (
(632,402,o),
(565,364,o),
(565,242,c),
(605,242,l),
(605,308,o),
(621,362,o),
(730,362,cs),
(956,362,ls),
(1065,362,o),
(1085,320,o),
(1085,242,c),
(1125,242,l),
(1125,368,o),
(1062,402,o),
(954,402,cs),
(729,402,ls)
);
},
{
closed = 1;
nodes = (
(876,-6,ls),
(1053,-6,o),
(1125,50,o),
(1125,193,c),
(1085,193,l),
(1085,62,o),
(1009,34,o),
(876,34,cs),
(814,34,ls),
(681,34,o),
(605,61,o),
(605,193,c),
(565,193,l),
(565,50,o),
(637,-6,o),
(814,-6,cs)
);
},
{
closed = 1;
nodes = (
(923,564,o),
(825,539,o),
(825,415,cs),
(825,379,l),
(865,379,l),
(865,415,ls),
(865,469,o),
(896,524,o),
(974,524,cs),
(1037,524,o),
(1072,500,o),
(1085,464,c),
(1124,477,l),
(1098,542,o),
(1038,564,o),
(974,564,cs)
);
},
{
closed = 1;
nodes = (
(857,168,l),
(857,277,o),
(937,318,o),
(1045,367,c),
(979,367,l),
(875,337,o),
(817,258,o),
(817,168,c)
);
}
);
width = 1155;
},
{
layerId = "4EACF7E3-2421-4EEA-928B-7BA9BC4A845D";
shapes = (
{
closed = 1;
nodes = (
(136,567,o),
(44,537,o),
(30,439,c),
(147,402,l),
(147,425,o),
(167,446,o),
(196,446,cs),
(216,446,o),
(245,436,o),
(245,402,c),
(337,502,l),
(319,535,o),
(267,567,o),
(200,567,cs)
);
},
{
closed = 1;
nodes = (
(155,181,l),
(396,376,ls),
(478,442,o),
(563,465,o),
(638,465,cs),
(720,465,o),
(786,437,o),
(812,405,c),
(909,494,l),
(869,556,o),
(761,598,o),
(636,598,cs),
(527,598,o),
(405,566,o),
(306,485,cs),
(30,259,l),
(30,160,l)
);
},
{
closed = 1;
nodes = (
(237,-7,o),
(270,6,o),
(290,36,c),
(314,6,o),
(349,-7,o),
(385,-7,cs),
(455,-7,o),
(529,47,o),
(529,136,cs),
(529,218,ls),
(529,280,o),
(512,327,o),
(448,354,c),
(351,276,l),
(394,259,o),
(400,233,o),
(400,202,cs),
(400,162,ls),
(400,142,o),
(385,132,o),
(370,132,cs),
(355,132,o),
(340,142,o),
(340,162,cs),
(340,202,l),
(240,202,l),
(240,160,ls),
(240,141,o),
(225,132,o),
(211,132,cs),
(196,132,o),
(181,141,o),
(181,160,cs),
(181,202,ls),
(181,221,o),
(166,239,o),
(147,255,c),
(30,160,l),
(34,161,o),
(38,162,o),
(43,162,cs),
(65,162,o),
(65,139,o),
(65,122,cs),
(65,106,ls),
(65,42,o),
(137,-7,o),
(203,-7,cs)
);
},
{
closed = 1;
nodes = (
(641,407,o),
(575,377,o),
(575,251,c),
(714,251,l),
(714,264,o),
(716,288,o),
(749,288,cs),
(1006,288,ls),
(1035,288,o),
(1035,265,o),
(1035,251,c),
(1174,251,l),
(1174,381,o),
(1111,407,o),
(1003,407,cs),
(738,407,ls)
);
},
{
closed = 1;
nodes = (
(922,-12,ls),
(1091,-12,o),
(1174,64,o),
(1174,202,c),
(1034,202,l),
(1034,151,o),
(995,123,o),
(930,123,cs),
(818,123,ls),
(755,123,o),
(714,149,o),
(714,202,c),
(574,202,l),
(574,59,o),
(652,-12,o),
(829,-12,cs)
);
},
{
closed = 1;
nodes = (
(955,575,o),
(812,567,o),
(812,397,cs),
(812,378,l),
(940,378,l),
(940,397,ls),
(940,443,o),
(980,451,o),
(998,451,cs),
(1022,451,o),
(1038,436,o),
(1042,421,c),
(1160,460,l),
(1136,535,o),
(1074,575,o),
(992,575,cs)
);
},
{
closed = 1;
nodes = (
(922,170,l),
(922,260,o),
(1027,342,o),
(1102,367,c),
(936,367,l),
(874,345,o),
(788,277,o),
(788,168,c)
);
}
);
width = 1204;
}
);
},
{
glyphname = sinKVa;
layers = (
{
layerId = "DC4431BF-9234-4C16-9154-22D387E42D10";
shapes = (
{
closed = 1;
nodes = (
(124,565,o),
(64,533,o),
(33,452,c),
(72,440,l),
(95,498,o),
(139,521,o),
(181,521,cs),
(230,521,o),
(276,491,o),
(289,445,c),
(320,473,l),
(305,527,o),
(245,565,o),
(182,565,cs)
);
},
{
closed = 1;
nodes = (
(217,-5,o),
(250,8,o),
(276,36,c),
(306,10,o),
(345,-4,o),
(382,-4,cs),
(445,-4,o),
(503,35,o),
(503,114,cs),
(503,240,ls),
(503,362,o),
(441,391,o),
(365,403,c),
(327,370,l),
(426,355,o),
(463,331,o),
(463.004,240,cs),
(463,114,ls),
(463,65,o),
(418,38,o),
(375,38,cs),
(335,38,o),
(296,61,o),
(296,114,cs),
(296,192,l),
(256,192,l),
(256,114,ls),
(256,61,o),
(221,38,o),
(185,38,cs),
(146,38,o),
(106,65,o),
(106,114,cs),
(106,166,ls),
(106,185,o),
(100,237,o),
(30,246,c),
(30,196,l),
(34,197,o),
(41,199,o),
(44,199,cs),
(64,199,o),
(65,168,o),
(65,146,cs),
(65.003,114,ls),
(65,39,o),
(123,-5,o),
(184,-5,cs)
);
},
{
closed = 1;
nodes = (
(573,86,o),
(661,0,o),
(780,0,c),
(780,40,l),
(673,40,o),
(613,112,o),
(613,181,cs),
(613,286,o),
(667,309,o),
(805,309,cs),
(854,309,l),
(854,350,ls),
(854,483,o),
(716,567,o),
(561,567,cs),
(469,567,o),
(372,537,o),
(294,471,cs),
(30,246,l),
(30,196,l),
(69,225,l),
(323,443,ls),
(390,501,o),
(473,525,o),
(551,525,cs),
(689,525,o),
(813,449,o),
(813,349,c),
(718,349,o),
(653,342,o),
(610,296,cs),
(584,268,o),
(573,231,o),
(573,181,cs)
);
},
{
closed = 1;
nodes = (
(1020,241,ls),
(1020,95,o),
(949,40,o),
(836,40,c),
(836,0,l),
(995,0,o),
(1061,84,o),
(1061,241,cs),
(1061,514,ls),
(1061,671,o),
(995,755,o),
(836,755,c),
(836,715,l),
(949,715,o),
(1020,662,o),
(1020,514,cs)
);
},
{
closed = 1;
nodes = (
(709,755,o),
(629,711,o),
(592,644,c),
(631,630,l),
(662,681,o),
(722,715,o),
(780,715,c),
(780,755,l)
);
}
);
width = 1091;
},
{
layerId = "4EACF7E3-2421-4EEA-928B-7BA9BC4A845D";
shapes = (
{
closed = 1;
nodes = (
(136,567,o),
(44,537,o),
(30,439,c),
(147,402,l),
(147,425,o),
(167,446,o),
(196,446,cs),
(216,446,o),
(245,436,o),
(245,402,c),
(337,502,l),
(319,535,o),
(267,567,o),
(200,567,cs)
);
},
{
closed = 1;
nodes = (
(237,-7,o),
(270,6,o),
(290,36,c),
(314,6,o),
(349,-7,o),
(385,-7,cs),
(455,-7,o),
(529,47,o),
(529,136,cs),
(529,218,ls),
(529,280,o),
(512,327,o),
(448,354,c),
(351,276,l),
(394,259,o),
(400,233,o),
(400,202,cs),
(400,162,ls),
(400,142,o),
(385,132,o),
(370,132,cs),
(355,132,o),
(340,142,o),
(340,162,cs),
(340,202,l),
(240,202,l),
(240,160,ls),
(240,141,o),
(225,132,o),
(211,132,cs),
(196,132,o),
(181,141,o),
(181,160,cs),
(181,202,ls),
(181,221,o),
(166,239,o),
(147,255,c),
(30,160,l),
(34,161,o),
(38,162,o),
(43,162,cs),
(65,162,o),
(65,139,o),
(65,122,cs),
(65,106,ls),
(65,42,o),
(137,-7,o),
(203,-7,cs)
);
},
{
closed = 1;
nodes = (
(573,85,o),
(660,-5,o),
(787,-5,c),
(787,135,l),
(739,135,o),
(711,160,o),
(711,200,cs),
(711,252,o),
(760,252,o),
(770,252,cs),
(854,252,l),
(854,369,l),
(843,516,o),
(712,589,o),
(572,589,cs),
(488,589,o),
(401,563,o),
(335,509,cs),
(30,259,l),
(30,160,l),
(155,181,l),
(425,400,ls),
(464,433,o),
(513,451,o),
(564,451,cs),
(636,451,o),
(699,416,o),
(715,369,c),
(661,361,o),
(626,338,o),
(604,307,cs),
(582,275,o),
(573,233,o),
(573,197,cs)
);
},
{
closed = 1;
nodes = (
(938,250,ls),
(938,149,o),
(885,135,o),
(843,135,c),
(843,-5,l),
(998,-5,o),
(1078,78,o),
(1078,250,cs),
(1078,520,ls),
(1078,700,o),
(977,755,o),
(843,755,c),
(843,616,l),
(921,616,o),
(938,577,o),
(938,498,cs)
);
},
{
closed = 1;
nodes = (
(711,755,o),
(633,713,o),
(595,650,c),
(739,603,l),
(753,613,o),
(770,617,o),
(787,617,c),
(787,755,l)
);
}
);
width = 1108;
}
);
userData = {
com.fontlab.hintData = {
hhints = (
{
position = -5;
width = 140;
},
{
position = 399;
width = 102;
},
{
position = 616;
width = 138;
}
);
vhints = (
{
position = 33;
width = 138;
},
{
position = 398;
width = 140;
}
);
};
};
},
{
glyphname = sinTVa;
layers = (
{
layerId = "DC4431BF-9234-4C16-9154-22D387E42D10";
shapes = (
{
closed = 1;
nodes = (
(759,40,l),
(652,40,o),
(592,112,o),
(592,181,cs),
(592,286,o),
(646,309,o),
(784,309,cs),
(833,309,l),
(833,354,ls),
(833,488,o),
(685,565,o),
(537,565,cs),
(457,565,o),
(377,543,o),
(320,494,cs),
(30,246,l),
(30,196,l),
(69,225,l),
(349,466,ls),
(397,508,o),
(466,527,o),
(535,527,cs),
(663,527,o),
(793,460,o),
(793,349,c),
(698,349,o),
(632,342,o),
(589,296,cs),
(563,268,o),
(552,231,o),
(552,181,cs),
(552,86,o),
(640,0,o),
(759,0,c)
);
},
{
closed = 1;
nodes = (
(446,-4,o),
(508,81,o),
(508,189,cs),
(508,280,o),
(494,373,o),
(362,403,c),
(325,371,l),
(460,342,o),
(468,275,o),
(468,189,cs),
(468,105,o),
(417,36,o),
(314,36,cs),
(100,36,o),
(149,235,o),
(61,235,cs),
(58,235,o),
(54,235,o),
(50,234,c),
(30,196,l),
(34,197,o),
(38,198,o),
(43,198,cs),
(61,198,o),
(72,186,o),
(82,167,cs),
(112,111,o),
(132,-4,o),
(314,-4,cs)
);
},
{
closed = 1;
nodes = (
(127,498,o),
(171,521,o),
(213,521,cs),
(262,521,o),
(308,491,o),
(321,445,c),
(352,473,l),
(337,527,o),
(277,565,o),
(214,565,cs),
(156,565,o),
(96,533,o),
(65,452,c),
(104,440,l)
);
},
{
closed = 1;
nodes = (
(974,0,o),
(1040,84,o),
(1040,241,cs),
(1040,514,ls),
(1040,671,o),
(974,755,o),
(815,755,c),
(815,715,l),
(928,715,o),
(999,662,o),
(999,514,cs),
(999,241,ls),
(999,95,o),
(928,40,o),
(815,40,c),
(815,0,l)
);
},
{
closed = 1;
nodes = (
(641,681,o),
(701,715,o),
(759,715,c),
(759,755,l),
(688,755,o),
(608,711,o),
(571,644,c),
(610,630,l)
);
}
);
width = 1070;
},
{
layerId = "4EACF7E3-2421-4EEA-928B-7BA9BC4A845D";
shapes = (
{
closed = 1;
nodes = (
(761,135,l),
(713,135,o),
(685,160,o),
(685,200,cs),
(685,252,o),
(734,252,o),
(744,252,cs),
(828,252,l),
(828,339,ls),
(828,492,o),
(694,573,o),
(549,573,cs),
(474,573,o),
(391,551,o),
(324,498,cs),
(30,259,l),
(30,154,l),
(155,188,l),
(391,373,ls),
(441,412,o),
(506,440,o),
(565,440,cs),
(615,440,o),
(661,420,o),
(686,369,c),
(631,360,o),
(593,335,o),
(572,300,cs),
(552,267,o),
(547,224,o),
(547,196,cs),
(547,80,o),
(634,-5,o),
(761,-5,c)
);
},
{
closed = 1;
nodes = (
(413,-8,o),
(504,70,o),
(504,191,cs),
(504,238,o),
(490,308,o),
(421,338,c),
(324,260,l),
(360,245,o),
(373,221,o),
(373,196,cs),
(373,153,o),
(334,127,o),
(292,127,cs),
(199,127,o),
(202,255,o),
(111,255,cs),
(100,255,o),
(88,253,o),
(74,249,c),
(30,154,l),
(36,155,o),
(42,156,o),
(47,156,cs),
(79,156,o),
(93,127,o),
(111,101,cs),
(163,25,o),
(231,-8,o),
(303,-8,cs)
);
},
{
closed = 1;
nodes = (
(154,425,o),
(174,446,o),
(203,446,cs),
(223,446,o),
(252,436,o),
(252,402,c),
(336,506,l),
(336,522,o),
(275,567,o),
(203,567,cs),
(144,567,o),
(51,537,o),
(37,439,c),
(154,402,l)
);
},
{
closed = 1;
nodes = (
(972,-5,o),
(1052,78,o),
(1052,250,cs),
(1052,520,ls),
(1052,700,o),
(951,755,o),
(817,755,c),
(817,616,l),
(895,616,o),
(912,577,o),
(912,498,cs),
(912,250,ls),
(912,149,o),
(859,135,o),
(817,135,c),
(817,-5,l)
);
},
{
closed = 1;
nodes = (
(727,613,o),
(744,617,o),
(761,617,c),
(761,755,l),
(685,755,o),
(607,713,o),
(569,650,c),
(713,603,l)
);
}
);
width = 1082;
}
);
userData = {
com.fontlab.hintData = {
hhints = (
{
position = -8;
width = 138;
},
{
position = 435;
width = 140;
},
{
position = 446;
width = 121;
}
);
vhints = (
{
position = 632;
width = 140;
}
);
};
};
},
{
glyphname = sinTTha;
layers = (
{
layerId = "DC4431BF-9234-4C16-9154-22D387E42D10";
shapes = (
{
closed = 1;
nodes = (
(127,498,o),
(171,521,o),
(213,521,cs),
(262,521,o),
(308,491,o),
(321,445,c),
(352,473,l),
(337,527,o),
(277,565,o),
(214,565,cs),
(156,565,o),
(96,533,o),
(65,452,c),
(104,440,l)
);
},
{
closed = 1;
nodes = (
(446,-4,o),
(508,81,o),
(508,189,cs),
(508,280,o),
(494,373,o),
(362,403,c),
(325,371,l),
(460,342,o),
(468,275,o),
(468,189,cs),
(468,105,o),
(417,36,o),
(314,36,cs),
(100,36,o),
(149,235,o),
(61,235,cs),
(58,235,o),
(54,235,o),
(50,234,c),
(30,196,l),
(34,197,o),
(38,198,o),
(43,198,cs),
(56,198,o),
(65,191,o),
(73,181,cs),
(110,132,o),
(116,-4,o),
(314,-4,cs)
);
},
{
closed = 1;
nodes = (
(69,225,l),
(349,466,ls),
(401,509,o),
(464,528,o),
(523,528,cs),
(605,528,o),
(681,491,o),
(710,430,c),
(750,430,l),
(721,521,o),
(632,568,o),
(532,568,cs),
(461,568,o),
(384,544,o),
(320,494,c),
(30,246,l),
(30,196,l)
);
},
{
closed = 1;
nodes = (
(750,40,l),
(649,40,o),
(588,112,o),
(588,200,cs),
(588,270,ls),
(588,354,o),
(635,430,o),
(739,430,cs),
(750,430,l),
(720,469,l),
(585,455,o),
(547,349,o),
(547,270,cs),
(547,200,ls),
(547,116,o),
(601,0,o),
(750,0,c)
);
},
{
closed = 1;
nodes = (
(965,0,o),
(1031,84,o),
(1031,241,c),
(989,241,l),
(989,95,o),
(919,40,o),
(806,40,c),
(806,0,l)
);
},
{
closed = 1;
nodes = (
(764,755,l),
(764,637,ls),
(764,541,o),
(817,464,o),
(934,464,c),
(934,504,l),
(871,504,o),
(804,537,o),
(804,637,cs),
(804,715,l),
(806,715,ls),
(942,715,o),
(989,643,o),
(989,498,cs),
(989,235,l),
(1031,235,l),
(1031,517,ls),
(1031,700,o),
(934,755,o),
(804,755,cs)
);
}
);
width = 1061;
},
{
layerId = "4EACF7E3-2421-4EEA-928B-7BA9BC4A845D";
shapes = (
{
closed = 1;
nodes = (
(154,425,o),
(174,446,o),
(203,446,cs),
(223,446,o),
(252,436,o),
(252,402,c),
(344,507,l),
(337,524,o),
(274,567,o),
(205,567,cs),
(144,567,o),
(51,537,o),
(37,439,c),
(154,402,l)
);
},
{
closed = 1;
nodes = (
(413,-8,o),
(504,70,o),
(504,191,cs),
(504,238,o),
(490,308,o),
(421,338,c),
(324,260,l),
(360,245,o),
(373,221,o),
(373,196,cs),
(373,153,o),
(334,127,o),
(292,127,cs),
(199,127,o),
(202,255,o),
(111,255,cs),
(100,255,o),
(88,253,o),
(74,249,c),
(30,154,l),
(36,155,o),
(42,156,o),
(47,156,cs),
(79,156,o),
(93,127,o),
(111,101,cs),
(163,25,o),
(231,-8,o),
(303,-8,cs)
);
},
{
closed = 1;
nodes = (
(155,188,l),
(391,373,ls),
(442,413,o),
(478,434,o),
(518,434,cs),
(556,434,o),
(620,417,o),
(620,319,c),
(760,307,l),
(760,502,o),
(635,576,o),
(513,576,cs),
(422,576,o),
(369,535,o),
(301,480,cs),
(30,259,l),
(30,154,l)
);
},
{
closed = 1;
nodes = (
(766,140,l),
(718,140,o),
(687,163,o),
(687,214,cs),
(687,236,ls),
(687,290,o),
(713,306,o),
(747,306,cs),
(760,306,l),
(721,394,l),
(597,394,o),
(549,323,o),
(549,255,cs),
(549,191,ls),
(549,101,o),
(622,-5,o),
(766,-5,c)
);
},
{
closed = 1;
nodes = (
(976,-5,o),
(1050,78,o),
(1050,250,c),
(910,250,l),
(910,154,o),
(863,140,o),
(821,140,c),
(821,-5,l)
);
},
{
closed = 1;
nodes = (
(694,755,l),
(694,606,ls),
(694,519,o),
(745,441,o),
(874,441,c),
(874,548,l),
(821,548,o),
(815,581,o),
(815,614,cs),
(815,629,l),
(826,629,ls),
(894,629,o),
(910,593,o),
(910,508,cs),
(910,250,l),
(1050,250,l),
(1050,517,ls),
(1050,700,o),
(949,755,o),
(815,755,cs)
);
}
);
width = 1080;
},
{
associatedMasterId = "4EACF7E3-2421-4EEA-928B-7BA9BC4A845D";
layerId = "D23332A6-A968-448F-A4D5-EBCE640E25BF";
name = "28 Jun 21, 03:55";
shapes = (
{
closed = 1;
nodes = (
(154,423,o),
(171,446,o),
(205,446,cs),
(221,446,o),
(252,437,o),
(252,402,c),
(344,507,l),
(337,524,o),
(274,567,o),
(205,567,cs),
(144,567,o),
(51,537,o),
(37,439,c),
(154,402,l)
);
},
{
closed = 1;
nodes = (
(427,-8,o),
(504,83,o),
(504,185,cs),
(504,236,o),
(493,306,o),
(421,338,c),
(324,260,l),
(362,244,o),
(373,220,o),
(373,194,cs),
(373,154,o),
(335,127,o),
(292,127,cs),
(200,127,o),
(202,255,o),
(111,255,cs),
(100,255,o),
(88,253,o),
(74,249,c),
(30,154,l),
(36,155,o),
(42,156,o),
(47,156,cs),
(79,156,o),
(93,127,o),
(111,101,cs),
(163,25,o),
(234,-8,o),
(296,-8,cs)
);
},
{
closed = 1;
nodes = (
(155,188,l),
(391,373,ls),
(442,414,o),
(474,440,o),
(518,440,cs),
(553,440,o),
(607,434,o),
(607,336,c),
(760,336,l),
(760,521,o),
(629,576,o),
(509,576,cs),
(427,576,o),
(369,535,o),
(301,480,cs),
(30,259,l),
(30,154,l)
);
},
{
closed = 1;
nodes = (
(760,140,l),
(708,140,o),
(687,185,o),
(687,222,cs),
(687,262,ls),
(687,322,o),
(720,336,o),
(760,336,c),
(684,466,l),
(560,436,o),
(549,332,o),
(549,262,cs),
(549,208,ls),
(549,117,o),
(616,-5,o),
(760,-5,c)
);
},
{
closed = 1;
nodes = (
(970,-5,o),
(1050,78,o),
(1050,250,c),
(910,250,l),
(910,154,o),
(857,140,o),
(815,140,c),
(815,-5,l)
);
},
{
closed = 1;
nodes = (
(1050,250,l),
(1050,517,ls),
(1050,700,o),
(949,755,o),
(815,755,cs),
(735,755,l),
(735,617,ls),
(735,544,o),
(771,474,o),
(874,454,c),
(874,540,l),
(841,547,o),
(815,563,o),
(815,614,cs),
(815,616,l),
(893,616,o),
(910,577,o),
(910,498,cs),
(910,250,l)
);
}
);
width = 1080;
}
);
userData = {
com.fontlab.hintData = {
hhints = (
{
position = 0;
width = 40;
},
{
position = 371;
width = 32;
},
{
position = 464;
width = 40;
},
{
position = 715;
width = 40;
}
);
vhints = (
{
position = 468;
width = 40;
},
{
position = 547;
width = 41;
},
{
position = 764;
width = 40;
},
{
position = 989;
width = 42;
}
);
};
};
},
{
glyphname = sinNDa;
layers = (
{
layerId = "DC4431BF-9234-4C16-9154-22D387E42D10";
shapes = (
{
closed = 1;
nodes = (
(726,0,ls),
(783,0,o),
(886,22,o),
(928,138,c),
(891,148,l),
(857,75,o),
(797,40,o),
(726,40,cs),
(687,40,ls),
(563,40,o),
(502,108,o),
(502,199,cs),
(502,293,o),
(560,362,o),
(676,362,cs),
(862,362,l),
(862,389,ls),
(862,519,o),
(782,592,o),
(597,592,c),
(597,550,l),
(762,550,o),
(822,493,o),
(822,402,c),
(686,402,ls),
(555,402,o),
(460,335,o),
(460,199,cs),
(460,60,o),
(567,0,o),
(687,0,cs)
);
},
{
closed = 1;
nodes = (
(867,-204,o),
(944,-161,o),
(962,-76,c),
(923,-66,l),
(907,-134,o),
(851,-164,o),
(795,-164,cs),
(729,-164,o),
(663,-121,o),
(663,-45,c),
(623,-45,l),
(623,-151,o),
(706,-204,o),
(791,-204,cs)
);
},
{
closed = 1;
nodes = (
(124,565,o),
(64,533,o),
(33,452,c),
(72,440,l),
(95,498,o),
(139,521,o),
(181,521,cs),
(230,521,o),
(276,491,o),
(289,445,c),
(320,473,l),
(305,527,o),
(245,565,o),
(182,565,cs)
);
},
{
closed = 1;
nodes = (
(385,-5,o),
(492,69,o),
(492,208,cs),
(492,287,o),
(451,372,o),
(355,403,c),
(330,370,l),
(424,335,o),
(448,269,o),
(448,208,cs),
(448,97,o),
(363,37,o),
(275,37,cs),
(176,37,o),
(71,111,o),
(71,270,cs),
(71,344,l),
(30,344,l),
(30,256,ls),
(30,79,o),
(154,-5,o),
(273,-5,cs)
);
},
{
closed = 1;
nodes = (
(67,213,ls),
(136,213,o),
(197,285,o),
(246,349,cs),
(324,452,ls),
(387,535,o),
(462,549,o),
(542,550,c),
(542,592,l),
(444,592,o),
(355,566,o),
(294,485,cs),
(197,356,ls),
(172,324,o),
(112,256,o),
(64,256,cs),
(50,256,l),
(50,212,l)
);
}
);
width = 962;
},
{
layerId = "4EACF7E3-2421-4EEA-928B-7BA9BC4A845D";
shapes = (
{
closed = 1;
nodes = (
(714,0,ls),
(807,0,o),
(892,52,o),
(917,138,c),
(789,172,l),
(776,140,o),
(747,136,o),
(714,136,cs),
(677,136,ls),
(638,136,o),
(593,146,o),
(593,201,cs),
(593,263,o),
(652,263,o),
(676,263,cs),
(862,263,l),
(862,397,ls),
(862,553,o),
(733,592,o),
(597,592,c),
(597,462,l),
(647,462,o),
(719,459,o),
(719,397,c),
(676,397,ls),
(543,397,o),
(450,333,o),
(450,200,cs),
(450,58,o),
(557,0,o),
(677,0,cs)
);
},
{
closed = 1;
nodes = (
(895,-204,o),
(950,-148,o),
(972,-81,c),
(839,-47,l),
(834,-67,o),
(810,-78,o),
(789,-78,cs),
(760,-78,o),
(740,-61,o),
(740,-45,c),
(603,-45,l),
(603,-136,o),
(670,-204,o),
(789,-204,cs)
);
},
{
closed = 1;
nodes = (
(139,567,o),
(46,537,o),
(32,439,c),
(149,402,l),
(149,425,o),
(169,446,o),
(198,446,cs),
(218,446,o),
(247,436,o),
(247,402,c),
(331,506,l),
(331,522,o),
(270,567,o),
(198,567,cs)
);
},
{
closed = 1;
nodes = (
(429,-8,o),
(502,97,o),
(502,198,cs),
(502,261,o),
(473,322,o),
(412,354,c),
(336,251,l),
(354,240,o),
(362,222,o),
(362,202,cs),
(362,167,o),
(337,127,o),
(267,127,cs),
(148,127,o),
(148,241,o),
(148,270,cs),
(148,344,l),
(30,344,l),
(30,256,ls),
(30,85,o),
(136,-8,o),
(278,-8,cs)
);
},
{
closed = 1;
nodes = (
(154,165,ls),
(201,165,o),
(240,208,o),
(295,281,cs),
(373,384,ls),
(412,435,o),
(461,462,o),
(542,462,c),
(542,592,l),
(422,592,o),
(338,545,o),
(284,471,cs),
(214,375,ls),
(176,322,o),
(160,304,o),
(150,304,cs),
(125,304,l),
(125,165,l)
);
}
);
width = 972;
}
);
userData = {
com.fontlab.hintData = {
hhints = (
{
position = -204;
width = 126;
},
{
position = 0;
width = 136;
},
{
position = 263;
width = 135;
},
{
position = 454;
width = 121;
}
);
vhints = (
{
position = 32;
width = 143;
}
);
};
};
},
{
glyphname = sinNDha;
layers = (
{
layerId = "DC4431BF-9234-4C16-9154-22D387E42D10";
shapes = (
{
closed = 1;
nodes = (
(124,565,o),
(64,533,o),
(33,452,c),
(72,440,l),
(95,498,o),
(139,521,o),
(181,521,cs),
(230,521,o),
(276,491,o),
(289,445,c),
(320,473,l),
(305,527,o),
(245,565,o),
(182,565,cs)
);
},
{
closed = 1;
nodes = (
(385,-5,o),
(492,69,o),
(492,208,cs),
(492,287,o),
(451,372,o),
(355,403,c),
(330,370,l),
(424,335,o),
(448,269,o),
(448,208,cs),
(448,97,o),
(363,37,o),
(275,37,cs),
(176,37,o),
(71,111,o),
(71,270,cs),
(71,344,l),
(30,344,l),
(30,256,ls),
(30,79,o),
(154,-5,o),
(273,-5,cs)
);
},
{
closed = 1;
nodes = (
(440,589,o),
(347,555,o),
(294,485,cs),
(197,356,ls),
(173,324,o),
(112,256,o),
(64,256,cs),
(50,256,l),
(50,213,l),
(67,213,ls),
(136,211,o),
(197,285,o),
(246,349,cs),
(324,452,ls),
(375,519,o),
(450,546,o),
(522,546,cs),
(616,546,o),
(704,500,o),
(727,440,c),
(767,440,l),
(745,539,o),
(640,589,o),
(531,589,cs)
);
},
{
closed = 1;
nodes = (
(740,0,o),
(783,21,o),
(807,58,c),
(831,21,o),
(874,0,o),
(926,0,cs),
(1009,0,o),
(1067,52,o),
(1067,133,cs),
(1067,242,l),
(1025,242,l),
(1025,139,ls),
(1025,104,o),
(1002,40,o),
(926,40,cs),
(851,40,o),
(828,104,o),
(828,139,cs),
(828,192,l),
(786,192,l),
(786,139,ls),
(786,104,o),
(763,40,o),
(688,40,cs),
(612,40,o),
(589,104,o),
(589,139,cs),
(589,301,ls),
(589,336,o),
(602,440,o),
(728,440,cs),
(767,440,l),
(747,480,l),
(728,480,ls),
(595,480,o),
(547,388,o),
(547,307,cs),
(547,133,ls),
(547,52,o),
(605,0,o),
(688,0,cs)
);
},
{
closed = 1;
nodes = (
(1025,241,l),
(1067,241,l),
(1067,514,ls),
(1067,671,o),
(1001,755,o),
(835,755,c),
(835,715,l),
(955,715,o),
(1025,662,o),
(1025,514,cs)
);
},
{
closed = 1;
nodes = (
(648,681,o),
(708,715,o),
(779,715,c),
(779,755,l),
(695,755,o),
(615,711,o),
(578,644,c),
(617,630,l)
);
}
);
width = 1097;
},
{
layerId = "4EACF7E3-2421-4EEA-928B-7BA9BC4A845D";
shapes = (
{
closed = 1;
nodes = (
(139,567,o),
(46,537,o),
(32,439,c),
(149,402,l),
(149,425,o),
(169,446,o),
(198,446,cs),
(218,446,o),
(247,436,o),
(247,402,c),
(331,506,l),
(331,522,o),
(270,567,o),
(198,567,cs)
);
},
{
closed = 1;
nodes = (
(429,-8,o),
(502,97,o),
(502,198,cs),
(502,261,o),
(473,322,o),
(412,354,c),
(336,251,l),
(354,240,o),
(362,222,o),
(362,202,cs),
(362,167,o),
(337,127,o),
(267,127,cs),
(148,127,o),
(148,241,o),
(148,270,cs),
(148,344,l),
(30,344,l),
(30,256,ls),
(30,85,o),
(136,-8,o),
(278,-8,cs)
);
},
{
closed = 1;
nodes = (
(394,594,o),
(338,545,o),
(284,471,cs),
(214,375,ls),
(176,322,o),
(160,304,o),
(150,304,cs),
(125,304,l),
(125,165,l),
(154,165,ls),
(201,165,o),
(240,208,o),
(295,281,cs),
(373,384,ls),
(412,435,o),
(456,468,o),
(510,468,cs),
(564,468,o),
(658,436,o),
(658,336,c),
(780,336,l),
(780,511,o),
(648,594,o),
(504,594,cs)
);
},
{
closed = 1;
nodes = (
(760,-8,o),
(791,2,o),
(817,35,c),
(846,3,o),
(887,-8,o),
(921,-8,cs),
(1013,-8,o),
(1080,58,o),
(1080,160,cs),
(1080,202,l),
(939,202,l),
(939,166,ls),
(939,154,o),
(930,132,o),
(900,132,cs),
(870,132,o),
(862,153,o),
(862,166,cs),
(862,202,l),
(762,202,l),
(762,166,ls),
(762,153,o),
(754,132,o),
(724,132,cs),
(694,132,o),
(685,154,o),
(685,166,cs),
(685,262,ls),
(685,322,o),
(718,336,o),
(758,336,cs),
(780,336,l),
(718,454,l),
(640,435,l),
(555,399,o),
(547,323,o),
(547,262,cs),
(547,160,ls),
(547,58,o),
(625,-8,o),
(722,-8,cs)
);
},
{
closed = 1;
nodes = (
(939,200,l),
(1080,200,l),
(1080,520,ls),
(1080,697,o),
(985,755,o),
(844,755,c),
(844,616,l),
(928,616,o),
(939,575,o),
(939,498,cs)
);
},
{
closed = 1;
nodes = (
(733,612,o),
(757,617,o),
(789,617,c),
(789,755,l),
(700,755,o),
(616,711,o),
(579,637,c),
(715,588,l)
);
}
);
width = 1110;
}
);
userData = {
com.fontlab.hintData = {
hhints = (
{
position = -8;
width = 140;
},
{
position = 200;
width = 2;
},
{
position = 336;
width = 138;
},
{
position = 616;
width = 138;
}
);
vhints = (
{
position = 30;
width = 138;
},
{
position = 245;
width = 100;
},
{
position = 422;
width = 141;
}
);
};
};
},
{
glyphname = sinNVa;
layers = (
{
layerId = "DC4431BF-9234-4C16-9154-22D387E42D10";
shapes = (
{
closed = 1;
nodes = (
(95,498,o),
(139,521,o),
(181,521,cs),
(230,521,o),
(276,491,o),
(289,445,c),
(320,473,l),
(305,527,o),
(245,565,o),
(182,565,cs),
(124,565,o),
(64,533,o),
(33,452,c),
(72,440,l)
);
},
{
closed = 1;
nodes = (
(385,-5,o),
(492,69,o),
(492,208,cs),
(492,287,o),
(451,372,o),
(355,403,c),
(330,370,l),
(424,335,o),
(448,269,o),
(448,208,cs),
(448,97,o),
(363,37,o),
(275,37,cs),
(176,37,o),
(71,111,o),
(71,270,cs),
(71,344,l),
(30,344,l),
(30,256,ls),
(30,79,o),
(154,-5,o),
(273,-5,cs)
);
},
{
closed = 1;
nodes = (
(754,40,l),
(647,40,o),
(587,112,o),
(587,181,cs),
(587,286,o),
(641,309,o),
(779,309,cs),
(828,309,l),
(828,350,ls),
(828,509,o),
(681,584,o),
(536,584,cs),
(439,584,o),
(343,550,o),
(294,485,cs),
(262,442,o),
(229,399,o),
(197,356,cs),
(172,324,o),
(112,256,o),
(64,256,cs),
(50,256,l),
(50,212,l),
(67,213,ls),
(136,215,o),
(197,285,o),
(246,349,cs),
(324,452,ls),
(370,513,o),
(452,542,o),
(534,542,cs),
(659,542,o),
(785,474,o),
(785,350,c),
(637,348,o),
(547,323,o),
(547,181,cs),
(547,86,o),
(635,0,o),
(754,0,c)
);
},
{
closed = 1;
nodes = (
(969,0,o),
(1035,84,o),
(1035,241,cs),
(1035,514,ls),
(1035,671,o),
(969,755,o),
(810,755,c),
(810,715,l),
(923,715,o),
(994,662,o),
(994,514,cs),
(994,241,ls),
(994,95,o),
(923,40,o),
(810,40,c),
(810,0,l)
);
},
{
closed = 1;
nodes = (
(636,681,o),
(696,715,o),
(754,715,c),
(754,755,l),
(683,755,o),
(603,711,o),
(566,644,c),
(605,630,l)
);
}
);
width = 1065;
},
{
layerId = "4EACF7E3-2421-4EEA-928B-7BA9BC4A845D";
shapes = (
{
closed = 1;
nodes = (
(149,423,o),
(166,446,o),
(200,446,cs),
(216,446,o),
(247,437,o),
(247,402,c),
(331,506,l),
(331,522,o),
(269,567,o),
(200,567,cs),
(139,567,o),
(46,537,o),
(32,439,c),
(149,402,l)
);
},
{
closed = 1;
nodes = (
(429,-8,o),
(502,97,o),
(502,198,cs),
(502,261,o),
(473,322,o),
(412,354,c),
(336,251,l),
(354,240,o),
(362,222,o),
(362,203,cs),
(362,167,o),
(331,127,o),
(278,127,cs),
(209,127,o),
(148,150,o),
(148,270,cs),
(148,344,l),
(30,344,l),
(30,256,ls),
(30,85,o),
(136,-8,o),
(278,-8,cs)
);
},
{
closed = 1;
nodes = (
(761,135,l),
(708,135,o),
(685,166,o),
(685,195,cs),
(685,242,o),
(714,252,o),
(744,252,cs),
(829,252,l),
(829,339,ls),
(829,504,o),
(675,586,o),
(526,586,cs),
(428,586,o),
(331,550,o),
(283,479,cs),
(267,457,o),
(243,417,o),
(214,375,cs),
(188,337,o),
(163,304,o),
(150,304,cs),
(125,304,l),
(125,165,l),
(154,165,ls),
(201,165,o),
(240,208,o),
(295,281,cs),
(373,384,ls),
(402,423,o),
(456,453,o),
(519,453,cs),
(577,453,o),
(652,447,o),
(686,369,c),
(587,352,o),
(547,291,o),
(547,189,cs),
(547,84,o),
(634,-5,o),
(761,-5,c)
);
},
{
closed = 1;
nodes = (
(972,-5,o),
(1052,78,o),
(1052,250,cs),
(1052,520,ls),
(1052,700,o),
(951,755,o),
(817,755,c),
(817,616,l),
(895,616,o),
(912,577,o),
(912,498,cs),
(912,250,ls),
(912,149,o),
(859,135,o),
(817,135,c),
(817,-5,l)
);
},
{
closed = 1;
nodes = (
(727,613,o),
(744,617,o),
(761,617,c),
(761,755,l),
(685,755,o),
(607,713,o),
(569,650,c),
(713,603,l)
);
}
);
width = 1082;
}
);
userData = {
com.fontlab.hintData = {
hhints = (
{
position = -5;
width = 140;
},
{
position = 399;
width = 102;
},
{
position = 616;
width = 138;
}
);
vhints = (
{
position = 33;
width = 138;
},
{
position = 398;
width = 140;
}
);
};
};
},
{
glyphname = sinNTha;
layers = (
{
layerId = "DC4431BF-9234-4C16-9154-22D387E42D10";
shapes = (
{
closed = 1;
nodes = (
(67,213,ls),
(136,213,o),
(197,285,o),
(246,349,cs),
(324,452,ls),
(374,518,o),
(448,546,o),
(520,546,cs),
(614,546,o),
(704,498,o),
(727,430,c),
(767,430,l),
(742,532,o),
(633,588,o),
(521,588,cs),
(435,588,o),
(347,555,o),
(294,485,cs),
(197,356,ls),
(172,324,o),
(112,256,o),
(64,256,cs),
(50,256,l),
(50,212,l)
);
},
{
closed = 1;
nodes = (
(385,-5,o),
(492,69,o),
(492,208,cs),
(492,287,o),
(451,372,o),
(355,403,c),
(330,370,l),
(424,335,o),
(448,269,o),
(448,208,cs),
(448,97,o),
(363,37,o),
(275,37,cs),
(176,37,o),
(71,111,o),
(71,270,cs),
(71,344,l),
(30,344,l),
(30,256,ls),
(30,79,o),
(154,-5,o),
(273,-5,cs)
);
},
{
closed = 1;
nodes = (
(95,498,o),
(139,521,o),
(181,521,cs),
(230,521,o),
(276,491,o),
(289,445,c),
(320,473,l),
(305,527,o),
(245,565,o),
(182,565,cs),
(124,565,o),
(64,533,o),
(33,452,c),
(72,440,l)
);
},
{
closed = 1;
nodes = (
(750,40,l),
(649,40,o),
(588,112,o),
(588,200,cs),
(588,270,ls),
(588,355,o),
(635,431,o),
(760,430,cs),
(750,430,l),
(750,470,l),
(590,470,o),
(547,355,o),
(547,270,cs),
(547,200,ls),
(547,116,o),
(601,0,o),
(750,0,c)
);
},
{
closed = 1;
nodes = (
(965,0,o),
(1031,84,o),
(1031,241,c),
(989,241,l),
(989,95,o),
(919,40,o),
(806,40,c),
(806,0,l)
);
},
{
closed = 1;
nodes = (
(764,755,l),
(764,637,ls),
(764,541,o),
(817,464,o),
(934,464,c),
(934,504,l),
(871,504,o),
(804,537,o),
(804,637,cs),
(804,715,l),
(807,715,ls),
(942,715,o),
(989,642,o),
(989,498,cs),
(989,235,l),
(1031,235,l),
(1031,517,ls),
(1031,700,o),
(934,755,o),
(804,755,cs)
);
}
);
width = 1061;
},
{
layerId = "4EACF7E3-2421-4EEA-928B-7BA9BC4A845D";
shapes = (
{
closed = 1;
nodes = (
(154,165,ls),
(201,165,o),
(240,208,o),
(295,281,cs),
(373,384,ls),
(408,430,o),
(444,447,o),
(495,447,cs),
(580,447,o),
(631,397,o),
(631,286,c),
(768,306,l),
(768,481,o),
(641,583,o),
(497,583,cs),
(417,583,o),
(331,551,o),
(283,479,cs),
(214,375,ls),
(186,333,o),
(162,304,o),
(150,304,cs),
(125,304,l),
(125,165,l)
);
},
{
closed = 1;
nodes = (
(429,-8,o),
(502,97,o),
(502,198,cs),
(502,261,o),
(473,322,o),
(412,354,c),
(336,251,l),
(354,240,o),
(362,222,o),
(362,202,cs),
(362,167,o),
(337,127,o),
(267,127,cs),
(148,127,o),
(148,241,o),
(148,270,cs),
(148,344,l),
(30,344,l),
(30,256,ls),
(30,85,o),
(136,-8,o),
(278,-8,cs)
);
},
{
closed = 1;
nodes = (
(149,425,o),
(169,446,o),
(198,446,cs),
(218,446,o),
(247,436,o),
(247,402,c),
(331,506,l),
(331,522,o),
(270,567,o),
(198,567,cs),
(139,567,o),
(46,537,o),
(32,439,c),
(149,402,l)
);
},
{
closed = 1;
nodes = (
(774,140,l),
(726,140,o),
(695,163,o),
(695,214,cs),
(695,236,ls),
(695,290,o),
(721,306,o),
(755,306,cs),
(768,306,l),
(729,394,l),
(605,394,o),
(557,323,o),
(557,255,cs),
(557,191,ls),
(557,101,o),
(630,-5,o),
(774,-5,c)
);
},
{
closed = 1;
nodes = (
(984,-5,o),
(1058,78,o),
(1058,250,c),
(918,250,l),
(918,154,o),
(871,140,o),
(829,140,c),
(829,-5,l)
);
},
{
closed = 1;
nodes = (
(702,755,l),
(702,606,ls),
(702,519,o),
(753,441,o),
(882,441,c),
(882,548,l),
(829,548,o),
(823,581,o),
(823,614,cs),
(823,629,l),
(834,629,ls),
(902,629,o),
(918,593,o),
(918,508,cs),
(918,250,l),
(1058,250,l),
(1058,517,ls),
(1058,700,o),
(957,755,o),
(823,755,cs)
);
}
);
width = 1078;
},
{
associatedMasterId = "4EACF7E3-2421-4EEA-928B-7BA9BC4A845D";
layerId = "223C0E43-B993-4BFB-8FE1-0801CDACEA85";
name = "28 Jun 21, 04:03";
shapes = (
{
closed = 1;
nodes = (
(154,165,ls),
(202,165,o),
(240,208,o),
(295,281,cs),
(373,384,ls),
(404,425,o),
(456,457,o),
(516,457,cs),
(581,457,o),
(637,427,o),
(637,336,c),
(780,336,l),
(780,511,o),
(645,583,o),
(511,583,cs),
(421,583,o),
(331,551,o),
(283,479,c),
(214,375,l),
(188,337,o),
(163,304,o),
(150,304,cs),
(125,304,l),
(125,165,l)
);
},
{
closed = 1;
nodes = (
(427.008,-8,o),
(502,97,o),
(502,198,cs),
(502,261,o),
(473,322,o),
(412,354,c),
(336,251,l),
(354,240,o),
(362,222,o),
(362,203,cs),
(362,167,o),
(331,127,o),
(278,127,cs),
(209,127,o),
(148,150,o),
(148,270,cs),
(148,344,l),
(30,344,l),
(30,256,ls),
(30,85,o),
(134,-8,o),
(282,-8,cs)
);
},
{
closed = 1;
nodes = (
(149,423,o),
(166,446,o),
(200,446,cs),
(216,446,o),
(247,437,o),
(247,402,c),
(331,506,l),
(331,522,o),
(269,567,o),
(200,567,cs),
(139,567,o),
(46,537,o),
(32,439,c),
(149,402,l)
);
},
{
closed = 1;
nodes = (
(758,140,l),
(706,140,o),
(685,185,o),
(685,222,cs),
(685,262,ls),
(685,322,o),
(718,336,o),
(758,336,c),
(682,466,l),
(558,436,o),
(547,332,o),
(547,262,cs),
(547,208,ls),
(547,117,o),
(614,-5,o),
(758,-5,c)
);
},
{
closed = 1;
nodes = (
(968,-5,o),
(1048,78,o),
(1048,250,c),
(908,250,l),
(908,154,o),
(855,140,o),
(813,140,c),
(813,-5,l)
);
},
{
closed = 1;
nodes = (
(1048,241,l),
(1048,517,ls),
(1048,700,o),
(947,755,o),
(813,755,cs),
(733,755,l),
(733,617,ls),
(733,544,o),
(769,474,o),
(872,454,c),
(872,540,l),
(842,546,o),
(813,563,o),
(813,603,c),
(813,616,l),
(891,616,o),
(908,577,o),
(908,498,cs),
(908,241,l)
);
}
);
width = 1078;
}
);
userData = {
com.fontlab.hintData = {
hhints = (
{
position = -8;
width = 135;
},
{
position = -5;
width = 145;
},
{
position = 446;
width = 121;
},
{
position = 454;
width = 86;
},
{
position = 616;
width = 139;
}
);
vhints = (
{
position = 30;
width = 118;
},
{
position = 125;
width = 23;
},
{
position = 547;
width = 138;
},
{
position = 733;
width = 80;
},
{
position = 908;
width = 140;
}
);
};
};
},
{
glyphname = sinGDha;
layers = (
{
layerId = "DC4431BF-9234-4C16-9154-22D387E42D10";
shapes = (
{
closed = 1;
nodes = (
(30,216,ls),
(30,80,o),
(97,-8,o),
(216,-8,c),
(216,32,l),
(124,32,o),
(70,98,o),
(70,216,cs),
(70,340,ls),
(70,458,o),
(121,524,o),
(216,524,c),
(216,564,l),
(97,564,o),
(30,476,o),
(30,340,cs)
);
},
{
closed = 1;
nodes = (
(399,66,o),
(352,32,o),
(272,32,c),
(272,-8,l),
(372,-8,o),
(439,43,o),
(439,145,cs),
(439,164,ls),
(439,233,o),
(408,311,o),
(306,311,cs),
(269,311,l),
(269,271,l),
(306,271,ls),
(391,271,o),
(399,200,o),
(399,152,cs)
);
},
{
closed = 1;
nodes = (
(379,573,o),
(252,507,o),
(252,360,cs),
(252,271,l),
(293,271,l),
(293,361,ls),
(293,477,o),
(401,527,o),
(502,527,cs),
(582,527,o),
(658,496,o),
(669,440,c),
(719,440,l),
(705,526,o),
(605,573,o),
(501,573,cs)
);
},
{
closed = 1;
nodes = (
(499,133,ls),
(499,52,o),
(557,0,o),
(640,0,cs),
(692,0,o),
(735,21,o),
(759,58,c),
(783,21,o),
(826,0,o),
(878,0,cs),
(961,0,o),
(1019,52,o),
(1019,133,cs),
(1019,202,l),
(977,202,l),
(977,139,ls),
(977,104,o),
(954,40,o),
(878,40,cs),
(803,40,o),
(780,104,o),
(780,139,cs),
(780,192,l),
(738,192,l),
(738,139,ls),
(738,104,o),
(715,40,o),
(640,40,cs),
(564,40,o),
(541,104,o),
(541,139,cs),
(541,301,ls),
(541,336,o),
(554,440,o),
(680,440,cs),
(719,440,l),
(699,480,l),
(680,480,ls),
(547,480,o),
(499,388,o),
(499,307,cs)
);
},
{
closed = 1;
nodes = (
(977,202,l),
(1019,202,l),
(1019,514,ls),
(1019,675,o),
(951,755,o),
(787,755,c),
(787,715,l),
(905,715,o),
(977,666,o),
(977,514,cs)
);
},
{
closed = 1;
nodes = (
(603,690,o),
(662,715,o),
(731,715,c),
(731,755,l),
(650,755,o),
(573,723,o),
(530,644,c),
(569,630,l)
);
}
);
width = 1050;
},
{
layerId = "4EACF7E3-2421-4EEA-928B-7BA9BC4A845D";
shapes = (
{
closed = 1;
nodes = (
(30,198,ls),
(30,82,o),
(88,-8,o),
(227,-8,c),
(227,135,l),
(175,135,o),
(171,174,o),
(171,198,cs),
(171,348,ls),
(171,376,o),
(175,421,o),
(227,421,c),
(227,564,l),
(88,564,o),
(30,474,o),
(30,358,cs)
);
},
{
closed = 1;
nodes = (
(337,171,o),
(336,135,o),
(283,135,c),
(283,-8,l),
(400,-8,o),
(461,45,o),
(461,166,cs),
(461,216,ls),
(461,325,o),
(407,347,o),
(371,347,cs),
(271,347,l),
(271,241,l),
(283,241,ls),
(336,241,o),
(337,205,o),
(337,188,cs)
);
},
{
closed = 1;
nodes = (
(388,576,o),
(254,514,o),
(254,350,cs),
(254,241,l),
(393,241,l),
(393,360,ls),
(393,422,o),
(440,451,o),
(488,451,cs),
(539,451,o),
(591,419,o),
(591,360,c),
(739,336,l),
(739,491,o),
(628,576,o),
(499,576,cs)
);
},
{
closed = 1;
nodes = (
(506,160,ls),
(506,58,o),
(584,-8,o),
(681,-8,cs),
(719,-8,o),
(750,2,o),
(776,35,c),
(805,3,o),
(846,-8,o),
(880,-8,cs),
(972,-8,o),
(1039,58,o),
(1039,160,cs),
(1039,202,l),
(898,202,l),
(898,166,ls),
(898,154,o),
(889,132,o),
(859,132,cs),
(829,132,o),
(821,153,o),
(821,166,cs),
(821,202,l),
(721,202,l),
(721,166,ls),
(721,153,o),
(713,132,o),
(683,132,cs),
(653,132,o),
(644,154,o),
(644,166,cs),
(644,262,ls),
(644,322,o),
(677,336,o),
(717,336,cs),
(739,336,l),
(633,464,l),
(600,452,l),
(514,411,o),
(506,323,o),
(506,262,cs)
);
},
{
closed = 1;
nodes = (
(898,202,l),
(1039,202,l),
(1039,520,ls),
(1039,706,o),
(936,755,o),
(795,755,c),
(795,616,l),
(879,616,o),
(898,583,o),
(898,498,cs)
);
},
{
closed = 1;
nodes = (
(683,612,o),
(707,617,o),
(739,617,c),
(739,755,l),
(650,755,o),
(566,711,o),
(529,637,c),
(665,588,l)
);
}
);
width = 1069;
}
);
userData = {
com.fontlab.hintData = {
hhints = (
{
position = -8;
width = 140;
},
{
position = 200;
width = 2;
},
{
position = 241;
width = 106;
},
{
position = 616;
width = 138;
}
);
vhints = (
{
position = 30;
width = 141;
},
{
position = 337;
width = 124;
},
{
position = 506;
width = 138;
},
{
position = 721;
width = 100;
},
{
position = 898;
width = 141;
}
);
};
};
},
{
glyphname = sinDVa;
layers = (
{
layerId = "DC4431BF-9234-4C16-9154-22D387E42D10";
shapes = (
{
closed = 1;
nodes = (
(136,8,l),
(72,85,o),
(70,128,o),
(70,209,cs),
(70,240,ls),
(70,323,o),
(94,401,o),
(170,401,cs),
(184,401,o),
(200,398,o),
(219,392,c),
(219,435,l),
(203,441,o),
(186,444,o),
(170,444,cs),
(95,444,o),
(30,384,o),
(30,240,cs),
(30,209,ls),
(30,118,o),
(34,69,o),
(94,-8,c)
);
},
{
pos = (136,0);
ref = sinVa;
}
);
width = 687;
},
{
layerId = "4EACF7E3-2421-4EEA-928B-7BA9BC4A845D";
shapes = (
{
closed = 1;
nodes = (
(223,12,l),
(180,67,o),
(166,88,o),
(166,169,cs),
(166,289,ls),
(166,360,o),
(195,390,o),
(243,390,cs),
(255,390,o),
(268,389,o),
(319,375,c),
(319,474,l),
(283,489,o),
(247,496,o),
(214,496,cs),
(109,496,o),
(30,423,o),
(30,289,cs),
(30,169,ls),
(30,78,o),
(44,41,o),
(93,-28,c)
);
},
{
pos = (190,0);
ref = sinVa;
}
);
width = 758;
}
);
userData = {
com.fontlab.hintData = {
hhints = (
{
position = 0;
width = 40;
},
{
position = 309;
width = 40;
},
{
position = 715;
width = 40;
}
);
vhints = (
{
position = 30;
width = 40;
},
{
position = 169;
width = 40;
},
{
position = 410;
width = 40;
},
{
position = 616;
width = 41;
}
);
};
};
},
{
glyphname = sinDDha;
layers = (
{
layerId = "DC4431BF-9234-4C16-9154-22D387E42D10";
shapes = (
{
closed = 1;
nodes = (
(126,8,l),
(71,85,o),
(70,128,o),
(70,209,cs),
(70,297,ls),
(70,396,o),
(118,440,o),
(238,440,cs),
(391,440,l),
(391,480,l),
(237,480,ls),
(153,480,o),
(30,472,o),
(30,297,cs),
(30,209,ls),
(30,118,o),
(33,69,o),
(84,-8,c)
);
},
{
pos = (141,0);
ref = sinDha;
}
);
width = 721;
},
{
layerId = "4EACF7E3-2421-4EEA-928B-7BA9BC4A845D";
shapes = (
{
closed = 1;
nodes = (
(223,12,l),
(171,74,o),
(166,115,o),
(166,170,cs),
(166,244,ls),
(166,283,o),
(174,336,o),
(224,336,cs),
(441,336,l),
(441,474,l),
(265,474,ls),
(61,474,o),
(30,335,o),
(30,240,cs),
(30,200,ls),
(30,109,o),
(33,49,o),
(93,-28,c)
);
},
{
pos = (192,0);
ref = sinDha;
}
);
width = 785;
}
);
},
{
glyphname = sinTtTtha;
layers = (
{
layerId = "DC4431BF-9234-4C16-9154-22D387E42D10";
shapes = (
{
closed = 1;
nodes = (
(126,8,l),
(71,85,o),
(70,128,o),
(70,209,cs),
(70,297,ls),
(70,396,o),
(118,440,o),
(238,440,cs),
(391,440,l),
(391,480,l),
(237,480,ls),
(153,480,o),
(30,472,o),
(30,297,cs),
(30,209,ls),
(30,118,o),
(33,69,o),
(84,-8,c)
);
},
{
pos = (128,0);
ref = sinTtha;
}
);
width = 721;
},
{
layerId = "4EACF7E3-2421-4EEA-928B-7BA9BC4A845D";
shapes = (
{
closed = 1;
nodes = (
(223,12,l),
(171,74,o),
(166,115,o),
(166,170,cs),
(166,244,ls),
(166,283,o),
(174,336,o),
(224,336,cs),
(441,336,l),
(441,474,l),
(265,474,ls),
(61,474,o),
(30,335,o),
(30,240,cs),
(30,200,ls),
(30,109,o),
(33,49,o),
(93,-28,c)
);
},
{
pos = (193,0);
ref = sinTtha;
}
);
width = 786;
}
);
},
{
category = Mark;
glyphname = sinMatraAae;
layers = (
{
layerId = "DC4431BF-9234-4C16-9154-22D387E42D10";
shapes = (
{
closed = 1;
nodes = (
(227,0,l),
(227,40,l),
(195,40,ls),
(73,40,o),
(70,111,o),
(70,150,cs),
(70,206,ls),
(70,254,o),
(72,275,o),
(227,383,c),
(227,423,l),
(92,423,l),
(227,534,l),
(227,574,l),
(30,574,l),
(30,534,l),
(164,534,l),
(30,423,l),
(30,383,l),
(159,383,l),
(44,304,o),
(30,270,o),
(30,196,cs),
(30,150,ls),
(30,33,o),
(99,0,o),
(196,0,cs)
);
}
);
width = 257;
},
{
layerId = "4EACF7E3-2421-4EEA-928B-7BA9BC4A845D";
shapes = (
{
closed = 1;
nodes = (
(247,0,l),
(247,143,l),
(226,143,ls),
(202,143,o),
(171,153,o),
(171,192,cs),
(171,196,ls),
(171,231,o),
(179,250,o),
(247,302,c),
(247,412,l),
(158,412,l),
(247,464,l),
(247,574,l),
(30,574,l),
(30,464,l),
(117,464,l),
(30,412,l),
(30,302,l),
(107,302,l),
(63,262,o),
(30,230,o),
(30,183,cs),
(30,143,ls),
(30,50,o),
(118,0,o),
(225,0,cs)
);
}
);
width = 277;
}
);
subCategory = Spacing;
unicode = 3537;
userData = {
com.fontlab.hintData = {
hhints = (
{
position = 0;
width = 40;
},
{
position = 383;
width = 40;
},
{
position = 534;
width = 40;
}
);
vhints = (
{
position = 50;
width = 40;
}
);
};
};
},
{
category = Mark;
glyphname = sinMatraAe;
layers = (
{
layerId = "DC4431BF-9234-4C16-9154-22D387E42D10";
shapes = (
{
closed = 1;
nodes = (
(227,0,l),
(227,40,l),
(215,40,ls),
(73,40,o),
(70,134,o),
(70,183,cs),
(70,289,ls),
(70,377,o),
(74,408,o),
(227,534,c),
(227,574,l),
(30,574,l),
(30,534,l),
(167,534,l),
(48,434,o),
(30,398,o),
(30,289,cs),
(30,183,ls),
(30,56,o),
(99,0,o),
(216,0,cs)
);
}
);
width = 257;
},
{
layerId = "4EACF7E3-2421-4EEA-928B-7BA9BC4A845D";
shapes = (
{
closed = 1;
nodes = (
(257,0,l),
(257,143,l),
(226,143,ls),
(210,143,o),
(170,153,o),
(170,202,cs),
(170,268,ls),
(170,315,o),
(188,341,o),
(257,438,c),
(257,574,l),
(35,574,l),
(35,438,l),
(105,438,l),
(52,363,o),
(30,339,o),
(30,250,cs),
(30,178,ls),
(30,48,o),
(128,0,o),
(235,0,cs)
);
}
);
width = 287;
}
);
subCategory = Spacing;
unicode = 3536;
userData = {
com.fontlab.hintData = {
hhints = (
{
position = 0;
width = 40;
},
{
position = 534;
width = 40;
}
);
vhints = (
{
position = 30;
width = 40;
}
);
};
};
},
{
category = Mark;
glyphname = sinMatraE;
layers = (
{
layerId = "DC4431BF-9234-4C16-9154-22D387E42D10";
shapes = (
{
closed = 1;
nodes = (
(209,-5,l),
(209,35,l),
(101,35,o),
(70,99,o),
(70,198,cs),
(70,371,ls),
(70,450,o),
(100,524,o),
(209,524,cs),
(249,524,l),
(249,564,l),
(208,564,ls),
(63,564,o),
(30,449,o),
(30,371,cs),
(30,198,ls),
(30,140,o),
(43,-5,o),
(188,-5,cs)
);
},
{
closed = 1;
nodes = (
(278,-5,ls),
(384,-5,o),
(427,70,o),
(427,157,cs),
(427,255,ls),
(427,335,o),
(379,354,o),
(320,354,cs),
(233,354,l),
(233,314,l),
(320,314,ls),
(347,314,o),
(387,311,o),
(387,253,cs),
(387,154,ls),
(387,80,o),
(350,35,o),
(257,35,c),
(257,-5,l)
);
},
{
closed = 1;
nodes = (
(424,431,l),
(417,487,o),
(367,564,o),
(270,564,cs),
(249,564,l),
(249,524,l),
(368,524,o),
(380,443,o),
(383,421,c)
);
}
);
width = 457;
},
{
layerId = "4EACF7E3-2421-4EEA-928B-7BA9BC4A845D";
shapes = (
{
closed = 1;
nodes = (
(209,-5,l),
(209,125,l),
(170,125,o),
(165,159,o),
(165,198,cs),
(165,371,ls),
(165,410,o),
(190,434,o),
(219,434,cs),
(249,434,l),
(249,564,l),
(208,564,ls),
(63,564,o),
(30,449,o),
(30,371,cs),
(30,198,ls),
(30,140,o),
(43,-5,o),
(188,-5,cs)
);
},
{
closed = 1;
nodes = (
(288,-5,ls),
(374,-5,o),
(427,70,o),
(427,157,cs),
(427,255,ls),
(427,335,o),
(379,354,o),
(320,354,cs),
(233,354,l),
(233,224,l),
(248,224,ls),
(275,224,o),
(292,223,o),
(292,197,cs),
(292,164,ls),
(292,140,o),
(281,125,o),
(257,125,c),
(257,-5,l)
);
},
{
closed = 1;
nodes = (
(424,431,l),
(417,487,o),
(367,564,o),
(270,564,cs),
(249,564,l),
(249,434,l),
(278,434,o),
(298,422,o),
(302,400,c)
);
}
);
width = 457;
}
);
subCategory = Spacing;
unicode = 3545;
userData = {
com.fontlab.hintData = {
hhints = (
{
position = -5;
width = 40;
},
{
position = 314;
width = 40;
},
{
position = 524;
width = 40;
}
);
vhints = (
{
position = 30;
width = 40;
},
{
position = 387;
width = 40;
}
);
};
};
},
{
glyphname = sinMatraI;
layers = (
{
layerId = "DC4431BF-9234-4C16-9154-22D387E42D10";
shapes = (
{
closed = 1;
nodes = (
(-544,602,l),
(-544,654,o),
(-535,749,o),
(-392,749,cs),
(-253,749,ls),
(-110,749,o),
(-101,654,o),
(-101,602,c),
(-61,602,l),
(-61,630,ls),
(-61,723,o),
(-137,789,o),
(-237,789,cs),
(-408,789,ls),
(-508,789,o),
(-584,723,o),
(-584,630,cs),
(-584,602,l)
);
}
);
width = 0;
},
{
layerId = "4EACF7E3-2421-4EEA-928B-7BA9BC4A845D";
shapes = (
{
closed = 1;
nodes = (
(-443,602,l),
(-443,654,o),
(-408,659,o),
(-381,659,cs),
(-242,659,ls),
(-215,659,o),
(-180,654,o),
(-180,602,c),
(-50,602,l),
(-50,630,ls),
(-50,723,o),
(-127,789,o),
(-226,789,cs),
(-397,789,ls),
(-496,789,o),
(-573,723,o),
(-573,630,cs),
(-573,602,l)
);
}
);
width = 0;
}
);
unicode = 3538;
},
{
glyphname = sinMatraIi;
layers = (
{
layerId = "DC4431BF-9234-4C16-9154-22D387E42D10";
shapes = (
{
closed = 1;
nodes = (
(-530,743,o),
(-490,779,o),
(-400,779,cs),
(-336,779,l),
(-336,819,l),
(-417,819,ls),
(-518,819,o),
(-572,757,o),
(-572,672,cs),
(-572,637,l),
(-530,637,l),
(-530,671,ls)
);
},
{
closed = 1;
nodes = (
(-281,819,l),
(-281,779,l),
(-222,779,ls),
(-142,779,o),
(-96,746,o),
(-96,682,cs),
(-96,638,o),
(-126,604,o),
(-167,604,cs),
(-211,604,o),
(-243,637,o),
(-243,685,cs),
(-243,726,l),
(-281,726,l),
(-281,685,ls),
(-281,614,o),
(-232,565,o),
(-163,566,cs),
(-103,567,o),
(-58,617,o),
(-58,682,cs),
(-58,773,o),
(-112,819,o),
(-239,819,cs)
);
}
);
width = 0;
},
{
layerId = "4EACF7E3-2421-4EEA-928B-7BA9BC4A845D";
shapes = (
{
closed = 1;
nodes = (
(-486,690,o),
(-467,720,o),
(-426,720,cs),
(-417,720,l),
(-417,850,l),
(-426,850,ls),
(-549,850,o),
(-626,776,o),
(-626,657,cs),
(-626,637,l),
(-486,637,l),
(-486,657,ls)
);
},
{
closed = 1;
nodes = (
(-362,850,l),
(-362,720,l),
(-272,720,ls),
(-204,720,o),
(-172,704,o),
(-172,664,cs),
(-172,637,o),
(-186,623,o),
(-206,623,cs),
(-227,623,o),
(-242,639,o),
(-242,660,cs),
(-242,674,l),
(-362,674,l),
(-362,646,ls),
(-362,568,o),
(-296,501,o),
(-204,501,cs),
(-114,501,o),
(-47,566,o),
(-47,669,cs),
(-47,786,o),
(-135,850,o),
(-272,850,cs)
);
}
);
width = 0;
},
{
associatedMasterId = "4EACF7E3-2421-4EEA-928B-7BA9BC4A845D";
layerId = "A2B139B0-57FB-486C-9E2D-6F84B37AEE3D";
name = "3 Jun 21, 01:47";
shapes = (
{
closed = 1;
nodes = (
(-532,796,o),
(-609,730,o),
(-609,637,cs),
(-609,602,l),
(-479,602,l),
(-479,654,o),
(-444,666,o),
(-417,666,cs),
(-242,666,ls),
(-235,666,o),
(-222,666,o),
(-215,666,c),
(-215,698,l),
(-229,690,o),
(-248,665,o),
(-248,638,cs),
(-248,592,o),
(-210,553,o),
(-150,553,cs),
(-88,553,o),
(-49,601,o),
(-49,666,cs),
(-49,736,o),
(-106,796,o),
(-188,796,cs),
(-433,796,ls)
);
}
);
width = 0;
},
{
associatedMasterId = "4EACF7E3-2421-4EEA-928B-7BA9BC4A845D";
layerId = "84604880-96B5-45EC-B2E5-4715C18448D1";
name = "6 Jun 21, 12:53";
shapes = (
{
closed = 1;
nodes = (
(-486,690,o),
(-462,720,o),
(-421,720,cs),
(-412,720,l),
(-412,850,l),
(-421,850,ls),
(-544,850,o),
(-626,776,o),
(-626,657,cs),
(-626,637,l),
(-486,637,l),
(-486,657,l)
);
},
{
closed = 1;
nodes = (
(-357,850,l),
(-357,720,l),
(-258,720,ls),
(-199,720,o),
(-163,704,o),
(-163,658,cs),
(-163,628,o),
(-179,613,o),
(-199,613,cs),
(-220,613,o),
(-237,628,o),
(-237,658,cs),
(-237,674,l),
(-357,674,l),
(-357,646,ls),
(-357,560,o),
(-291,491,o),
(-199,491,cs),
(-99,491,o),
(-38,558,o),
(-38,655,cs),
(-38,783,o),
(-127,850,o),
(-295,850,cs)
);
}
);
width = 0;
}
);
unicode = 3539;
},
{
category = Mark;
glyphname = sinMatraLs;
layers = (
{
layerId = "DC4431BF-9234-4C16-9154-22D387E42D10";
shapes = (
{
closed = 1;
nodes = (
(266,-8,o),
(350,44,o),
(350,149,cs),
(350,465,ls),
(350,532,o),
(302,566,o),
(255,566,cs),
(207,566,o),
(160,533,o),
(160,465,cs),
(160,413,ls),
(160,375,o),
(133,356,o),
(105,356,cs),
(78,356,o),
(50,375,o),
(50,413,cs),
(50,564,l),
(10,564,l),
(10,414,ls),
(10,346,o),
(57,313,o),
(105,313,cs),
(152,313,o),
(200,347,o),
(200,414,cs),
(200,466,ls),
(200,504,o),
(228,523,o),
(255,523,cs),
(283,523,o),
(310,504,o),
(310,466,cs),
(310,148,ls),
(310,73,o),
(246,37,o),
(182,37,cs),
(116,37,o),
(50,75,o),
(50,148,cs),
(50,202,l),
(10,202,l),
(10,149,ls),
(10,45,o),
(96,-8,o),
(181,-8,cs)
);
}
);
width = 380;
},
{
layerId = "4EACF7E3-2421-4EEA-928B-7BA9BC4A845D";
shapes = (
{
closed = 1;
nodes = (
(301,-8,o),
(394,52,o),
(394,166,cs),
(394,437,ls),
(393,523,o),
(333,571,o),
(267,571,cs),
(210,571,o),
(153,535,o),
(153,462,cs),
(153,443,ls),
(153,432,o),
(145,426,o),
(138,426,cs),
(130,426,o),
(122,432,o),
(122,443,cs),
(122,564,l),
(30,564,l),
(30,405,ls),
(30,325,o),
(86,288,o),
(140,288,cs),
(189,288,o),
(236,319,o),
(236,375,cs),
(236,423,ls),
(236,436,o),
(244,443,o),
(252,443,cs),
(259,443,o),
(267,436,o),
(267,423,cs),
(267,166,ls),
(267,129,o),
(241,111,o),
(214,111,cs),
(186,111,o),
(157,130,o),
(157,166,cs),
(157,202,l),
(30,202,l),
(30,166,ls),
(30,49,o),
(119,-8,o),
(208,-8,cs)
);
}
);
width = 424;
}
);
subCategory = Spacing;
unicode = 3551;
userData = {
com.fontlab.hintData = {
vhints = (
{
position = 116;
width = 141;
}
);
};
};
},
{
category = Mark;
glyphname = sinMatraR;
layers = (
{
layerId = "DC4431BF-9234-4C16-9154-22D387E42D10";
shapes = (
{
closed = 1;
nodes = (
(221,0,o),
(283,62,o),
(283,137,cs),
(283,399,ls),
(283,498,o),
(246,564,o),
(156,564,cs),
(68,564,l),
(68,524,l),
(158,524,ls),
(210,524,o),
(243,478,o),
(243,399,cs),
(243,137,ls),
(243,84,o),
(199,40,o),
(146,40,cs),
(93,40,o),
(49,84,o),
(49,137,cs),
(49,190,o),
(93,234,o),
(146,234,cs),
(187,234,l),
(187,274,l),
(146,274,ls),
(71,274,o),
(9,212,o),
(9,137,cs),
(9,62,o),
(71,0,o),
(146,0,cs)
);
}
);
width = 314;
},
{
layerId = "4EACF7E3-2421-4EEA-928B-7BA9BC4A845D";
shapes = (
{
closed = 1;
nodes = (
(265,0,o),
(345,50,o),
(345,157,cs),
(345,398,ls),
(345,498,o),
(276,574,o),
(186,574,cs),
(78,574,l),
(78,444,l),
(168,444,ls),
(220,444,o),
(225,409,o),
(225,382,cs),
(225,162,ls),
(225,133,o),
(208,118,o),
(188,118,cs),
(167,118,o),
(145,133,o),
(145,160,cs),
(145,181,o),
(159,196,o),
(182,196,cs),
(188,196,l),
(188,310,l),
(182,310,ls),
(70,310,o),
(28,236,o),
(28,159,cs),
(28,53,o),
(109,0,o),
(188,0,cs)
);
}
);
width = 375;
}
);
subCategory = Spacing;
unicode = 3544;
},
{
glyphname = sinMatraU;
layers = (
{
layerId = "DC4431BF-9234-4C16-9154-22D387E42D10";
shapes = (
{
closed = 1;
nodes = (
(-60,-205,l),
(-60,133,l),
(-100,133,l),
(-100,-205,l)
);
},
{
closed = 1;
nodes = (
(-326,-205,l),
(-326,-165,l),
(-508,-165,l),
(-508,-205,l)
);
},
{
closed = 1;
nodes = (
(-90,-205,l),
(-90,-165,l),
(-270,-165,l),
(-270,-205,l)
);
}
);
width = 0;
},
{
layerId = "4EACF7E3-2421-4EEA-928B-7BA9BC4A845D";
shapes = (
{
closed = 1;
nodes = (
(-30,-205,l),
(-30,123,l),
(-170,123,l),
(-170,-205,l)
);
},
{
closed = 1;
nodes = (
(-296,-205,l),
(-296,-65,l),
(-478,-65,l),
(-478,-205,l)
);
},
{
closed = 1;
nodes = (
(-160,-205,l),
(-160,-65,l),
(-240,-65,l),
(-240,-205,l)
);
}
);
width = 0;
}
);
unicode = 3540;
userData = {
com.fontlab.hintData = {
hhints = (
{
position = -197;
width = 140;
}
);
vhints = (
{
position = -468;
width = 172;
}
);
};
};
},
{
glyphname = sinMatraUu;
layers = (
{
layerId = "DC4431BF-9234-4C16-9154-22D387E42D10";
shapes = (
{
closed = 1;
nodes = (
(-60,-205,l),
(-60,123,l),
(-100,123,l),
(-100,-205,l)
);
},
{
closed = 1;
nodes = (
(-100,-161,l),
(-189,-117,o),
(-256,-122,o),
(-265,-122,c),
(-265,-164,l),
(-249,-164,o),
(-188,-160,o),
(-100,-205,c)
);
},
{
closed = 1;
nodes = (
(-399,-199,o),
(-369,-164,o),
(-321,-164,c),
(-321,-122,l),
(-370,-122,o),
(-399,-158,o),
(-440,-158,cs),
(-461,-158,o),
(-485,-149,o),
(-516,-122,c),
(-516,-164,l),
(-486,-191,o),
(-462,-199,o),
(-441,-199,cs)
);
}
);
width = 0;
},
{
layerId = "4EACF7E3-2421-4EEA-928B-7BA9BC4A845D";
shapes = (
{
closed = 1;
nodes = (
(-32,-205,l),
(-32,123,l),
(-172,123,l),
(-172,-205,l)
);
},
{
closed = 1;
nodes = (
(-172,-61,l),
(-195,-46,o),
(-225,-42,o),
(-242,-42,c),
(-242,-182,l),
(-221,-182,o),
(-198,-187,o),
(-172,-205,c)
);
},
{
closed = 1;
nodes = (
(-373,-205,o),
(-337,-182,o),
(-298,-182,c),
(-298,-42,l),
(-337,-42,o),
(-373,-65,o),
(-415,-65,cs),
(-437,-65,o),
(-460,-58,o),
(-486,-39,c),
(-486,-179,l),
(-460,-198,o),
(-437,-205,o),
(-415,-205,cs)
);
}
);
width = 0;
}
);
unicode = 3542;
userData = {
com.fontlab.hintData = {
hhints = (
{
position = -199;
width = 41;
},
{
position = -164;
width = 42;
}
);
};
};
},
{
category = Mark;
glyphname = sinMatraU.sub;
layers = (
{
layerId = "DC4431BF-9234-4C16-9154-22D387E42D10";
shapes = (
{
closed = 1;
nodes = (
(161,-277,l),
(161,-239,l),
(152,-239,ls),
(67,-239,o),
(55,-182,o),
(55,-149,cs),
(55,-76,ls),
(55,-20,o),
(55,2,o),
(161,91,c),
(161,125,l),
(22,125,l),
(22,91,l),
(114,91,l),
(35,23,o),
(18,-1,o),
(18,-77,cs),
(18,-149,ls),
(18,-239,o),
(72,-277,o),
(153,-277,cs)
);
}
);
width = 164;
},
{
layerId = "4EACF7E3-2421-4EEA-928B-7BA9BC4A845D";
shapes = (
{
closed = 1;
nodes = (
(177,-282,l),
(177,-192,l),
(157,-192,ls),
(134,-192,o),
(109,-177,o),
(109,-143,cs),
(109,-92,ls),
(109,-56,o),
(120,-37,o),
(177,34,c),
(177,120,l),
(24,120,l),
(24,34,l),
(80,34,l),
(36,-21,o),
(21,-38,o),
(21,-103,cs),
(21,-157,ls),
(21,-248,o),
(88,-282,o),
(163,-282,cs)
);
}
);
width = 202;
}
);
subCategory = Spacing;
},
{
category = Mark;
glyphname = sinMatraUu.sub;
layers = (
{
layerId = "DC4431BF-9234-4C16-9154-22D387E42D10";
shapes = (
{
closed = 1;
nodes = (
(159,-285,l),
(159,-252,l),
(137,-252,ls),
(56,-252,o),
(51,-202,o),
(51,-180,cs),
(51,-141,ls),
(51,-109,o),
(55,-86,o),
(159,-21,c),
(159,13,l),
(70,13,l),
(159,90,l),
(159,120,l),
(22,120,l),
(22,90,l),
(116,90,l),
(22,11,l),
(22,-17,l),
(112,-17,l),
(26,-70,o),
(15,-102,o),
(15,-142,cs),
(15,-174,ls),
(15,-262,o),
(71,-285,o),
(138,-285,cs)
);
}
);
width = 189;
},
{
layerId = "4EACF7E3-2421-4EEA-928B-7BA9BC4A845D";
shapes = (
{
closed = 1;
nodes = (
(171,-282,l),
(171,-192,l),
(155,-192,ls),
(129,-192,o),
(110,-179,o),
(110,-152,cs),
(110,-144,ls),
(110,-121,o),
(110,-108,o),
(171,-63,c),
(171,7,l),
(104,7,l),
(171,50,l),
(171,120,l),
(21,120,l),
(21,50,l),
(87,50,l),
(21,7,l),
(21,-63,l),
(80,-63,l),
(42,-94,o),
(21,-118,o),
(21,-153,cs),
(21,-181,ls),
(21,-249,o),
(82,-282,o),
(155,-282,cs)
);
}
);
width = 204;
}
);
subCategory = Spacing;
},
